<svg version="1.1" id="Layer_1" xmlns="http://www.w3.org/2000/svg" xmlns:xlink="http://www.w3.org/1999/xlink" x="0px" y="0px"
	 width="100%" viewBox="0 0 200 200" enable-background="new 0 0 200 200" xml:space="preserve">
<path fill="#03AFEE" opacity="1.000000" stroke="none" 
	d="
M201.000000,96.000000 
	C201.000000,102.354401 201.000000,108.708794 200.615921,115.622192 
	C199.692398,118.355286 199.092072,120.516327 198.622574,122.705437 
	C190.366730,161.200272 158.501236,191.957825 119.645462,199.019562 
	C118.353027,199.254440 117.211739,200.321075 116.000000,201.000000 
	C105.979103,201.000000 95.958214,201.000000 85.428680,200.615143 
	C84.189194,199.883545 83.491348,199.358353 82.722656,199.216171 
	C64.426453,195.831940 48.070969,188.173752 34.624863,175.395187 
	C27.968296,169.069077 22.842445,161.132294 17.457386,153.999207 
	C20.381973,154.207611 22.871746,154.386261 25.364689,154.466949 
	C38.721905,154.899323 51.917973,153.904144 64.834457,149.961578 
	C64.900307,149.996429 64.969162,149.864273 65.355812,149.875854 
	C76.513062,145.274139 87.283653,140.660812 98.030136,136.022766 
	C98.006020,135.998016 98.041229,136.056549 98.355133,136.016693 
	C99.477043,135.341934 100.285049,134.707001 101.056610,134.048218 
	C101.020157,134.024353 101.062653,134.100403 101.402969,134.092499 
	C103.180046,135.016312 104.616806,135.948029 106.051392,136.921356 
	C106.049217,136.962967 106.132530,136.965546 106.174698,137.204514 
	C106.382248,137.759613 106.642899,137.930099 106.991348,137.981079 
	C106.983879,138.007263 107.038139,138.002731 107.085823,138.256317 
	C107.414055,138.684082 107.694603,138.858246 107.987579,139.016205 
	C108.000000,139.000000 107.973206,139.031235 108.075027,139.348785 
	C110.106438,141.790833 112.036034,143.915314 113.982224,146.019409 
	C113.998817,145.999023 113.952591,146.024353 114.021469,146.282806 
	C114.383446,146.727814 114.676552,146.914383 114.973923,147.067566 
	C114.978195,147.034195 114.915131,147.057693 114.993874,147.384247 
	C117.021866,149.845291 118.971115,151.979797 120.943863,154.078705 
	C120.967369,154.043091 120.888115,154.074738 120.986145,154.391998 
	C122.724838,156.465286 124.365494,158.221313 126.000107,159.991180 
	C125.994064,160.005051 126.023720,159.999023 126.074448,160.253479 
	C126.407433,160.690140 126.689697,160.872360 126.986862,161.030212 
	C127.001762,161.005875 126.949219,161.028122 127.008987,161.297852 
	C127.364143,161.764664 127.659531,161.961731 127.959862,162.097565 
	C127.964798,162.036316 127.842209,162.027893 127.919525,162.320572 
	C128.298004,162.867996 128.599167,163.122742 128.926651,163.568756 
	C129.083801,164.016144 129.292999,164.146652 129.713318,164.466522 
	C131.524826,166.571472 133.203583,168.361450 134.904633,170.110718 
	C134.926926,170.070023 134.842468,170.108566 134.942657,170.439026 
	C136.273773,172.084290 137.320618,174.215225 138.774124,174.543015 
	C141.746918,175.213440 145.654510,176.059265 147.837585,174.692795 
	C150.009674,173.333176 151.512970,169.339859 151.481644,166.521729 
	C151.456696,164.276672 148.680496,162.062210 147.109924,159.871094 
	C147.094223,159.908035 147.172073,159.888489 147.086090,159.558945 
	C142.981766,154.680115 138.963425,150.130814 134.869141,145.367035 
	C134.793228,145.152542 134.387741,144.945999 134.257690,144.618683 
	C130.435165,140.173462 126.742661,136.055557 123.028954,131.964386 
	C123.007744,131.991119 123.072327,131.969040 123.007416,131.699158 
	C122.643814,131.234055 122.345131,131.038849 122.054260,130.883606 
	C122.062073,130.923553 122.141396,130.905151 122.044052,130.587250 
	C120.309837,128.500549 118.672951,126.731781 117.017845,124.981186 
	C116.999626,124.999367 117.043480,124.972816 116.977638,124.709335 
	C116.622597,124.248276 116.333397,124.050705 116.049088,123.888351 
	C116.053986,123.923561 116.122940,123.906281 116.015053,123.589973 
	C113.955223,121.161659 112.003281,119.049652 110.029663,116.964890 
	C110.007980,116.992126 110.072914,116.967003 110.003761,116.706055 
	C109.632141,116.275314 109.329674,116.105530 109.015503,115.965477 
	C109.003807,115.995216 109.054146,115.955833 108.861359,115.627213 
	C104.668816,112.556831 100.965805,113.810150 96.960136,116.114670 
	C95.312889,116.983376 94.048241,117.877228 92.496826,118.902267 
	C91.538277,119.798447 90.866478,120.563438 90.202805,121.284859 
	C90.210915,121.241280 90.295929,121.266426 89.942642,121.242844 
	C88.000801,122.075172 86.412262,122.931084 84.450378,123.836914 
	C83.118774,124.148163 82.075211,124.245949 81.214806,124.694832 
	C61.401360,135.031708 40.112926,137.131699 18.257578,135.941971 
	C9.431873,135.461517 7.632013,133.840881 5.792260,125.452049 
	C2.301070,109.533066 1.565303,93.624535 5.670977,77.662636 
	C6.692087,73.692802 7.121294,69.570717 7.813137,65.396919 
	C7.803710,65.275223 8.004291,65.136070 8.328501,65.002701 
	C11.098310,59.581062 13.543906,54.292797 15.991565,48.999729 
	C15.993627,48.994923 16.001577,48.987900 16.325140,48.900578 
	C17.080082,47.851166 17.511463,46.889076 17.965473,45.957947 
	C17.988102,45.988911 17.919178,45.955265 18.267818,45.908569 
	C20.074091,43.574078 21.531723,41.286278 22.993740,38.998554 
	C22.998123,38.998627 22.996082,38.990700 23.219181,38.875469 
	C23.613811,38.479042 23.785345,38.197849 23.959248,37.952721 
	C23.961615,37.988789 23.912529,37.935715 24.266544,37.895012 
	C25.561758,36.422539 26.502956,34.990768 27.511127,33.586292 
	C27.578102,33.613583 27.478035,33.509148 27.811760,33.490959 
	C28.767416,32.658863 29.389349,31.844961 30.003658,31.013691 
	C29.996037,30.996325 30.031273,31.010361 30.320526,30.957312 
	C30.931700,30.453121 31.253624,30.001982 31.745491,29.680468 
	C31.915436,29.810095 31.557098,29.577192 31.845596,29.516485 
	C32.433033,28.981260 32.731972,28.506741 33.015457,28.016109 
	C33.000000,28.000000 33.030895,28.032694 33.400387,28.039143 
	C35.158848,26.669312 36.547817,25.293030 37.963326,23.941498 
	C37.989868,23.966244 37.917671,23.958849 38.149803,23.864735 
	C38.582539,23.510431 38.783138,23.250242 38.990463,22.992630 
	C38.997192,22.995207 38.995068,22.980267 39.362389,22.991791 
	C41.805103,21.308723 43.880497,19.614132 45.972313,17.953800 
	C45.988743,17.988062 45.927128,17.943579 46.267883,17.957293 
	C47.403187,17.314932 48.197735,16.658857 48.994820,15.999680 
	C48.997353,15.996575 49.004692,15.993926 49.387608,16.011911 
	C54.864029,13.357635 59.957535,10.685373 65.236465,7.827103 
	C65.916649,7.498583 66.411400,7.356073 67.221024,7.385537 
	C70.244377,6.973225 72.988586,6.518477 75.655411,5.783104 
	C90.229218,1.764398 105.148445,1.820724 119.670578,4.525028 
	C128.909729,6.245535 140.335632,6.259459 144.708054,18.365757 
	C144.748688,19.083349 144.718399,19.496708 144.505768,20.272106 
	C143.041901,30.174198 141.761765,39.714436 140.478027,49.254192 
	C140.059204,52.366367 139.631042,55.477287 139.246902,58.687187 
	C139.286636,58.785599 139.123825,58.921787 138.857025,59.161224 
	C136.562119,65.050316 134.534027,70.699959 132.332489,76.359512 
	C132.159042,76.369423 132.507538,76.377777 132.158417,76.448181 
	C131.126053,77.945221 130.442810,79.371864 129.604736,80.969955 
	C129.246201,81.372665 129.053116,81.612495 128.617157,82.082047 
	C127.487877,84.071373 126.612091,85.839531 125.336708,87.697342 
	C123.573029,87.896339 122.208939,88.005684 120.880585,88.109695 
	C120.916321,88.104355 120.920212,88.176498 120.812653,87.930679 
	C120.423271,87.473083 120.141457,87.261292 119.904442,87.049515 
	C119.949242,87.049522 119.947166,87.139099 119.837952,86.899704 
	C119.454765,86.448692 119.180786,86.237068 118.941696,86.025055 
	C118.976593,86.024658 118.972565,86.094330 118.858551,85.863045 
	C118.468964,85.434677 118.193398,85.237595 117.696861,84.948807 
	C117.196396,84.665169 117.028816,84.401970 116.883240,83.832581 
	C116.537086,83.389336 116.280853,83.181046 116.013733,82.985657 
	C116.002846,82.998566 116.031555,82.979561 115.970688,82.678116 
	C115.300453,81.895561 114.691093,81.414452 114.043777,80.963898 
	C114.005806,80.994453 114.067200,80.918755 114.039551,80.563599 
	C111.943260,78.191490 109.874619,76.174545 107.841629,74.147011 
	C107.877289,74.136429 107.875053,74.210785 107.772575,73.964424 
	C107.398689,73.495102 107.127281,73.272141 106.905731,73.055267 
	C106.955582,73.061356 106.941299,73.160782 106.831192,72.916763 
	C106.441017,72.460403 106.160965,72.248077 105.920776,72.032913 
	C105.960655,72.030067 105.964928,72.109909 105.844749,71.872925 
	C105.441727,71.430267 105.158890,71.224602 104.667862,70.926674 
	C104.204514,70.642365 104.046249,70.389641 103.916954,69.778152 
	C103.379295,69.145340 102.909561,68.810616 102.537354,68.385727 
	C102.634880,68.295563 102.481331,68.512314 102.428467,68.247826 
	C102.085419,67.792580 101.795242,67.601830 101.534561,67.443901 
	C101.564056,67.476730 101.483185,67.436516 101.551437,67.069588 
	C99.547981,64.936478 97.476273,63.170300 95.276985,61.394569 
	C95.149406,61.385017 94.997871,61.178848 94.771591,60.904804 
	C91.885483,58.593952 89.379555,58.565624 87.087845,61.167572 
	C87.097809,61.132191 87.167152,61.156597 86.810074,61.137894 
	C85.802757,61.896980 85.152527,62.674767 84.285873,63.383942 
	C84.069466,63.315331 84.509560,63.424675 84.153931,63.484055 
	C80.409073,67.759430 80.492859,70.019691 84.382141,73.967422 
	C84.580879,74.002686 84.984543,74.006287 84.991081,74.004639 
	C84.997620,74.002991 84.991646,74.016357 84.972664,74.254700 
	C84.953682,74.493050 84.999016,74.969376 85.048622,75.314926 
	C87.332306,78.180374 89.566376,80.700272 91.961258,83.384811 
	C92.335754,83.769753 92.551369,83.988121 92.922066,84.384521 
	C93.294983,84.790207 93.522926,85.007378 93.844177,85.534912 
	C94.870834,86.660896 95.812363,87.467957 96.908539,88.444267 
	C97.273010,88.836456 97.493423,89.048393 97.806664,89.562729 
	C98.810219,90.678726 99.731522,91.481323 100.775482,92.530197 
	C101.230164,93.214684 101.562195,93.652893 101.996841,94.393387 
	C103.003418,95.532715 103.907379,96.369774 104.971581,97.381042 
	C105.341606,97.792168 105.567146,98.012978 105.967865,98.382927 
	C106.338692,98.769852 106.553093,98.988602 106.922485,99.392868 
	C107.291214,99.821434 107.526703,100.041496 107.936554,100.419731 
	C108.297050,100.839661 108.522202,101.060715 108.925743,101.426506 
	C109.294075,101.813225 109.508331,102.030579 109.808334,102.557961 
	C110.809944,103.679222 111.729836,104.486511 112.778587,105.535324 
	C113.244324,106.208199 113.581184,106.639557 114.085938,107.352142 
	C115.456909,108.801888 116.659996,109.970398 118.113647,111.390770 
	C124.488205,116.401962 132.316010,111.696739 136.295242,103.824944 
	C138.797882,100.161072 141.024933,96.687973 143.400208,93.037003 
	C143.747833,92.623787 143.943619,92.385468 144.387650,91.915390 
	C145.839859,89.186592 147.040192,86.686569 148.395676,83.956680 
	C148.792999,83.231346 149.035172,82.735886 149.507080,81.979904 
	C151.488205,77.479225 153.239594,73.239067 155.013687,68.764557 
	C155.036392,68.530197 155.066681,68.060272 155.254166,67.751961 
	C156.695969,62.686558 157.950287,57.929466 159.354080,52.821190 
	C160.098419,46.675289 160.693268,40.880566 161.245071,34.667625 
	C161.325058,33.424232 161.448074,32.599060 161.811569,31.556141 
	C163.134720,29.137165 164.217422,26.935938 165.260818,24.746807 
	C165.221512,24.758905 165.206375,24.678062 165.322968,24.913649 
	C165.743576,25.303787 166.047562,25.458342 166.170105,25.782251 
	C165.988647,25.951607 166.347717,25.605293 166.425140,25.888134 
	C166.976822,26.471748 167.451096,26.772522 167.962631,27.040516 
	C167.999908,27.007732 167.923767,27.067106 167.996170,27.368900 
	C168.708893,28.128401 169.349197,28.586109 170.202972,29.131271 
	C170.686279,29.395216 170.866409,29.638203 171.051147,30.194626 
	C171.428253,30.637337 171.711060,30.833107 171.985718,31.024071 
	C171.977570,31.019262 171.968048,31.002903 172.016205,31.330751 
	C172.869843,32.290195 173.675354,32.921791 174.460022,33.628448 
	C174.439209,33.703510 174.531158,33.577751 174.459015,33.921577 
	C175.503876,35.601780 176.620895,36.938156 177.891479,38.447212 
	C178.252777,38.847733 178.467728,39.068531 178.797638,39.568291 
	C179.542847,40.637966 180.180313,41.421638 180.998734,42.392502 
	C181.486496,42.736015 181.793289,42.892338 182.291901,43.113918 
	C182.483704,43.179180 182.882935,43.248512 182.923630,43.467979 
	C182.964325,43.687443 183.293625,43.988831 183.217651,44.102234 
	C183.141693,44.215637 183.049240,44.472492 183.136932,44.779167 
	C183.512482,45.389252 183.800339,45.692665 184.055725,45.987564 
	C184.023270,45.979050 184.052841,45.918789 184.040314,46.261665 
	C184.710251,47.393520 185.392715,48.182499 186.043304,48.978500 
	C186.011429,48.985519 186.044388,48.929169 186.024078,49.305313 
	C187.194336,51.898331 188.384888,54.115200 189.665680,56.676888 
	C190.863602,59.013920 191.971313,61.006134 193.047516,62.990391 
	C193.016006,62.982433 193.050568,62.927391 193.027542,63.239807 
	C193.333237,64.059914 193.661957,64.567596 194.159195,65.261337 
	C194.471039,65.919693 194.614380,66.391998 194.664413,67.042107 
	C194.739151,67.563789 194.907181,67.907669 195.119843,68.298218 
	C195.164459,68.344872 195.074478,68.437477 195.034088,68.884125 
	C196.318008,76.326782 197.576614,83.336281 199.008911,90.310112 
	C199.409546,92.260773 200.322220,94.106262 201.000000,96.000000 
z"/>
<path fill="#FCFEFE" opacity="1.000000" stroke="none" 
	d="
M17.024036,153.924255 
	C22.842445,161.132294 27.968296,169.069077 34.624863,175.395187 
	C48.070969,188.173752 64.426453,195.831940 82.722656,199.216171 
	C83.491348,199.358353 84.189194,199.883545 84.960022,200.615143 
	C57.083580,201.000000 29.167160,201.000000 1.000000,201.000000 
	C1.000000,180.313110 1.000000,159.625214 1.278906,138.367432 
	C1.371875,136.865036 1.185938,135.932510 1.000000,135.000000 
	C1.000000,132.629440 1.000000,130.258896 1.387876,127.443756 
	C2.552107,126.996048 3.328463,126.992912 4.188019,127.086388 
	C4.271220,127.182999 4.097626,127.369781 4.163356,127.647522 
	C4.387231,128.268692 4.545376,128.612122 4.818274,129.254715 
	C4.979897,129.976944 5.026769,130.399994 5.101270,131.116547 
	C5.383797,131.932236 5.638695,132.454391 6.083713,133.234131 
	C6.588019,134.279694 6.902208,135.067657 6.973469,136.086792 
	C6.507400,137.337082 6.284259,138.356201 6.061119,139.375320 
	C7.004786,139.453491 8.099246,139.873230 8.860113,139.537323 
	C10.354321,138.877655 11.662948,137.797607 13.449505,136.846008 
	C14.912310,136.953461 15.973972,137.106430 17.223637,137.568146 
	C18.314604,138.537659 19.235067,139.792953 20.117828,139.766983 
	C28.781830,139.511978 37.733208,141.921982 46.324051,137.119690 
	C47.455856,136.995300 48.218552,136.974579 49.273933,137.165939 
	C52.047096,136.663330 54.527573,135.948654 57.316662,135.108704 
	C58.065590,134.949448 58.505901,134.915436 59.206619,135.091888 
	C60.593754,134.788116 61.720482,134.273895 62.863091,133.803223 
	C62.878975,133.846786 62.790237,133.873688 62.999435,133.819702 
	C63.481358,133.664413 63.725010,133.515549 64.263016,133.192169 
	C65.044685,133.015091 65.502922,132.964966 66.241257,133.127426 
	C69.271004,132.120255 72.020668,130.900528 74.804428,129.695374 
	C74.838524,129.709961 74.781494,129.757355 75.185074,129.816345 
	C77.394447,128.943237 79.200241,128.011108 81.100281,126.974426 
	C81.194534,126.869873 81.471802,126.918640 81.738663,126.831085 
	C82.322624,126.550690 82.639732,126.357849 83.103035,126.030281 
	C83.249229,125.895554 83.645233,125.859909 84.004959,125.870636 
	C85.234032,125.249077 86.103378,124.616806 86.982544,123.990036 
	C86.992371,123.995537 86.986816,123.975105 87.165375,123.890594 
	C87.572884,123.670502 87.773750,123.501526 88.136688,123.153412 
	C88.326836,123.007652 88.798401,122.922668 89.018661,122.834854 
	C89.523140,122.602333 89.775909,122.415161 90.092484,121.962425 
	C90.187721,121.739334 90.295929,121.266426 90.295929,121.266426 
	C90.295929,121.266426 90.210915,121.241280 90.502419,121.254120 
	C91.179459,121.162354 91.564995,121.057755 92.149651,120.850052 
	C92.603058,120.584320 92.825668,120.386108 93.028381,120.082733 
	C93.040169,120.013153 93.179153,120.037704 93.321556,119.960464 
	C93.646912,119.763405 93.800133,119.613258 94.111282,119.250763 
	C94.464897,119.015488 94.630836,118.962212 95.185089,118.906029 
	C100.066978,117.920700 104.560562,116.938263 109.054146,115.955826 
	C109.054146,115.955833 109.003807,115.995216 109.157822,116.167900 
	C109.527939,116.595055 109.781631,116.803864 110.072914,116.967003 
	C110.072914,116.967003 110.007980,116.992126 110.041298,117.360825 
	C110.594574,121.253494 111.077835,124.813385 116.122940,123.906281 
	C116.122940,123.906281 116.053986,123.923561 116.180664,124.105171 
	C116.552719,124.515457 116.798103,124.744141 117.043480,124.972816 
	C117.043480,124.972816 116.999626,124.999367 117.029251,125.344223 
	C118.753044,127.427765 120.447220,129.166458 122.141396,130.905151 
	C122.141396,130.905151 122.062073,130.923553 122.189240,131.102783 
	C122.568375,131.511032 122.820351,131.740036 123.072327,131.969040 
	C123.072327,131.969040 123.007744,131.991119 123.040787,132.342255 
	C123.711113,134.379974 123.921524,136.477768 125.070969,137.670959 
	C127.801285,140.505173 127.919197,146.907043 134.387741,144.945999 
	C134.387741,144.945999 134.793228,145.152542 134.590271,145.567352 
	C134.939774,147.434189 135.260666,149.042038 136.105377,150.297409 
	C137.082153,151.749084 139.327881,152.735916 139.607071,154.195374 
	C140.460663,158.657303 143.584732,159.427139 147.172073,159.888489 
	C147.172073,159.888489 147.094223,159.908035 147.099350,160.235992 
	C147.667038,163.452576 149.543564,165.742081 148.016144,169.425751 
	C146.455353,173.189835 143.730576,175.387695 139.790237,173.063675 
	C138.135605,172.087753 136.491409,171.094131 134.842468,170.108566 
	C134.842468,170.108566 134.926926,170.070023 134.911911,169.728592 
	C134.669373,166.073547 132.918777,164.306488 129.580551,164.151566 
	C129.292999,164.146652 129.083801,164.016144 128.797363,163.309723 
	C128.375229,162.582230 128.108719,162.305069 127.842209,162.027893 
	C127.842209,162.027893 127.964798,162.036316 127.827858,161.878418 
	C127.443687,161.489716 127.196449,161.258926 126.949219,161.028122 
	C126.949219,161.028122 127.001762,161.005875 126.860641,160.827332 
	C126.525223,160.391891 126.293297,160.175293 126.023720,159.999023 
	C126.023720,159.999023 125.994064,160.005051 125.978363,159.626862 
	C124.271149,157.524033 122.579628,155.799377 120.888115,154.074738 
	C120.888115,154.074738 120.967369,154.043091 120.963120,153.680145 
	C121.401062,148.858597 117.979309,148.130768 114.915131,147.057693 
	C114.915131,147.057693 114.978195,147.034195 114.838409,146.857391 
	C114.490852,146.415344 114.242172,146.196594 113.952591,146.024353 
	C113.952591,146.024353 113.998817,145.999023 113.993744,145.614868 
	C114.215897,140.998123 112.387375,138.760223 107.973206,139.031235 
	C107.973206,139.031235 108.000000,139.000000 107.861946,138.818390 
	C107.531418,138.386398 107.302834,138.175049 107.038139,138.002731 
	C107.038139,138.002731 106.983879,138.007263 106.874634,137.793549 
	C106.587212,137.341293 106.376259,137.136536 106.132530,136.965546 
	C106.132530,136.965546 106.049217,136.962967 106.036041,136.557663 
	C105.196129,133.470062 104.663528,130.076752 101.062653,134.100403 
	C101.062653,134.100403 101.020157,134.024353 100.715851,134.055969 
	C99.621445,134.743912 98.831337,135.400223 98.041229,136.056549 
	C98.041229,136.056549 98.006020,135.998016 97.642685,136.013321 
	C96.782898,136.062439 96.240662,135.977097 95.796753,136.147644 
	C86.730865,139.630829 77.648933,143.075882 68.647507,146.719528 
	C67.229431,147.293549 66.185883,148.792816 64.969162,149.864273 
	C64.969162,149.864273 64.900307,149.996429 64.391335,149.964142 
	C62.055862,149.952240 60.229340,149.991028 58.402866,149.988617 
	C55.801823,149.985168 52.782742,149.081985 50.678310,150.093918 
	C44.401825,153.111984 37.996662,152.068802 31.519409,152.125443 
	C26.682743,152.167725 21.855484,153.285431 17.024036,153.924255 
M8.566244,143.531921 
	C8.417626,143.579285 8.240358,143.591843 8.128551,143.683914 
	C8.019376,143.773804 7.977017,143.944839 7.905320,144.080246 
	C8.899598,144.377396 9.893875,144.674545 10.888152,144.971695 
	C10.970907,144.623062 11.053662,144.274414 11.136417,143.925766 
	C10.438639,143.804031 9.740861,143.682297 8.566244,143.531921 
M101.831108,120.185272 
	C102.213226,120.258125 102.595337,120.330978 102.977455,120.403839 
	C102.985428,120.142311 102.993401,119.880775 103.001373,119.619247 
	C102.615791,119.674400 102.230217,119.729546 101.831108,120.185272 
M12.702070,147.829208 
	C12.879924,147.956772 13.057777,148.084320 13.235636,148.211884 
	C13.123025,148.024704 13.010414,147.837524 12.702070,147.829208 
z"/>
<path fill="#FFFFFF" opacity="1.000000" stroke="none" 
	d="
M183.293625,43.988831 
	C183.293625,43.988831 182.964325,43.687443 182.830719,43.232773 
	C182.491455,42.510262 182.285797,42.242416 182.048492,41.972160 
	C182.016861,41.969749 182.040756,41.910984 182.036438,41.499542 
	C182.167465,37.442394 181.617401,34.409557 176.765472,35.208164 
	C176.752930,35.204422 176.725662,35.197216 176.770950,34.802673 
	C175.993820,31.501608 175.171402,28.595083 174.227356,25.258711 
	C171.917984,25.602310 169.919128,25.899712 167.654755,26.103298 
	C167.042068,25.874752 166.694901,25.740023 166.347717,25.605293 
	C166.347717,25.605293 165.988647,25.951607 166.065826,25.538620 
	C165.830811,24.976444 165.518585,24.827253 165.206375,24.678062 
	C165.206375,24.678062 165.221512,24.758905 165.268417,24.536180 
	C165.315323,24.313456 165.268219,23.894548 165.343430,23.645395 
	C164.564667,22.955687 163.710693,22.515131 162.551163,22.183941 
	C161.944794,22.602667 161.643967,22.912025 161.275085,23.414721 
	C161.140732,23.878590 161.113983,24.152988 161.249344,24.830059 
	C161.438278,27.410540 161.504684,29.592215 161.571106,31.773891 
	C161.448074,32.599060 161.325058,33.424232 161.128403,34.605980 
	C161.054779,34.962555 160.790924,34.967327 160.481049,35.060303 
	C159.675537,35.572453 158.725952,36.021297 158.751129,36.406422 
	C159.277374,44.456524 153.565460,51.800884 156.103195,60.059326 
	C156.123703,60.064137 156.116745,60.105682 155.790497,60.188789 
	C150.962830,65.037354 148.394226,70.408875 150.191559,77.135994 
	C150.209488,77.128166 150.207382,77.167358 149.844238,77.206589 
	C148.038406,80.664070 146.595734,84.082321 145.159988,87.649521 
	C145.166916,87.798462 144.939377,87.991211 144.573364,88.019867 
	C139.213043,89.266441 139.273743,93.259857 139.174622,97.137207 
	C139.153931,97.097534 139.209442,97.185890 138.843292,97.204422 
	C133.547424,98.841888 131.643829,102.630257 131.082855,107.625946 
	C131.009003,107.817764 130.672501,108.053925 130.530945,108.150772 
	C130.212753,108.397652 130.068726,108.574295 129.955276,108.866287 
	C129.953232,108.955040 129.775711,108.959328 129.632538,109.059517 
	C129.309219,109.311531 129.163773,109.491394 128.854034,109.980652 
	C127.825043,110.618179 126.995010,110.974350 125.896202,111.077362 
	C124.540634,109.328705 123.388832,107.874863 122.392967,106.321075 
	C121.851021,105.475510 121.573921,104.460190 121.177353,103.521439 
	C120.382286,104.155540 119.549271,104.748360 118.802330,105.434837 
	C117.978699,106.191803 117.234070,107.034729 116.352234,107.823082 
	C116.249443,107.805954 116.235153,107.598015 116.348900,107.222534 
	C115.111862,104.733284 113.830421,102.570488 112.383751,100.524529 
	C111.544083,99.337036 109.424461,98.093613 109.616913,97.292328 
	C110.924774,91.846802 106.325188,89.440651 104.584282,86.350952 
	C102.522079,85.877121 99.782936,85.830849 99.591354,85.108734 
	C98.382812,80.553162 95.189461,80.803604 91.789978,81.116348 
	C91.831818,81.010025 91.774239,81.230209 91.816719,80.835266 
	C92.084427,77.545547 90.355499,76.914085 87.966400,77.040771 
	C87.982246,77.015953 87.957344,77.058769 87.827454,76.859024 
	C87.497749,76.407288 87.258598,76.200897 86.980919,76.029160 
	C86.981735,76.018204 86.959801,76.018463 86.832275,75.825378 
	C86.508018,75.389488 86.273285,75.191826 85.981415,75.039452 
	C85.962296,75.039597 85.959129,75.001503 85.829765,74.808044 
	C85.501404,74.371040 85.265152,74.171638 84.991646,74.016357 
	C84.991646,74.016357 84.997620,74.002991 85.012825,73.633392 
	C86.356644,69.242737 87.685249,65.221680 89.373093,61.063988 
	C90.485222,60.973774 91.238121,61.020195 92.051193,61.446632 
	C93.617493,62.275951 95.123604,62.725254 96.695328,63.179596 
	C96.760925,63.184631 96.764091,63.316185 96.635345,63.719021 
	C97.524918,66.363945 98.543236,68.606033 99.793472,71.358734 
	C98.587929,72.595444 96.799706,74.429909 94.879364,76.399918 
	C99.090118,75.183800 102.453613,74.212372 105.858910,73.605766 
	C108.312828,81.661415 113.881813,86.790733 120.133392,91.316704 
	C120.461617,91.554329 121.499290,90.811996 122.506966,90.622368 
	C123.209259,90.830864 123.611275,90.942879 124.121841,91.325165 
	C128.193924,92.261482 126.533684,89.277321 126.874329,87.390839 
	C126.906250,87.210518 127.178619,86.965660 127.338852,86.796143 
	C127.695915,86.380455 127.841003,86.106842 127.963715,85.593033 
	C128.103928,85.094513 128.303162,84.898735 128.923676,84.943542 
	C131.653091,86.057487 133.038635,85.743477 132.418228,82.687698 
	C132.166138,81.445930 132.080048,80.170464 131.926422,78.916496 
	C131.934448,78.922661 131.904388,78.901245 132.264557,78.943527 
	C133.949219,79.047318 135.273697,79.108810 135.379272,79.113716 
	C137.427917,72.934761 138.462280,67.330841 141.131622,62.661610 
	C142.831833,59.687580 142.937027,58.119751 140.840912,55.603416 
	C140.972809,54.851540 141.111984,54.432304 141.576920,53.905251 
	C144.562378,52.180206 144.439072,50.151432 142.756439,47.527561 
	C142.897263,46.443989 143.057190,45.727749 143.527939,44.853271 
	C146.278000,41.644470 146.839890,38.407600 144.747925,34.489456 
	C144.856598,32.362640 145.026794,30.659847 145.379776,28.603199 
	C145.426834,24.511185 145.291092,20.773029 145.045425,16.641151 
	C144.916473,15.164202 144.897476,14.080976 145.182861,13.048325 
	C146.350006,13.170781 147.212753,13.242666 148.075516,13.314551 
	C148.152390,12.962887 148.229263,12.611221 148.306137,12.259557 
	C147.044617,11.892323 145.783112,11.525088 144.347931,11.085363 
	C143.961411,10.846438 143.852081,10.628152 143.876221,9.934467 
	C143.270782,6.673948 142.635391,3.836973 142.000000,0.999999 
	C161.597031,1.000000 181.194046,1.000000 201.000000,1.000000 
	C201.000000,22.353773 201.000000,43.708229 200.670761,65.593765 
	C199.166382,66.260498 197.991257,66.396164 196.370178,66.583305 
	C198.758820,61.047344 195.249023,59.671768 191.819229,58.219940 
	C191.829147,58.188660 191.884445,58.223812 191.809204,58.004036 
	C191.602356,57.500889 191.425308,57.249531 191.081024,56.847694 
	C190.959198,56.665203 190.907852,56.229393 190.829468,56.008827 
	C190.613220,55.504269 190.431717,55.251652 189.997864,54.807518 
	C189.458862,53.851097 189.128540,53.117565 188.816254,51.964859 
	C188.413788,48.981045 187.993286,46.416409 187.535248,43.622742 
	C185.866592,43.766762 184.580109,43.877796 183.293625,43.988831 
M122.211632,96.845993 
	C121.949554,97.107666 121.687477,97.369339 121.425400,97.631020 
	C121.626961,97.807899 121.828522,97.984779 122.030083,98.161652 
	C122.189125,97.815910 122.348175,97.470169 122.211632,96.845993 
M149.503174,54.091549 
	C149.648499,54.444820 149.793823,54.798088 149.939133,55.151363 
	C150.149384,54.985386 150.359619,54.819405 150.569870,54.653423 
	C150.317947,54.378613 150.066040,54.103798 149.503174,54.091549 
M149.788834,45.152714 
	C150.050583,44.891327 150.312317,44.629944 150.574066,44.368561 
	C150.372787,44.191849 150.171524,44.015137 149.970245,43.838428 
	C149.811401,44.183796 149.652557,44.529163 149.788834,45.152714 
M117.170624,97.702171 
	C117.043098,97.879967 116.915573,98.057770 116.788055,98.235580 
	C116.975189,98.123001 117.162315,98.010429 117.170624,97.702171 
M172.170944,17.701923 
	C172.043320,17.879871 171.915695,18.057819 171.788071,18.235771 
	C171.975357,18.123102 172.162628,18.010433 172.170944,17.701923 
z"/>
<path fill="#FBFEFE" opacity="1.000000" stroke="none" 
	d="
M116.468658,201.000000 
	C117.211739,200.321075 118.353027,199.254440 119.645462,199.019562 
	C158.501236,191.957825 190.366730,161.200272 198.622574,122.705437 
	C199.092072,120.516327 199.692398,118.355286 200.615921,116.090591 
	C201.000000,144.260239 201.000000,172.520462 201.000000,201.000000 
	C172.979492,201.000000 144.958405,201.000000 116.468658,201.000000 
z"/>
<path fill="#FBFEFE" opacity="1.000000" stroke="none" 
	d="
M8.004292,65.136070 
	C8.004291,65.136070 7.803710,65.275223 7.543448,65.669975 
	C5.972206,70.338707 4.706580,74.627350 3.330789,78.880363 
	C2.659827,80.954521 1.783415,82.962219 1.000000,85.000000 
	C1.000000,57.072670 1.000000,29.145340 1.000000,1.000000 
	C29.020517,1.000000 57.041599,1.000000 85.376999,1.351891 
	C79.429596,3.540375 73.167870,5.376969 66.906151,7.213564 
	C66.411400,7.356073 65.916649,7.498583 64.858749,7.831061 
	C59.198627,10.678662 54.101658,13.336295 49.004692,15.993927 
	C49.004692,15.993926 48.997353,15.996575 48.681496,16.038382 
	C47.552799,16.701319 46.739964,17.322449 45.927128,17.943579 
	C45.927128,17.943579 45.988743,17.988062 45.631233,17.998642 
	C43.180840,19.666239 41.087952,21.323252 38.995068,22.980267 
	C38.995068,22.980267 38.997192,22.995207 38.725922,23.039888 
	C38.275658,23.375996 38.096664,23.667423 37.917671,23.958849 
	C37.917671,23.958849 37.989868,23.966244 37.640686,24.008518 
	C35.871300,25.378094 34.451096,26.705395 33.030895,28.032694 
	C33.030895,28.032694 33.000000,28.000000 32.746490,28.104279 
	C32.181023,28.664768 31.869061,29.120981 31.557098,29.577192 
	C31.557098,29.577192 31.915436,29.810095 31.471766,29.759830 
	C30.695822,30.143164 30.363548,30.576763 30.031273,31.010361 
	C30.031273,31.010361 29.996037,30.996325 29.713446,31.105057 
	C28.779915,31.978910 28.128975,32.744030 27.478035,33.509148 
	C27.478035,33.509148 27.578102,33.613583 27.240131,33.746376 
	C25.905615,35.231350 24.909073,36.583530 23.912529,37.935715 
	C23.912529,37.935715 23.961615,37.988789 23.702169,38.024776 
	C23.293844,38.370743 23.144964,38.680721 22.996082,38.990700 
	C22.996082,38.990700 22.998123,38.998627 22.687447,39.129757 
	C20.890905,41.492348 19.405043,43.723804 17.919178,45.955265 
	C17.919178,45.955265 17.988102,45.988911 17.684143,46.099979 
	C16.920647,47.136665 16.461113,48.062283 16.001577,48.987900 
	C16.001577,48.987900 15.993627,48.994923 15.691200,49.157440 
	C12.927280,54.591999 10.465786,59.864033 8.004292,65.136070 
z"/>
<path fill="#2EADDB" opacity="1.000000" stroke="none" 
	d="
M1.000000,85.468658 
	C1.783415,82.962219 2.659827,80.954521 3.330789,78.880363 
	C4.706580,74.627350 5.972206,70.338707 7.552876,65.791672 
	C7.121294,69.570717 6.692087,73.692802 5.670977,77.662636 
	C1.565303,93.624535 2.301070,109.533066 5.792260,125.452049 
	C7.632013,133.840881 9.431873,135.461517 18.257578,135.941971 
	C40.112926,137.131699 61.401360,135.031708 81.214806,124.694832 
	C82.075211,124.245949 83.118774,124.148163 84.553879,123.960175 
	C85.030724,124.033508 85.236069,124.277145 85.069077,124.507416 
	C84.483131,125.111755 84.064178,125.485832 83.645233,125.859909 
	C83.645233,125.859909 83.249229,125.895554 82.808578,126.043869 
	C82.069229,126.434341 81.770515,126.676491 81.471802,126.918640 
	C81.471802,126.918640 81.194534,126.869873 80.753098,126.991928 
	C78.468277,127.995110 76.624886,128.876236 74.781494,129.757355 
	C74.781494,129.757355 74.838524,129.709961 74.437180,129.735046 
	C71.344284,130.811707 68.652725,131.863281 65.961166,132.914856 
	C65.502922,132.964966 65.044685,133.015091 64.026344,133.169403 
	C63.104050,133.319351 62.878716,133.519379 62.790237,133.873688 
	C62.790237,133.873688 62.878975,133.846786 62.516502,133.801590 
	C61.084763,134.131393 60.015488,134.506409 58.946217,134.881409 
	C58.505901,134.915436 58.065590,134.949448 56.934963,135.080429 
	C53.823517,135.769562 51.402378,136.361710 48.981243,136.953873 
	C48.218552,136.974579 47.455856,136.995300 45.900528,137.064728 
	C35.750469,137.162079 26.393051,137.210739 17.035633,137.259399 
	C15.973972,137.106430 14.912310,136.953461 13.144061,136.631546 
	C10.697116,136.260284 8.956757,136.057953 7.216397,135.855637 
	C6.902208,135.067657 6.588019,134.279694 6.099305,132.930237 
	C5.641067,131.853516 5.357355,131.338272 5.073642,130.823044 
	C5.026769,130.399994 4.979897,129.976944 4.833903,128.952560 
	C4.522395,128.024078 4.310008,127.696930 4.097624,127.369781 
	C4.097626,127.369781 4.271220,127.182999 4.200757,126.755463 
	C3.853880,125.512985 3.577464,124.698029 3.289526,123.554642 
	C3.139211,122.811935 3.000418,122.397675 2.858068,121.729691 
	C2.580922,121.287682 2.307333,121.099388 2.007248,120.592186 
	C1.923972,119.851524 1.867191,119.429779 1.885332,118.659302 
	C1.640168,117.540382 1.320084,116.770187 1.000000,116.000000 
	C1.000000,105.979103 1.000000,95.958214 1.000000,85.468658 
z"/>
<path fill="#2EADDB" opacity="1.000000" stroke="none" 
	d="
M67.221024,7.385537 
	C73.167870,5.376969 79.429596,3.540375 85.845657,1.351891 
	C95.354225,1.000000 104.708458,1.000000 114.714973,1.341175 
	C124.860275,4.574237 134.353287,7.466125 143.846298,10.358011 
	C143.852081,10.628152 143.961411,10.846438 144.333862,11.405811 
	C144.621796,12.198419 144.750122,12.598086 144.878448,12.997753 
	C144.897476,14.080976 144.916473,15.164202 144.926392,16.903061 
	C144.823914,17.726303 144.730530,17.893913 144.637131,18.061523 
	C140.335632,6.259459 128.909729,6.245535 119.670578,4.525028 
	C105.148445,1.820724 90.229218,1.764398 75.655411,5.783104 
	C72.988586,6.518477 70.244377,6.973225 67.221024,7.385537 
z"/>
<path fill="#F5FDFD" opacity="1.000000" stroke="none" 
	d="
M143.876221,9.934467 
	C134.353287,7.466125 124.860275,4.574237 115.183632,1.341175 
	C123.687569,1.000000 132.375137,1.000000 141.531342,0.999999 
	C142.635391,3.836973 143.270782,6.673948 143.876221,9.934467 
z"/>
<path fill="#F5FDFD" opacity="1.000000" stroke="none" 
	d="
M191.809311,58.251217 
	C195.249023,59.671768 198.758820,61.047344 196.370178,66.583305 
	C197.991257,66.396164 199.166382,66.260498 200.670761,66.062424 
	C201.000000,72.687645 201.000000,79.375290 200.664551,86.339645 
	C198.577560,80.556732 196.826019,74.497101 195.074478,68.437477 
	C195.074478,68.437477 195.164459,68.344872 195.112839,67.932823 
	C194.960052,67.301949 194.858887,67.083122 194.757721,66.864304 
	C194.614380,66.391998 194.471039,65.919693 194.166748,64.949287 
	C193.687393,63.943260 193.368973,63.435329 193.050568,62.927391 
	C193.050568,62.927391 193.016006,62.982433 193.071014,62.632740 
	C192.687119,60.939102 192.248215,59.595161 191.809311,58.251217 
z"/>
<path fill="#3DA7CF" opacity="1.000000" stroke="none" 
	d="
M195.034088,68.884125 
	C196.826019,74.497101 198.577560,80.556732 200.664551,86.808182 
	C201.000000,89.700012 201.000000,92.400032 201.000000,95.550018 
	C200.322220,94.106262 199.409546,92.260773 199.008911,90.310112 
	C197.576614,83.336281 196.318008,76.326782 195.034088,68.884125 
z"/>
<path fill="#FCFEFE" opacity="1.000000" stroke="none" 
	d="
M1.810411,119.008026 
	C1.867191,119.429779 1.923972,119.851524 2.118698,120.790131 
	C2.428949,121.558708 2.630609,121.784187 2.861625,121.983414 
	C3.000418,122.397675 3.139211,122.811935 2.993432,123.678970 
	C2.139240,124.421165 1.569619,124.710579 0.999999,125.000000 
	C1.000000,123.285606 1.000000,121.571205 1.202574,119.433289 
	C1.405149,119.009758 1.810411,119.008026 1.810411,119.008026 
z"/>
<path fill="#F4FDFD" opacity="1.000000" stroke="none" 
	d="
M0.999999,125.333328 
	C1.569619,124.710579 2.139240,124.421165 3.004955,124.007416 
	C3.577464,124.698029 3.853880,125.512985 4.117557,126.658859 
	C3.328463,126.992912 2.552107,126.996048 1.387876,126.999588 
	C1.000000,126.555557 1.000000,126.111107 0.999999,125.333328 
z"/>
<path fill="#F4FDFD" opacity="1.000000" stroke="none" 
	d="
M1.000000,135.375000 
	C1.185938,135.932510 1.371875,136.865036 1.278906,137.898773 
	C1.000000,137.250000 1.000000,136.500000 1.000000,135.375000 
z"/>
<path fill="#F4FDFD" opacity="1.000000" stroke="none" 
	d="
M1.885332,118.659302 
	C1.810411,119.008026 1.405149,119.009758 1.202574,119.004883 
	C1.000000,118.250000 1.000000,117.500000 1.000000,116.375000 
	C1.320084,116.770187 1.640168,117.540382 1.885332,118.659302 
z"/>
<path fill="#F4FDFD" opacity="1.000000" stroke="none" 
	d="
M17.457386,153.999207 
	C21.855484,153.285431 26.682743,152.167725 31.519409,152.125443 
	C37.996662,152.068802 44.401825,153.111984 50.678310,150.093918 
	C52.782742,149.081985 55.801823,149.985168 58.402866,149.988617 
	C60.229340,149.991028 62.055862,149.952240 64.325485,149.929291 
	C51.917973,153.904144 38.721905,154.899323 25.364689,154.466949 
	C22.871746,154.386261 20.381973,154.207611 17.457386,153.999207 
z"/>
<path fill="#F4FDFD" opacity="1.000000" stroke="none" 
	d="
M134.942657,170.439026 
	C136.491409,171.094131 138.135605,172.087753 139.790237,173.063675 
	C143.730576,175.387695 146.455353,173.189835 148.016144,169.425751 
	C149.543564,165.742081 147.667038,163.452576 147.115051,160.199066 
	C148.680496,162.062210 151.456696,164.276672 151.481644,166.521729 
	C151.512970,169.339859 150.009674,173.333176 147.837585,174.692795 
	C145.654510,176.059265 141.746918,175.213440 138.774124,174.543015 
	C137.320618,174.215225 136.273773,172.084290 134.942657,170.439026 
z"/>
<path fill="#F4FDFD" opacity="1.000000" stroke="none" 
	d="
M65.355812,149.875854 
	C66.185883,148.792816 67.229431,147.293549 68.647507,146.719528 
	C77.648933,143.075882 86.730865,139.630829 95.796753,136.147644 
	C96.240662,135.977097 96.782898,136.062439 97.666794,136.038055 
	C87.283653,140.660812 76.513062,145.274139 65.355812,149.875854 
z"/>
<path fill="#F5FDFD" opacity="1.000000" stroke="none" 
	d="
M140.848206,55.936058 
	C142.937027,58.119751 142.831833,59.687580 141.131622,62.661610 
	C138.462280,67.330841 137.427917,72.934761 135.379272,79.113716 
	C135.273697,79.108810 133.949219,79.047318 132.293549,78.619263 
	C132.144073,77.627724 132.325806,77.002747 132.507538,76.377777 
	C132.507538,76.377777 132.159042,76.369423 132.575684,76.121140 
	C135.036148,70.222504 137.079987,64.572144 139.123825,58.921787 
	C139.123825,58.921787 139.286636,58.785599 139.495148,58.480774 
	C140.085190,57.429321 140.466690,56.682690 140.848206,55.936058 
z"/>
<path fill="#F5FDFD" opacity="1.000000" stroke="none" 
	d="
M122.206680,90.525894 
	C121.499290,90.811996 120.461617,91.554329 120.133392,91.316704 
	C113.881813,86.790733 108.312828,81.661415 105.895218,73.552628 
	C105.889732,73.134674 105.967186,73.031876 106.209625,73.072342 
	C106.452057,73.112801 106.941299,73.160782 106.941299,73.160782 
	C106.941299,73.160782 106.955582,73.061356 106.970032,73.328171 
	C107.281342,73.800255 107.578194,74.005524 107.875053,74.210785 
	C107.875053,74.210785 107.877289,74.136429 107.952087,74.461319 
	C110.040314,76.830399 112.053757,78.874580 114.067200,80.918755 
	C114.067200,80.918755 114.005806,80.994453 114.128418,81.248886 
	C114.844543,81.995407 115.438049,82.487488 116.031555,82.979561 
	C116.031555,82.979561 116.002846,82.998566 116.075790,83.238876 
	C116.423546,83.675301 116.698349,83.871407 116.973152,84.067520 
	C117.028816,84.401970 117.196396,84.665169 117.781021,85.202713 
	C118.381622,85.730316 118.677094,85.912323 118.972565,86.094330 
	C118.972565,86.094330 118.976593,86.024658 119.008499,86.295120 
	C119.342659,86.756760 119.644913,86.947929 119.947166,87.139099 
	C119.947166,87.139099 119.949242,87.049522 119.978973,87.318558 
	C120.312546,87.783897 120.616379,87.980194 120.920212,88.176498 
	C120.920212,88.176498 120.916321,88.104355 120.938225,88.385895 
	C121.375648,89.286911 121.791168,89.906403 122.206680,90.525894 
z"/>
<path fill="#2EADDB" opacity="1.000000" stroke="none" 
	d="
M140.840912,55.603416 
	C140.466690,56.682690 140.085190,57.429321 139.455414,58.382366 
	C139.631042,55.477287 140.059204,52.366367 140.478027,49.254192 
	C141.761765,39.714436 143.041901,30.174198 144.623047,20.716938 
	C145.014084,23.518837 145.105530,26.237946 145.196960,28.957054 
	C145.026794,30.659847 144.856598,32.362640 144.558777,34.828182 
	C144.026459,38.731125 143.621780,41.871315 143.217102,45.011505 
	C143.057190,45.727749 142.897263,46.443989 142.551147,47.814171 
	C141.993683,50.316425 141.622421,52.164749 141.251160,54.013073 
	C141.111984,54.432304 140.972809,54.851540 140.840912,55.603416 
z"/>
<path fill="#F5FDFD" opacity="1.000000" stroke="none" 
	d="
M105.853424,73.187813 
	C102.453613,74.212372 99.090118,75.183800 94.879364,76.399918 
	C96.799706,74.429909 98.587929,72.595444 99.793472,71.358734 
	C98.543236,68.606033 97.524918,66.363945 96.897171,63.896500 
	C98.686226,64.926270 100.084702,66.181396 101.483185,67.436516 
	C101.483185,67.436516 101.564056,67.476730 101.613174,67.692215 
	C101.935303,68.109238 102.208313,68.310776 102.481331,68.512314 
	C102.481331,68.512314 102.634880,68.295563 102.648560,68.656273 
	C103.103111,69.370071 103.543999,69.723152 103.984886,70.076233 
	C104.046249,70.389641 104.204514,70.642365 104.749924,71.192909 
	C105.348434,71.737572 105.656677,71.923744 105.964928,72.109909 
	C105.964928,72.109909 105.960655,72.030067 105.931366,72.283058 
	C105.923782,72.701317 105.945480,72.866592 105.967186,73.031876 
	C105.967186,73.031876 105.889732,73.134674 105.853424,73.187813 
z"/>
<path fill="#F4FDFD" opacity="1.000000" stroke="none" 
	d="
M147.086090,159.558945 
	C143.584732,159.427139 140.460663,158.657303 139.607071,154.195374 
	C139.327881,152.735916 137.082153,151.749084 136.105377,150.297409 
	C135.260666,149.042038 134.939774,147.434189 134.666199,145.781845 
	C138.963425,150.130814 142.981766,154.680115 147.086090,159.558945 
z"/>
<path fill="#F4FDFD" opacity="1.000000" stroke="none" 
	d="
M134.257690,144.618683 
	C127.919197,146.907043 127.801285,140.505173 125.070969,137.670959 
	C123.921524,136.477768 123.711113,134.379974 123.061996,132.315521 
	C126.742661,136.055557 130.435165,140.173462 134.257690,144.618683 
z"/>
<path fill="#F5FDFD" opacity="1.000000" stroke="none" 
	d="
M167.920273,26.197113 
	C169.919128,25.899712 171.917984,25.602310 174.227356,25.258711 
	C175.171402,28.595083 175.993820,31.501608 176.529144,34.671936 
	C175.671753,34.483078 175.101456,34.030415 174.531158,33.577751 
	C174.531158,33.577751 174.439209,33.703510 174.340393,33.343647 
	C173.483734,32.323490 172.725891,31.663198 171.968048,31.002905 
	C171.968048,31.002903 171.977570,31.019262 171.911301,30.764973 
	C171.548965,30.323017 171.252914,30.135351 170.956848,29.947685 
	C170.866409,29.638203 170.686279,29.395216 170.091675,28.854372 
	C169.152512,28.015715 168.538147,27.541412 167.923767,27.067108 
	C167.923767,27.067106 167.999908,27.007732 167.964508,26.821419 
	C167.929108,26.635107 167.920273,26.197113 167.920273,26.197113 
z"/>
<path fill="#F5FDFD" opacity="1.000000" stroke="none" 
	d="
M89.013863,61.200619 
	C87.685249,65.221680 86.356644,69.242737 85.006287,73.635040 
	C84.984543,74.006287 84.580879,74.002686 84.289490,73.582123 
	C84.168587,69.915939 84.339073,66.670303 84.509560,63.424675 
	C84.509560,63.424675 84.069466,63.315331 84.552170,63.251282 
	C85.745636,62.510357 86.456390,61.833477 87.167152,61.156597 
	C87.167152,61.156597 87.097809,61.132191 87.411957,61.173889 
	C88.155350,61.210598 88.584610,61.205608 89.013863,61.200619 
z"/>
<path fill="#2EADDB" opacity="1.000000" stroke="none" 
	d="
M130.672501,108.053925 
	C130.672501,108.053925 131.009003,107.817764 131.375854,107.472565 
	C132.935013,105.878006 134.127289,104.628632 135.494522,103.538452 
	C135.669479,103.697632 136.019669,104.015717 136.019669,104.015717 
	C132.316010,111.696739 124.488205,116.401962 118.258392,111.241852 
	C118.152580,110.841087 118.441879,110.543053 118.792862,110.653893 
	C121.484215,110.953331 123.824600,111.141922 126.164978,111.330521 
	C126.995010,110.974350 127.825043,110.618179 129.046326,109.947128 
	C129.678726,109.472542 129.791443,109.248238 129.775711,108.959328 
	C129.775711,108.959328 129.953232,108.955040 130.145935,108.830544 
	C130.601776,108.566429 130.713058,108.349052 130.672501,108.053925 
z"/>
<path fill="#2EADDB" opacity="1.000000" stroke="none" 
	d="
M8.328502,65.002701 
	C10.465786,59.864033 12.927280,54.591999 15.689138,49.162247 
	C13.543906,54.292797 11.098310,59.581062 8.328502,65.002701 
z"/>
<path fill="#2EADDB" opacity="1.000000" stroke="none" 
	d="
M138.857025,59.161224 
	C137.079987,64.572144 135.036148,70.222504 132.749115,76.111237 
	C134.534027,70.699959 136.562119,65.050316 138.857025,59.161224 
z"/>
<path fill="#2EADDB" opacity="1.000000" stroke="none" 
	d="
M49.387608,16.011911 
	C54.101658,13.336295 59.198627,10.678662 64.673317,8.017072 
	C59.957535,10.685373 54.864029,13.357635 49.387608,16.011911 
z"/>
<path fill="#F4FDFD" opacity="1.000000" stroke="none" 
	d="
M108.861359,115.627213 
	C104.560562,116.938263 100.066978,117.920700 95.348137,118.634308 
	C95.862831,117.623604 96.602783,116.881714 97.342735,116.139824 
	C100.965805,113.810150 104.668816,112.556831 108.861359,115.627213 
z"/>
<path fill="#3DA7CF" opacity="1.000000" stroke="none" 
	d="
M161.171448,35.024200 
	C160.693268,40.880566 160.098419,46.675289 159.213303,52.708534 
	C158.923035,52.947056 158.641907,52.721214 158.659637,52.299911 
	C159.381882,46.241512 160.086395,40.604420 160.790924,34.967327 
	C160.790924,34.967327 161.054779,34.962555 161.171448,35.024200 
z"/>
<path fill="#F5FDFD" opacity="1.000000" stroke="none" 
	d="
M183.217651,44.102234 
	C184.580109,43.877796 185.866592,43.766762 187.535248,43.622742 
	C187.993286,46.416409 188.413788,48.981045 188.571533,51.755905 
	C187.553986,50.953804 186.799179,49.941486 186.044388,48.929169 
	C186.044388,48.929169 186.011429,48.985519 186.002991,48.661903 
	C185.347305,47.531788 184.700073,46.725288 184.052841,45.918785 
	C184.052841,45.918789 184.023270,45.979050 184.004456,45.664642 
	C183.673492,45.057659 183.361374,44.765076 183.049240,44.472492 
	C183.049240,44.472492 183.141693,44.215637 183.217651,44.102234 
z"/>
<path fill="#F4FDFD" opacity="1.000000" stroke="none" 
	d="
M108.075027,139.348785 
	C112.387375,138.760223 114.215897,140.998123 113.977158,145.635269 
	C112.036034,143.915314 110.106438,141.790833 108.075027,139.348785 
z"/>
<path fill="#2EADDB" opacity="1.000000" stroke="none" 
	d="
M143.251999,93.214874 
	C141.024933,96.687973 138.797882,100.161072 136.295242,103.824944 
	C136.019669,104.015717 135.669479,103.697632 135.634827,103.235641 
	C136.803268,100.911064 138.006348,99.048477 139.209442,97.185890 
	C139.209442,97.185890 139.153931,97.097534 139.450638,96.980980 
	C140.772476,95.521149 141.797607,94.177864 142.929932,92.929779 
	C143.037125,93.024979 143.251999,93.214874 143.251999,93.214874 
z"/>
<path fill="#F4FDFD" opacity="1.000000" stroke="none" 
	d="
M116.015053,123.589973 
	C111.077835,124.813385 110.594574,121.253494 110.062973,117.333588 
	C112.003281,119.049652 113.955223,121.161659 116.015053,123.589973 
z"/>
<path fill="#2EADDB" opacity="1.000000" stroke="none" 
	d="
M154.990982,68.998909 
	C153.239594,73.239067 151.488205,77.479225 149.386353,81.878098 
	C149.035904,82.036819 148.795441,81.832069 148.837006,81.482727 
	C149.321518,79.811386 149.764450,78.489372 150.207397,77.167358 
	C150.207382,77.167358 150.209488,77.128166 150.450531,76.904007 
	C151.807312,74.104271 152.923019,71.528687 154.276688,68.966949 
	C154.514633,68.980804 154.990982,68.998909 154.990982,68.998909 
z"/>
<path fill="#F4FDFD" opacity="1.000000" stroke="none" 
	d="
M114.993874,147.384247 
	C117.979309,148.130768 121.401062,148.858597 120.939621,153.715759 
	C118.971115,151.979797 117.021866,149.845291 114.993874,147.384247 
z"/>
<path fill="#3DA7CF" opacity="1.000000" stroke="none" 
	d="
M161.811569,31.556141 
	C161.504684,29.592215 161.438278,27.410540 161.409119,24.659563 
	C161.595810,23.778564 161.561401,23.488937 161.343140,23.221382 
	C161.643967,22.912025 161.944794,22.602667 162.700043,22.459139 
	C163.859055,23.048164 164.563644,23.471357 165.268219,23.894550 
	C165.268219,23.894548 165.315323,24.313456 165.307724,24.524082 
	C164.217422,26.935938 163.134720,29.137165 161.811569,31.556141 
z"/>
<path fill="#3DA7CF" opacity="1.000000" stroke="none" 
	d="
M159.063812,53.059715 
	C157.950287,57.929466 156.695969,62.686558 155.092575,67.616913 
	C154.743500,67.790169 154.421875,67.523239 154.493057,67.149399 
	C155.081741,64.552277 155.599243,62.328979 156.116745,60.105682 
	C156.116745,60.105682 156.123703,60.064137 156.362061,59.813141 
	C157.280914,57.281834 157.961411,55.001522 158.641907,52.721214 
	C158.641907,52.721214 158.923035,52.947056 159.063812,53.059715 
z"/>
<path fill="#2EADDB" opacity="1.000000" stroke="none" 
	d="
M91.800453,83.220169 
	C89.566376,80.700272 87.332306,78.180374 85.288483,75.329689 
	C85.478745,74.998901 85.959129,75.001503 85.959129,75.001503 
	C85.959129,75.001503 85.962296,75.039597 86.050079,75.277496 
	C86.328873,75.818634 86.602844,75.986320 86.959801,76.018463 
	C86.959801,76.018463 86.981735,76.018204 87.048347,76.276192 
	C87.395752,76.709038 87.676552,76.883904 87.957344,77.058769 
	C87.957344,77.058769 87.982246,77.015953 88.068062,77.345032 
	C89.360664,78.859474 90.567451,80.044846 91.774239,81.230209 
	C91.774239,81.230209 91.831818,81.010025 91.853836,81.379791 
	C92.006737,82.086014 92.137619,82.422470 92.151146,82.873901 
	C92.033798,82.988869 91.800453,83.220169 91.800453,83.220169 
z"/>
<path fill="#2EADDB" opacity="1.000000" stroke="none" 
	d="
M114.039551,80.563599 
	C112.053757,78.874580 110.040314,76.830399 107.916428,74.471909 
	C109.874619,76.174545 111.943260,78.191490 114.039551,80.563599 
z"/>
<path fill="#2EADDB" opacity="1.000000" stroke="none" 
	d="
M84.153931,63.484055 
	C84.339073,66.670303 84.168587,69.915939 84.090759,73.546860 
	C80.492859,70.019691 80.409073,67.759430 84.153931,63.484055 
z"/>
<path fill="#2EADDB" opacity="1.000000" stroke="none" 
	d="
M101.551437,67.069588 
	C100.084702,66.181396 98.686226,64.926270 97.025925,63.493664 
	C96.764091,63.316185 96.760925,63.184631 96.596954,62.925922 
	C96.090187,62.246181 95.747375,61.825150 95.404564,61.404121 
	C97.476273,63.170300 99.547981,64.936478 101.551437,67.069588 
z"/>
<path fill="#2EADDB" opacity="1.000000" stroke="none" 
	d="
M39.362389,22.991791 
	C41.087952,21.323252 43.180840,19.666239 45.614807,17.964382 
	C43.880497,19.614132 41.805103,21.308723 39.362389,22.991791 
z"/>
<path fill="#2EADDB" opacity="1.000000" stroke="none" 
	d="
M18.267818,45.908569 
	C19.405043,43.723804 20.890905,41.492348 22.683064,39.129684 
	C21.531723,41.286278 20.074091,43.574078 18.267818,45.908569 
z"/>
<path fill="#F4FDFD" opacity="1.000000" stroke="none" 
	d="
M129.713318,164.466522 
	C132.918777,164.306488 134.669373,166.073547 134.889618,169.769287 
	C133.203583,168.361450 131.524826,166.571472 129.713318,164.466522 
z"/>
<path fill="#2EADDB" opacity="1.000000" stroke="none" 
	d="
M144.939377,87.991211 
	C144.939377,87.991211 145.166916,87.798462 145.419189,87.442741 
	C146.371780,85.997452 147.072113,84.907890 147.889404,83.910477 
	C148.006348,84.002617 148.240524,84.186546 148.240524,84.186546 
	C147.040192,86.686569 145.839859,89.186592 144.223877,91.765335 
	C143.808243,91.844070 143.478897,91.545937 143.589630,91.242065 
	C144.113373,89.955864 144.526382,88.973541 144.939377,87.991211 
z"/>
<path fill="#F4FDFD" opacity="1.000000" stroke="none" 
	d="
M120.986145,154.391998 
	C122.579628,155.799377 124.271149,157.524033 125.984406,159.613007 
	C124.365494,158.221313 122.724838,156.465286 120.986145,154.391998 
z"/>
<path fill="#F4FDFD" opacity="1.000000" stroke="none" 
	d="
M122.044052,130.587250 
	C120.447220,129.166458 118.753044,127.427765 117.047470,125.326050 
	C118.672951,126.731781 120.309837,128.500549 122.044052,130.587250 
z"/>
<path fill="#F4FDFD" opacity="1.000000" stroke="none" 
	d="
M101.402969,134.092499 
	C104.663528,130.076752 105.196129,133.470062 106.038216,136.516052 
	C104.616806,135.948029 103.180046,135.016312 101.402969,134.092499 
z"/>
<path fill="#3DA7CF" opacity="1.000000" stroke="none" 
	d="
M186.024078,49.305313 
	C186.799179,49.941486 187.553986,50.953804 188.553497,52.175079 
	C189.128540,53.117565 189.458862,53.851097 189.954193,55.036385 
	C190.119202,55.488136 190.061310,55.950623 189.940338,56.046608 
	C189.819351,56.142593 189.575439,56.332069 189.575439,56.332069 
	C188.384888,54.115200 187.194336,51.898331 186.024078,49.305313 
z"/>
<path fill="#F5FDFD" opacity="1.000000" stroke="none" 
	d="
M95.276985,61.394569 
	C95.747375,61.825150 96.090187,62.246181 96.531357,62.920883 
	C95.123604,62.725254 93.617493,62.275951 92.427406,61.410309 
	C93.494919,61.055595 94.246391,61.117222 94.997871,61.178848 
	C94.997871,61.178848 95.149406,61.385017 95.276985,61.394569 
z"/>
<path fill="#F5FDFD" opacity="1.000000" stroke="none" 
	d="
M145.379761,28.603199 
	C145.105530,26.237946 145.014084,23.518837 144.805374,20.354897 
	C144.718399,19.496708 144.748688,19.083349 144.708054,18.365757 
	C144.730530,17.893913 144.823914,17.726303 145.036346,17.296783 
	C145.291092,20.773029 145.426834,24.511185 145.379761,28.603199 
z"/>
<path fill="#2EADDB" opacity="1.000000" stroke="none" 
	d="
M94.771591,60.904808 
	C94.246391,61.117222 93.494919,61.055595 92.367233,61.030289 
	C91.238121,61.020195 90.485222,60.973774 89.373093,61.063988 
	C88.584610,61.205608 88.155350,61.210598 87.401993,61.209270 
	C89.379555,58.565624 91.885483,58.593952 94.771591,60.904808 
z"/>
<path fill="#2EADDB" opacity="1.000000" stroke="none" 
	d="
M33.400387,28.039143 
	C34.451096,26.705395 35.871300,25.378094 37.614143,23.983772 
	C36.547817,25.293030 35.158848,26.669312 33.400387,28.039143 
z"/>
<path fill="#3DA7CF" opacity="1.000000" stroke="none" 
	d="
M191.819229,58.219940 
	C192.248215,59.595161 192.687119,60.939102 193.102524,62.640697 
	C191.971313,61.006134 190.863602,59.013920 189.665680,56.676888 
	C189.575439,56.332069 189.819351,56.142593 190.146164,56.133858 
	C190.472977,56.125126 190.907852,56.229393 190.907852,56.229393 
	C190.907852,56.229393 190.959198,56.665203 191.082367,57.099579 
	C191.431824,57.763908 191.658127,57.993862 191.884445,58.223816 
	C191.884445,58.223812 191.829147,58.188660 191.819229,58.219940 
z"/>
<path fill="#2EADDB" opacity="1.000000" stroke="none" 
	d="
M127.178619,86.965660 
	C127.178619,86.965660 126.906250,87.210518 126.647392,87.470840 
	C126.388535,87.731171 125.975655,87.978172 125.913818,87.886841 
	C125.851974,87.795517 125.736305,87.607689 125.736305,87.607689 
	C126.612091,85.839531 127.487877,84.071373 128.747345,82.201942 
	C129.131012,82.100670 129.393051,82.338577 129.326447,82.655426 
	C129.036835,83.579163 128.813828,84.186043 128.590820,84.792931 
	C128.303162,84.898735 128.103928,85.094513 127.746628,85.715515 
	C127.248077,86.304802 127.140900,86.609772 127.178619,86.965660 
z"/>
<path fill="#2EADDB" opacity="1.000000" stroke="none" 
	d="
M122.506966,90.622375 
	C121.791168,89.906403 121.375648,89.286911 120.902496,88.391235 
	C122.208939,88.005684 123.573029,87.896339 125.336708,87.697342 
	C125.736305,87.607689 125.851974,87.795517 125.788193,88.165779 
	C125.154037,89.375664 124.583664,90.215279 124.013283,91.054893 
	C123.611275,90.942879 123.209259,90.830864 122.506966,90.622375 
z"/>
<path fill="#2EADDB" opacity="1.000000" stroke="none" 
	d="
M24.266544,37.895012 
	C24.909073,36.583530 25.905615,35.231350 27.173157,33.719086 
	C26.502956,34.990768 25.561758,36.422539 24.266544,37.895012 
z"/>
<path fill="#2EADDB" opacity="1.000000" stroke="none" 
	d="
M118.007828,110.990005 
	C116.659996,109.970398 115.456909,108.801888 114.237564,107.198051 
	C114.221306,106.762733 114.523224,106.453270 114.745255,106.589752 
	C115.389908,107.016830 115.812531,107.307426 116.235153,107.598015 
	C116.235153,107.598015 116.249443,107.805954 116.457764,108.076881 
	C117.258018,109.079559 117.849945,109.811302 118.441879,110.543053 
	C118.441879,110.543053 118.152580,110.841087 118.007828,110.990005 
z"/>
<path fill="#3DA7CF" opacity="1.000000" stroke="none" 
	d="
M174.459015,33.921577 
	C175.101456,34.030415 175.671753,34.483078 176.483856,35.066479 
	C176.725662,35.197216 176.752930,35.204422 176.861816,35.491615 
	C177.380844,36.460804 177.790985,37.142796 178.085144,37.937050 
	C177.969177,38.049316 177.737915,38.274536 177.737915,38.274536 
	C176.620895,36.938156 175.503876,35.601780 174.459015,33.921577 
z"/>
<path fill="#2EADDB" opacity="1.000000" stroke="none" 
	d="
M96.960136,116.114670 
	C96.602783,116.881714 95.862831,117.623604 94.959831,118.637207 
	C94.630836,118.962212 94.464897,119.015488 93.948639,119.198410 
	C93.598328,119.328064 93.262375,119.262566 93.142426,119.139938 
	C93.022469,119.017319 92.783585,118.771080 92.783585,118.771080 
	C94.048241,117.877228 95.312889,116.983376 96.960136,116.114670 
z"/>
<path fill="#2EADDB" opacity="1.000000" stroke="none" 
	d="
M104.811340,97.206825 
	C103.907379,96.369774 103.003418,95.532715 102.137848,94.253159 
	C102.176231,93.810654 102.456673,93.528633 102.714493,93.700089 
	C103.741768,94.829216 104.511223,95.786896 105.163025,96.859802 
	C105.045364,96.975037 104.811340,97.206825 104.811340,97.206825 
z"/>
<path fill="#2EADDB" opacity="1.000000" stroke="none" 
	d="
M89.942642,121.242844 
	C90.295929,121.266426 90.187721,121.739334 89.840034,121.979713 
	C89.261032,122.454285 89.029716,122.688477 88.798401,122.922668 
	C88.798401,122.922668 88.326836,123.007652 87.919739,123.165710 
	C87.215569,123.442543 87.040291,123.659653 86.986816,123.975105 
	C86.986816,123.975105 86.992371,123.995537 86.689087,124.013107 
	C86.002563,124.112839 85.619316,124.195000 85.236069,124.277145 
	C85.236069,124.277145 85.030724,124.033508 84.927223,123.910248 
	C86.412262,122.931084 88.000801,122.075172 89.942642,121.242844 
z"/>
<path fill="#2EADDB" opacity="1.000000" stroke="none" 
	d="
M132.158417,76.448181 
	C132.325806,77.002747 132.144073,77.627724 131.933365,78.576973 
	C131.904388,78.901245 131.934448,78.922661 131.683777,79.074753 
	C130.990906,79.848328 130.548676,80.469803 130.019791,81.018005 
	C129.933136,80.944740 129.759567,80.798500 129.759567,80.798500 
	C130.442810,79.371864 131.126053,77.945221 132.158417,76.448181 
z"/>
<path fill="#2EADDB" opacity="1.000000" stroke="none" 
	d="
M112.649719,105.293800 
	C111.729836,104.486511 110.809944,103.679222 109.913109,102.463287 
	C109.936157,102.054642 110.145576,101.865143 110.416519,102.012077 
	C111.469254,103.096016 112.251045,104.033020 112.937439,105.051422 
	C112.842041,105.132820 112.649719,105.293800 112.649719,105.293800 
z"/>
<path fill="#2EADDB" opacity="1.000000" stroke="none" 
	d="
M100.652832,92.283920 
	C99.731522,91.481323 98.810219,90.678726 97.899078,89.478340 
	C97.909241,89.080551 98.094101,88.911812 98.372818,89.045425 
	C99.430550,90.122704 100.209572,91.066383 100.905205,92.079208 
	C100.821823,92.148354 100.652832,92.283920 100.652832,92.283920 
z"/>
<path fill="#2EADDB" opacity="1.000000" stroke="none" 
	d="
M96.753891,88.275017 
	C95.812363,87.467957 94.870834,86.660896 93.962738,85.425323 
	C93.996162,84.996811 94.232933,84.777275 94.503944,84.923630 
	C95.550644,86.013458 96.326324,86.956940 97.014923,87.994011 
	C96.927834,88.087608 96.753891,88.275017 96.753891,88.275017 
z"/>
<path fill="#F4FDFD" opacity="1.000000" stroke="none" 
	d="
M98.355133,136.016693 
	C98.831337,135.400223 99.621445,134.743912 100.752304,134.079834 
	C100.285049,134.707001 99.477043,135.341934 98.355133,136.016693 
z"/>
<path fill="#2EADDB" opacity="1.000000" stroke="none" 
	d="
M16.325140,48.900578 
	C16.461113,48.062283 16.920647,47.136665 17.661514,46.069016 
	C17.511463,46.889076 17.080082,47.851166 16.325140,48.900578 
z"/>
<path fill="#2EADDB" opacity="1.000000" stroke="none" 
	d="
M86.810074,61.137894 
	C86.456390,61.833477 85.745636,62.510357 84.768585,63.319893 
	C85.152527,62.674767 85.802757,61.896980 86.810074,61.137894 
z"/>
<path fill="#2EADDB" opacity="1.000000" stroke="none" 
	d="
M46.267883,17.957293 
	C46.739964,17.322449 47.552799,16.701319 48.678963,16.041485 
	C48.197735,16.658857 47.403187,17.314932 46.267883,17.957293 
z"/>
<path fill="#3DA7CF" opacity="1.000000" stroke="none" 
	d="
M184.040314,46.261665 
	C184.700073,46.725288 185.347305,47.531788 186.034851,48.654884 
	C185.392715,48.182499 184.710251,47.393520 184.040314,46.261665 
z"/>
<path fill="#3DA7CF" opacity="1.000000" stroke="none" 
	d="
M172.016205,31.330753 
	C172.725891,31.663198 173.483734,32.323490 174.361221,33.268585 
	C173.675354,32.921791 172.869843,32.290195 172.016205,31.330753 
z"/>
<path fill="#3DA7CF" opacity="1.000000" stroke="none" 
	d="
M180.817780,42.205315 
	C180.180313,41.421638 179.542847,40.637966 178.900070,39.475246 
	C178.894760,39.096203 179.099380,38.909878 179.360062,39.065300 
	C180.163162,40.062309 180.705582,40.903889 181.140167,41.860176 
	C181.032333,41.974884 180.817764,42.205318 180.817780,42.205315 
z"/>
<path fill="#2EADDB" opacity="1.000000" stroke="none" 
	d="
M27.811760,33.490959 
	C28.128975,32.744030 28.779915,31.978910 29.721069,31.122425 
	C29.389349,31.844961 28.767416,32.658863 27.811760,33.490959 
z"/>
<path fill="#2EADDB" opacity="1.000000" stroke="none" 
	d="
M91.950539,120.953156 
	C91.564995,121.057755 91.179459,121.162354 90.494308,121.297699 
	C90.866478,120.563438 91.538277,119.798447 92.496826,118.902267 
	C92.783585,118.771080 93.022469,119.017319 93.114670,119.332970 
	C93.206863,119.648621 93.179153,120.037704 93.179153,120.037704 
	C93.179153,120.037704 93.040169,120.013153 92.792480,120.124954 
	C92.227638,120.376778 92.029556,120.615585 91.950539,120.953156 
z"/>
<path fill="#3DA7CF" opacity="1.000000" stroke="none" 
	d="
M167.996170,27.368902 
	C168.538147,27.541412 169.152512,28.015715 169.878204,28.766918 
	C169.349197,28.586109 168.708893,28.128401 167.996170,27.368902 
z"/>
<path fill="#2EADDB" opacity="1.000000" stroke="none" 
	d="
M115.970688,82.678116 
	C115.438049,82.487488 114.844543,81.995407 114.166389,81.218338 
	C114.691093,81.414452 115.300453,81.895561 115.970688,82.678116 
z"/>
<path fill="#2EADDB" opacity="1.000000" stroke="none" 
	d="
M31.845596,29.516485 
	C31.869061,29.120981 32.181023,28.664768 32.761948,28.120388 
	C32.731972,28.506741 32.433033,28.981260 31.845596,29.516485 
z"/>
<path fill="#2EADDB" opacity="1.000000" stroke="none" 
	d="
M30.320526,30.957312 
	C30.363548,30.576763 30.695822,30.143164 31.301821,29.630203 
	C31.253624,30.001982 30.931700,30.453121 30.320526,30.957312 
z"/>
<path fill="#2EADDB" opacity="1.000000" stroke="none" 
	d="
M103.916954,69.778152 
	C103.543999,69.723152 103.103111,69.370071 102.551033,68.746429 
	C102.909561,68.810616 103.379295,69.145340 103.916954,69.778152 
z"/>
<path fill="#2EADDB" opacity="1.000000" stroke="none" 
	d="
M114.069679,106.916824 
	C113.581184,106.639557 113.244324,106.208199 112.778587,105.535324 
	C112.649719,105.293800 112.842041,105.132820 113.179840,105.169357 
	C113.852837,105.621689 114.188034,106.037476 114.523224,106.453270 
	C114.523224,106.453270 114.221306,106.762733 114.069679,106.916824 
z"/>
<path fill="#3DA7CF" opacity="1.000000" stroke="none" 
	d="
M193.027527,63.239807 
	C193.368973,63.435329 193.687393,63.943260 193.998260,64.763245 
	C193.661957,64.567596 193.333237,64.059914 193.027527,63.239807 
z"/>
<path fill="#2EADDB" opacity="1.000000" stroke="none" 
	d="
M149.156616,82.138626 
	C149.035172,82.735886 148.792999,83.231346 148.395676,83.956680 
	C148.240524,84.186546 148.006348,84.002617 147.923676,83.622589 
	C148.159164,82.772400 148.477295,82.302231 148.795441,81.832069 
	C148.795441,81.832069 149.035904,82.036819 149.156616,82.138626 
z"/>
<path fill="#3DA7CF" opacity="1.000000" stroke="none" 
	d="
M167.654755,26.103298 
	C167.920273,26.197113 167.929108,26.635107 167.927231,26.854202 
	C167.451096,26.772522 166.976822,26.471748 166.425140,25.888134 
	C166.694901,25.740023 167.042068,25.874752 167.654755,26.103298 
z"/>
<path fill="#2EADDB" opacity="1.000000" stroke="none" 
	d="
M102.035233,93.950882 
	C101.562195,93.652893 101.230164,93.214684 100.775482,92.530197 
	C100.652832,92.283920 100.821823,92.148354 101.141205,92.210732 
	C101.792610,92.691620 102.124641,93.110130 102.456673,93.528633 
	C102.456673,93.528633 102.176231,93.810654 102.035233,93.950882 
z"/>
<path fill="#2EADDB" opacity="1.000000" stroke="none" 
	d="
M102.428467,68.247826 
	C102.208313,68.310776 101.935303,68.109238 101.583679,67.659386 
	C101.795242,67.601830 102.085419,67.792580 102.428467,68.247826 
z"/>
<path fill="#F4FDFD" opacity="1.000000" stroke="none" 
	d="
M107.085823,138.256317 
	C107.302834,138.175049 107.531418,138.386398 107.849518,138.834610 
	C107.694603,138.858246 107.414055,138.684082 107.085823,138.256317 
z"/>
<path fill="#3DA7CF" opacity="1.000000" stroke="none" 
	d="
M165.322968,24.913649 
	C165.518585,24.827253 165.830811,24.976444 166.247284,25.369267 
	C166.047562,25.458342 165.743576,25.303787 165.322968,24.913649 
z"/>
<path fill="#2EADDB" opacity="1.000000" stroke="none" 
	d="
M93.877602,85.106400 
	C93.522926,85.007378 93.294983,84.790207 93.041183,84.273514 
	C93.007156,83.982559 93.244682,83.759796 93.472763,83.859085 
	C93.984863,84.162041 94.162231,84.435005 94.232933,84.777275 
	C94.232933,84.777275 93.996162,84.996811 93.877602,85.106400 
z"/>
<path fill="#F5FDFD" opacity="1.000000" stroke="none" 
	d="
M182.080139,41.974567 
	C182.285797,42.242416 182.491455,42.510262 182.790024,43.013309 
	C182.882935,43.248512 182.483704,43.179180 182.283432,42.845009 
	C182.082153,42.332081 182.081146,42.153324 182.080139,41.974567 
z"/>
<path fill="#3DA7CF" opacity="1.000000" stroke="none" 
	d="
M194.664429,67.042107 
	C194.858887,67.083122 194.960052,67.301949 195.068207,67.886169 
	C194.907181,67.907669 194.739151,67.563789 194.664429,67.042107 
z"/>
<path fill="#2EADDB" opacity="1.000000" stroke="none" 
	d="
M118.858551,85.863045 
	C118.677094,85.912323 118.381622,85.730316 118.001999,85.294411 
	C118.193398,85.237595 118.468964,85.434677 118.858551,85.863045 
z"/>
<path fill="#F4FDFD" opacity="1.000000" stroke="none" 
	d="
M123.007416,131.699158 
	C122.820351,131.740036 122.568375,131.511032 122.181427,131.062836 
	C122.345131,131.038849 122.643814,131.234055 123.007416,131.699158 
z"/>
<path fill="#F4FDFD" opacity="1.000000" stroke="none" 
	d="
M106.174698,137.204514 
	C106.376259,137.136536 106.587212,137.341293 106.882103,137.767365 
	C106.642899,137.930099 106.382248,137.759613 106.174698,137.204514 
z"/>
<path fill="#2EADDB" opacity="1.000000" stroke="none" 
	d="
M119.837952,86.899704 
	C119.644913,86.947929 119.342659,86.756760 118.973602,86.295517 
	C119.180786,86.237068 119.454765,86.448692 119.837952,86.899704 
z"/>
<path fill="#2EADDB" opacity="1.000000" stroke="none" 
	d="
M38.149803,23.864735 
	C38.096664,23.667423 38.275658,23.375996 38.719193,23.037312 
	C38.783138,23.250242 38.582539,23.510431 38.149803,23.864735 
z"/>
<path fill="#F4FDFD" opacity="1.000000" stroke="none" 
	d="
M114.021469,146.282806 
	C114.242172,146.196594 114.490852,146.415344 114.834137,146.890778 
	C114.676552,146.914383 114.383446,146.727814 114.021469,146.282806 
z"/>
<path fill="#2EADDB" opacity="1.000000" stroke="none" 
	d="
M116.883240,83.832581 
	C116.698349,83.871407 116.423546,83.675301 116.086685,83.225967 
	C116.280853,83.181046 116.537086,83.389336 116.883240,83.832581 
z"/>
<path fill="#2EADDB" opacity="1.000000" stroke="none" 
	d="
M92.888046,84.093567 
	C92.551369,83.988121 92.335754,83.769753 91.961258,83.384811 
	C91.800453,83.220169 92.033798,82.988869 92.378494,82.968552 
	C93.008896,83.146873 93.182724,83.417389 93.244682,83.759796 
	C93.244682,83.759796 93.007156,83.982559 92.888046,84.093567 
z"/>
<path fill="#F4FDFD" opacity="1.000000" stroke="none" 
	d="
M126.074448,160.253479 
	C126.293297,160.175293 126.525223,160.391891 126.845741,160.851685 
	C126.689697,160.872360 126.407433,160.690140 126.074448,160.253479 
z"/>
<path fill="#3DA7CF" opacity="1.000000" stroke="none" 
	d="
M183.136932,44.779167 
	C183.361374,44.765076 183.673492,45.057659 184.036911,45.673161 
	C183.800339,45.692665 183.512482,45.389252 183.136932,44.779167 
z"/>
<path fill="#F4FDFD" opacity="1.000000" stroke="none" 
	d="
M127.008987,161.297852 
	C127.196449,161.258926 127.443687,161.489716 127.822922,161.939667 
	C127.659531,161.961731 127.364143,161.764664 127.008987,161.297852 
z"/>
<path fill="#F4FDFD" opacity="1.000000" stroke="none" 
	d="
M127.919525,162.320572 
	C128.108719,162.305069 128.375229,162.582230 128.771027,163.118439 
	C128.599167,163.122742 128.298004,162.867996 127.919525,162.320572 
z"/>
<path fill="#2EADDB" opacity="1.000000" stroke="none" 
	d="
M129.000839,81.980774 
	C129.053116,81.612495 129.246201,81.372665 129.604736,80.969955 
	C129.759567,80.798500 129.933136,80.944740 129.983292,81.267372 
	C129.819977,81.839523 129.606506,82.089050 129.393051,82.338577 
	C129.393051,82.338577 129.131012,82.100670 129.000839,81.980774 
z"/>
<path fill="#3DA7CF" opacity="1.000000" stroke="none" 
	d="
M171.051147,30.194626 
	C171.252914,30.135351 171.548965,30.323017 171.919449,30.769781 
	C171.711060,30.833107 171.428253,30.637337 171.051147,30.194626 
z"/>
<path fill="#2EADDB" opacity="1.000000" stroke="none" 
	d="
M107.780899,100.241539 
	C107.526703,100.041496 107.291214,99.821434 107.041199,99.280815 
	C107.007950,98.980286 107.244560,98.755318 107.476288,98.850327 
	C107.884140,99.220596 108.060272,99.495857 108.122360,99.888565 
	C108.008324,100.006012 107.780899,100.241539 107.780899,100.241539 
z"/>
<path fill="#2EADDB" opacity="1.000000" stroke="none" 
	d="
M108.767654,101.261086 
	C108.522202,101.060715 108.297050,100.839661 107.936554,100.419731 
	C107.780899,100.241539 108.008324,100.006012 108.345032,99.998611 
	C108.947433,100.214745 109.108406,100.497833 109.065262,100.945496 
	C108.965874,101.050514 108.767654,101.261086 108.767654,101.261086 
z"/>
<path fill="#2EADDB" opacity="1.000000" stroke="none" 
	d="
M109.831375,102.149307 
	C109.508331,102.030579 109.294075,101.813225 108.925743,101.426506 
	C108.767654,101.261086 108.965874,101.050514 109.296608,101.041977 
	C109.800087,101.310669 109.972832,101.587906 110.145576,101.865143 
	C110.145576,101.865143 109.936157,102.054642 109.831375,102.149307 
z"/>
<path fill="#3DA7CF" opacity="1.000000" stroke="none" 
	d="
M178.792328,39.189247 
	C178.467728,39.068531 178.252777,38.847733 177.891479,38.447212 
	C177.737915,38.274536 177.969177,38.049316 178.300720,38.055389 
	C178.888458,38.288948 179.044159,38.571751 179.099380,38.909878 
	C179.099380,38.909878 178.894760,39.096203 178.792328,39.189247 
z"/>
<path fill="#2EADDB" opacity="1.000000" stroke="none" 
	d="
M23.219181,38.875469 
	C23.144964,38.680721 23.293844,38.370743 23.699802,37.988708 
	C23.785345,38.197849 23.613811,38.479042 23.219181,38.875469 
z"/>
<path fill="#2EADDB" opacity="1.000000" stroke="none" 
	d="
M105.808426,98.217712 
	C105.567146,98.012978 105.341606,97.792168 104.971581,97.381042 
	C104.811340,97.206825 105.045364,96.975037 105.391068,96.954117 
	C106.020493,97.135231 106.192703,97.407722 106.141907,97.867203 
	C106.030403,97.983719 105.808426,98.217712 105.808426,98.217712 
z"/>
<path fill="#2EADDB" opacity="1.000000" stroke="none" 
	d="
M143.972015,91.994125 
	C143.943619,92.385468 143.747833,92.623787 143.400208,93.037003 
	C143.251999,93.214874 143.037125,93.024979 142.965027,92.681686 
	C143.088257,92.074249 143.283585,91.810097 143.478897,91.545944 
	C143.478897,91.545937 143.808243,91.844070 143.972015,91.994125 
z"/>
<path fill="#F5FDFD" opacity="1.000000" stroke="none" 
	d="
M85.829765,74.808044 
	C85.959129,75.001503 85.478745,74.998901 85.238876,74.984138 
	C84.999016,74.969376 84.953682,74.493050 84.972664,74.254700 
	C85.265152,74.171638 85.501404,74.371040 85.829765,74.808044 
z"/>
<path fill="#2EADDB" opacity="1.000000" stroke="none" 
	d="
M107.772575,73.964424 
	C107.578194,74.005524 107.281342,73.800255 106.920181,73.322083 
	C107.127281,73.272141 107.398689,73.495102 107.772575,73.964424 
z"/>
<path fill="#3DA7CF" opacity="1.000000" stroke="none" 
	d="
M182.048492,41.972160 
	C182.081146,42.153324 182.082153,42.332081 182.091629,42.779747 
	C181.793289,42.892338 181.486496,42.736015 180.998718,42.392509 
	C180.817764,42.205318 181.032333,41.974884 181.337860,41.903938 
	C181.643387,41.832996 182.040756,41.910984 182.040756,41.910984 
	C182.040756,41.910984 182.016861,41.969749 182.048492,41.972160 
z"/>
<path fill="#F4FDFD" opacity="1.000000" stroke="none" 
	d="
M110.003761,116.706055 
	C109.781631,116.803864 109.527939,116.595055 109.169525,116.138161 
	C109.329674,116.105530 109.632141,116.275314 110.003761,116.706055 
z"/>
<path fill="#3DA7CF" opacity="1.000000" stroke="none" 
	d="
M155.013687,68.764557 
	C154.990982,68.998909 154.514633,68.980804 154.260498,68.712494 
	C154.144882,68.137207 154.283371,67.830223 154.421875,67.523239 
	C154.421875,67.523239 154.743500,67.790169 154.905090,67.925217 
	C155.066681,68.060272 155.036392,68.530197 155.013687,68.764557 
z"/>
<path fill="#2EADDB" opacity="1.000000" stroke="none" 
	d="
M106.209625,73.072342 
	C105.945480,72.866592 105.923782,72.701317 105.891495,72.285904 
	C106.160965,72.248077 106.441017,72.460403 106.831192,72.916763 
	C106.941299,73.160782 106.452057,73.112801 106.209625,73.072342 
z"/>
<path fill="#2EADDB" opacity="1.000000" stroke="none" 
	d="
M97.816833,89.164932 
	C97.493423,89.048393 97.273010,88.836456 96.908539,88.444267 
	C96.753891,88.275017 96.927834,88.087608 97.244667,88.090477 
	C97.850594,88.293579 98.028122,88.566399 98.094101,88.911812 
	C98.094101,88.911812 97.909241,89.080551 97.816833,89.164932 
z"/>
<path fill="#2EADDB" opacity="1.000000" stroke="none" 
	d="
M120.812653,87.930679 
	C120.616379,87.980194 120.312546,87.783897 119.934174,87.318542 
	C120.141457,87.261292 120.423271,87.473083 120.812653,87.930679 
z"/>
<path fill="#2EADDB" opacity="1.000000" stroke="none" 
	d="
M105.844749,71.872925 
	C105.656677,71.923744 105.348434,71.737572 104.958115,71.285172 
	C105.158890,71.224602 105.441727,71.430267 105.844749,71.872925 
z"/>
<path fill="#F4FDFD" opacity="1.000000" stroke="none" 
	d="
M116.977638,124.709335 
	C116.798103,124.744141 116.552719,124.515457 116.175766,124.069962 
	C116.333397,124.050705 116.622597,124.248276 116.977638,124.709335 
z"/>
<path fill="#2EADDB" opacity="1.000000" stroke="none" 
	d="
M106.889236,99.092331 
	C106.553093,98.988602 106.338692,98.769852 105.967865,98.382927 
	C105.808426,98.217712 106.030403,97.983719 106.370842,97.962830 
	C106.999008,98.140961 107.176765,98.412086 107.244560,98.755318 
	C107.244560,98.755318 107.007950,98.980286 106.889236,99.092331 
z"/>
<path fill="#F4FDFD" opacity="1.000000" stroke="none" 
	d="
M17.223635,137.568161 
	C26.393051,137.210739 35.750469,137.162079 45.531414,137.168411 
	C37.733208,141.921982 28.781830,139.511978 20.117828,139.766983 
	C19.235067,139.792953 18.314604,138.537659 17.223635,137.568161 
z"/>
<path fill="#F4FDFD" opacity="1.000000" stroke="none" 
	d="
M6.973469,136.086792 
	C8.956757,136.057953 10.697116,136.260284 12.742918,136.677063 
	C11.662948,137.797607 10.354321,138.877655 8.860113,139.537323 
	C8.099246,139.873230 7.004786,139.453491 6.061119,139.375320 
	C6.284259,138.356201 6.507400,137.337082 6.973469,136.086792 
z"/>
<path fill="#F4FDFD" opacity="1.000000" stroke="none" 
	d="
M66.241257,133.127426 
	C68.652725,131.863281 71.344284,130.811707 74.403091,129.720459 
	C72.020668,130.900528 69.271004,132.120255 66.241257,133.127426 
z"/>
<path fill="#F4FDFD" opacity="1.000000" stroke="none" 
	d="
M49.273933,137.165939 
	C51.402378,136.361710 53.823517,135.769562 56.626350,135.205688 
	C54.527573,135.948654 52.047096,136.663330 49.273933,137.165939 
z"/>
<path fill="#F4FDFD" opacity="1.000000" stroke="none" 
	d="
M75.185074,129.816345 
	C76.624886,128.876236 78.468277,127.995110 80.658844,127.096489 
	C79.200241,128.011108 77.394447,128.943237 75.185074,129.816345 
z"/>
<path fill="#F4FDFD" opacity="1.000000" stroke="none" 
	d="
M8.804663,143.546234 
	C9.740861,143.682297 10.438639,143.804031 11.136417,143.925766 
	C11.053662,144.274414 10.970907,144.623062 10.888152,144.971695 
	C9.893875,144.674545 8.899598,144.377396 7.905323,144.080246 
	C7.977017,143.944839 8.019376,143.773804 8.128551,143.683914 
	C8.240358,143.591843 8.417626,143.579285 8.804663,143.546234 
z"/>
<path fill="#F4FDFD" opacity="1.000000" stroke="none" 
	d="
M59.206619,135.091873 
	C60.015488,134.506409 61.084763,134.131393 62.500622,133.758026 
	C61.720482,134.273895 60.593754,134.788116 59.206619,135.091873 
z"/>
<path fill="#F4FDFD" opacity="1.000000" stroke="none" 
	d="
M101.837875,119.984985 
	C102.230217,119.729546 102.615791,119.674400 103.001373,119.619247 
	C102.993401,119.880775 102.985428,120.142311 102.977455,120.403839 
	C102.595337,120.330978 102.213226,120.258125 101.837875,119.984985 
z"/>
<path fill="#F4FDFD" opacity="1.000000" stroke="none" 
	d="
M85.069077,124.507416 
	C85.619316,124.195000 86.002563,124.112839 86.679260,124.007607 
	C86.103378,124.616806 85.234032,125.249077 84.004959,125.870636 
	C84.064178,125.485832 84.483131,125.111755 85.069077,124.507416 
z"/>
<path fill="#F4FDFD" opacity="1.000000" stroke="none" 
	d="
M12.799936,147.739777 
	C13.010414,147.837524 13.123025,148.024704 13.235634,148.211884 
	C13.057777,148.084320 12.879924,147.956772 12.799936,147.739777 
z"/>
<path fill="#F4FDFD" opacity="1.000000" stroke="none" 
	d="
M5.101271,131.116547 
	C5.357355,131.338272 5.641067,131.853516 5.909186,132.672653 
	C5.638695,132.454391 5.383797,131.932236 5.101271,131.116547 
z"/>
<path fill="#F4FDFD" opacity="1.000000" stroke="none" 
	d="
M62.999435,133.819702 
	C62.878716,133.519379 63.104050,133.319351 63.702919,133.296356 
	C63.725010,133.515549 63.481358,133.664413 62.999435,133.819702 
z"/>
<path fill="#F4FDFD" opacity="1.000000" stroke="none" 
	d="
M4.163354,127.647522 
	C4.310008,127.696930 4.522395,128.024078 4.719151,128.653381 
	C4.545376,128.612122 4.387231,128.268692 4.163354,127.647522 
z"/>
<path fill="#F4FDFD" opacity="1.000000" stroke="none" 
	d="
M93.321556,119.960464 
	C93.179153,120.037704 93.206863,119.648621 93.234619,119.455597 
	C93.262375,119.262566 93.598328,119.328064 93.760971,119.380417 
	C93.800133,119.613258 93.646912,119.763405 93.321556,119.960464 
z"/>
<path fill="#F4FDFD" opacity="1.000000" stroke="none" 
	d="
M92.149651,120.850052 
	C92.029556,120.615585 92.227638,120.376778 92.780685,120.194527 
	C92.825668,120.386108 92.603058,120.584320 92.149651,120.850052 
z"/>
<path fill="#F4FDFD" opacity="1.000000" stroke="none" 
	d="
M89.018661,122.834854 
	C89.029716,122.688477 89.261032,122.454285 89.744797,122.202805 
	C89.775909,122.415161 89.523140,122.602333 89.018661,122.834854 
z"/>
<path fill="#F4FDFD" opacity="1.000000" stroke="none" 
	d="
M87.165375,123.890594 
	C87.040291,123.659653 87.215569,123.442543 87.729599,123.311470 
	C87.773750,123.501526 87.572884,123.670502 87.165375,123.890594 
z"/>
<path fill="#F4FDFD" opacity="1.000000" stroke="none" 
	d="
M81.738663,126.831085 
	C81.770515,126.676491 82.069229,126.434341 82.662384,126.178596 
	C82.639732,126.357849 82.322624,126.550690 81.738663,126.831085 
z"/>
<path fill="#F5FDFD" opacity="1.000000" stroke="none" 
	d="
M107.476288,98.850327 
	C107.176765,98.412086 106.999008,98.140961 106.482346,97.846313 
	C106.192703,97.407722 106.020493,97.135231 105.508720,96.838882 
	C104.511223,95.786896 103.741768,94.829216 102.714493,93.700089 
	C102.124641,93.110130 101.792610,92.691620 101.224579,92.141586 
	C100.209572,91.066383 99.430550,90.122704 98.372818,89.045425 
	C98.028122,88.566399 97.850594,88.293579 97.331757,87.996880 
	C96.326324,86.956940 95.550644,86.013458 94.503944,84.923630 
	C94.162231,84.435005 93.984863,84.162041 93.472763,83.859085 
	C93.182724,83.417389 93.008896,83.146873 92.495842,82.853584 
	C92.137619,82.422470 92.006737,82.086014 91.811996,81.486107 
	C95.189461,80.803604 98.382812,80.553162 99.591354,85.108734 
	C99.782936,85.830849 102.522079,85.877121 104.584282,86.350952 
	C106.325188,89.440651 110.924774,91.846802 109.616913,97.292328 
	C109.424461,98.093613 111.544083,99.337036 112.383751,100.524529 
	C113.830421,102.570488 115.111862,104.733284 116.348900,107.222534 
	C115.812531,107.307426 115.389908,107.016830 114.745255,106.589752 
	C114.188034,106.037476 113.852837,105.621689 113.275238,105.087952 
	C112.251045,104.033020 111.469254,103.096016 110.416519,102.012077 
	C109.972832,101.587906 109.800087,101.310669 109.395996,100.936951 
	C109.108406,100.497833 108.947433,100.214745 108.459061,99.881165 
	C108.060272,99.495857 107.884140,99.220596 107.476288,98.850327 
z"/>
<path fill="#F5FDFD" opacity="1.000000" stroke="none" 
	d="
M158.659637,52.299911 
	C157.961411,55.001522 157.280914,57.281834 156.341553,59.808327 
	C153.565460,51.800884 159.277374,44.456524 158.751129,36.406422 
	C158.725952,36.021297 159.675537,35.572453 160.481049,35.060303 
	C160.086395,40.604420 159.381882,46.241512 158.659637,52.299911 
z"/>
<path fill="#F5FDFD" opacity="1.000000" stroke="none" 
	d="
M154.493057,67.149399 
	C154.283371,67.830223 154.144882,68.137207 154.022552,68.698647 
	C152.923019,71.528687 151.807312,74.104271 150.432617,76.911835 
	C148.394226,70.408875 150.962830,65.037354 155.790497,60.188789 
	C155.599243,62.328979 155.081741,64.552277 154.493057,67.149399 
z"/>
<path fill="#F5FDFD" opacity="1.000000" stroke="none" 
	d="
M118.792862,110.653893 
	C117.849945,109.811302 117.258018,109.079559 116.560562,108.094009 
	C117.234070,107.034729 117.978699,106.191803 118.802330,105.434837 
	C119.549271,104.748360 120.382286,104.155540 121.177353,103.521439 
	C121.573921,104.460190 121.851021,105.475510 122.392967,106.321075 
	C123.388832,107.874863 124.540634,109.328705 125.896202,111.077362 
	C123.824600,111.141922 121.484215,110.953331 118.792862,110.653893 
z"/>
<path fill="#F5FDFD" opacity="1.000000" stroke="none" 
	d="
M138.843292,97.204422 
	C138.006348,99.048477 136.803268,100.911064 135.459869,103.076462 
	C134.127289,104.628632 132.935013,105.878006 131.449722,107.280746 
	C131.643829,102.630257 133.547424,98.841888 138.843292,97.204422 
z"/>
<path fill="#F5FDFD" opacity="1.000000" stroke="none" 
	d="
M143.589630,91.242065 
	C143.283585,91.810097 143.088257,92.074249 142.857819,92.586487 
	C141.797607,94.177864 140.772476,95.521149 139.471344,97.020653 
	C139.273743,93.259857 139.213043,89.266441 144.573364,88.019867 
	C144.526382,88.973541 144.113373,89.955864 143.589630,91.242065 
z"/>
<path fill="#F5FDFD" opacity="1.000000" stroke="none" 
	d="
M148.837006,81.482727 
	C148.477295,82.302231 148.159164,82.772400 147.806732,83.530441 
	C147.072113,84.907890 146.371780,85.997452 145.412262,87.293793 
	C146.595734,84.082321 148.038406,80.664070 149.844238,77.206589 
	C149.764450,78.489372 149.321518,79.811386 148.837006,81.482727 
z"/>
<path fill="#F5FDFD" opacity="1.000000" stroke="none" 
	d="
M143.527924,44.853271 
	C143.621780,41.871315 144.026459,38.731125 144.620285,35.252205 
	C146.839890,38.407600 146.278000,41.644470 143.527924,44.853271 
z"/>
<path fill="#F5FDFD" opacity="1.000000" stroke="none" 
	d="
M182.036438,41.499542 
	C182.040756,41.910984 181.643387,41.832996 181.445694,41.789234 
	C180.705582,40.903889 180.163162,40.062309 179.360062,39.065300 
	C179.044159,38.571751 178.888458,38.288948 178.416702,37.943127 
	C177.790985,37.142796 177.380844,36.460804 176.874359,35.495361 
	C181.617401,34.409557 182.167465,37.442394 182.036438,41.499542 
z"/>
<path fill="#F5FDFD" opacity="1.000000" stroke="none" 
	d="
M129.326447,82.655426 
	C129.606506,82.089050 129.819977,81.839523 130.069946,81.340637 
	C130.548676,80.469803 130.990906,79.848328 131.675766,79.068588 
	C132.080048,80.170464 132.166138,81.445930 132.418228,82.687698 
	C133.038635,85.743477 131.653091,86.057487 128.923676,84.943542 
	C128.813828,84.186043 129.036835,83.579163 129.326447,82.655426 
z"/>
<path fill="#F5FDFD" opacity="1.000000" stroke="none" 
	d="
M141.576920,53.905251 
	C141.622421,52.164749 141.993683,50.316425 142.570251,48.181496 
	C144.439072,50.151432 144.562378,52.180206 141.576920,53.905251 
z"/>
<path fill="#F5FDFD" opacity="1.000000" stroke="none" 
	d="
M124.121841,91.325165 
	C124.583664,90.215279 125.154037,89.375664 125.850037,88.257111 
	C125.975655,87.978172 126.388535,87.731171 126.615479,87.651169 
	C126.533684,89.277321 128.193924,92.261482 124.121841,91.325165 
z"/>
<path fill="#F5FDFD" opacity="1.000000" stroke="none" 
	d="
M91.816719,80.835266 
	C90.567451,80.044846 89.360664,78.859474 88.052216,77.369858 
	C90.355499,76.914085 92.084427,77.545547 91.816719,80.835266 
z"/>
<path fill="#F5FDFD" opacity="1.000000" stroke="none" 
	d="
M145.182846,13.048326 
	C144.750122,12.598086 144.621796,12.198419 144.507538,11.478302 
	C145.783112,11.525088 147.044617,11.892323 148.306137,12.259557 
	C148.229263,12.611221 148.152390,12.962887 148.075516,13.314551 
	C147.212753,13.242666 146.350006,13.170781 145.182846,13.048326 
z"/>
<path fill="#F5FDFD" opacity="1.000000" stroke="none" 
	d="
M122.359428,96.985214 
	C122.348175,97.470169 122.189125,97.815910 122.030083,98.161652 
	C121.828522,97.984779 121.626961,97.807899 121.425400,97.631012 
	C121.687477,97.369339 121.949554,97.107666 122.359428,96.985214 
z"/>
<path fill="#F5FDFD" opacity="1.000000" stroke="none" 
	d="
M149.658646,53.960266 
	C150.066040,54.103798 150.317947,54.378613 150.569870,54.653423 
	C150.359619,54.819405 150.149384,54.985386 149.939148,55.151360 
	C149.793823,54.798088 149.648499,54.444820 149.658646,53.960266 
z"/>
<path fill="#F5FDFD" opacity="1.000000" stroke="none" 
	d="
M149.641266,45.013618 
	C149.652557,44.529163 149.811401,44.183796 149.970245,43.838428 
	C150.171524,44.015137 150.372787,44.191849 150.574066,44.368561 
	C150.312317,44.629944 150.050583,44.891327 149.641266,45.013618 
z"/>
<path fill="#F5FDFD" opacity="1.000000" stroke="none" 
	d="
M165.343430,23.645397 
	C164.563644,23.471357 163.859055,23.048164 163.005600,22.349773 
	C163.710693,22.515131 164.564667,22.955687 165.343430,23.645397 
z"/>
<path fill="#F5FDFD" opacity="1.000000" stroke="none" 
	d="
M117.260033,97.800018 
	C117.162315,98.010429 116.975189,98.123001 116.788055,98.235580 
	C116.915573,98.057770 117.043098,97.879967 117.260033,97.800018 
z"/>
<path fill="#F5FDFD" opacity="1.000000" stroke="none" 
	d="
M172.260437,17.799843 
	C172.162628,18.010433 171.975357,18.123102 171.788071,18.235769 
	C171.915695,18.057819 172.043320,17.879871 172.260437,17.799843 
z"/>
<path fill="#F5FDFD" opacity="1.000000" stroke="none" 
	d="
M161.275085,23.414719 
	C161.561401,23.488937 161.595810,23.778564 161.286591,24.260759 
	C161.113983,24.152988 161.140732,23.878590 161.275085,23.414719 
z"/>
<path fill="#F5FDFD" opacity="1.000000" stroke="none" 
	d="
M190.829468,56.008827 
	C190.907852,56.229393 190.472977,56.125126 190.267151,56.037872 
	C190.061310,55.950623 190.119202,55.488136 190.162872,55.259270 
	C190.431717,55.251652 190.613220,55.504269 190.829468,56.008827 
z"/>
<path fill="#F5FDFD" opacity="1.000000" stroke="none" 
	d="
M191.809204,58.004036 
	C191.658127,57.993862 191.431824,57.763908 191.204178,57.282066 
	C191.425308,57.249531 191.602356,57.500889 191.809204,58.004036 
z"/>
<path fill="#F5FDFD" opacity="1.000000" stroke="none" 
	d="
M130.530945,108.150772 
	C130.713058,108.349052 130.601776,108.566429 130.147980,108.741791 
	C130.068726,108.574295 130.212753,108.397652 130.530945,108.150772 
z"/>
<path fill="#F5FDFD" opacity="1.000000" stroke="none" 
	d="
M129.632538,109.059517 
	C129.791443,109.248238 129.678726,109.472542 129.245270,109.665771 
	C129.163773,109.491394 129.309219,109.311531 129.632538,109.059517 
z"/>
<path fill="#F5FDFD" opacity="1.000000" stroke="none" 
	d="
M86.832275,75.825378 
	C86.602844,75.986320 86.328873,75.818634 86.069199,75.277359 
	C86.273285,75.191826 86.508018,75.389488 86.832275,75.825378 
z"/>
<path fill="#F5FDFD" opacity="1.000000" stroke="none" 
	d="
M87.827454,76.859024 
	C87.676552,76.883904 87.395752,76.709038 87.047531,76.287140 
	C87.258598,76.200897 87.497749,76.407288 87.827454,76.859024 
z"/>
<path fill="#F5FDFD" opacity="1.000000" stroke="none" 
	d="
M127.338852,86.796143 
	C127.140900,86.609772 127.248077,86.304802 127.717255,85.928268 
	C127.841003,86.106842 127.695915,86.380455 127.338852,86.796143 
z"/>
<path fill="#F4FDFD" opacity="1.000000" stroke="none" 
	d="
M2.858068,121.729691 
	C2.630609,121.784187 2.428949,121.558708 2.145194,121.109039 
	C2.307333,121.099388 2.580922,121.287682 2.858068,121.729691 
z"/>
</svg>