<svg version="1.1" id="Layer_1" xmlns="http://www.w3.org/2000/svg" xmlns:xlink="http://www.w3.org/1999/xlink" x="0px" y="0px"
	 width="100%" viewBox="0 0 281 277" enable-background="new 0 0 281 277" xml:space="preserve">
<path fill="#FDFEFE" opacity="1.000000" stroke="none" 
	d="
M0.999997,277.000000 
	C1.000000,185.645767 1.000000,94.291542 1.248124,2.398950 
	C1.664166,1.573723 1.832083,1.286862 2.000000,1.000000 
	C94.687561,1.000000 187.375122,1.000000 280.621368,1.232079 
	C281.387482,1.743567 281.660797,1.922181 282.000000,2.000000 
	C282.000000,2.000000 282.000000,2.500000 281.586823,2.752446 
	C275.890686,2.763383 277.029877,6.672738 277.028839,9.630620 
	C276.996704,99.087074 277.001221,188.543533 277.000000,278.000000 
	C185.645767,278.000000 94.291542,278.000000 2.376939,277.763977 
	C1.544373,277.351959 1.272183,277.175995 0.999997,277.000000 
M122.866722,238.153137 
	C136.592926,238.130386 150.319138,238.107651 164.539780,238.547836 
	C165.477310,240.306427 166.472672,242.036957 167.342377,243.828476 
	C171.121262,251.612671 174.729828,259.483002 178.667984,267.185181 
	C181.132202,272.004639 185.911270,274.061371 190.765182,272.972626 
	C195.253586,271.965881 198.857117,268.117401 198.855728,263.425018 
	C198.854980,260.882660 197.955856,258.207031 196.923340,255.825027 
	C194.444550,250.106537 191.647659,244.525925 189.711502,238.787079 
	C191.186676,238.563080 192.661865,238.339081 195.046219,238.278671 
	C203.192276,238.515701 211.338348,238.752731 219.524582,239.930878 
	C219.535522,249.759018 219.456955,259.588989 219.657486,269.413239 
	C219.686325,270.826447 220.921204,273.332581 221.831161,273.444977 
	C239.453552,275.622040 249.818817,266.697906 249.775665,251.929581 
	C249.643753,206.786850 249.741562,161.643448 250.003052,115.671043 
	C249.987045,114.512840 249.992599,113.353867 249.951813,112.196541 
	C249.322266,94.329857 242.248917,87.020798 224.227432,85.878418 
	C219.118515,85.554581 213.980423,85.690994 208.934189,84.860176 
	C206.271637,61.102173 194.544876,43.156826 173.706024,30.981310 
	C177.318420,24.669859 180.800369,18.825390 183.981201,12.821411 
	C184.596008,11.660924 184.033463,9.876696 184.014023,8.380198 
	C182.752808,9.184715 181.033432,9.699924 180.310715,10.844470 
	C177.381485,15.483461 174.505661,20.192783 172.108154,25.118565 
	C170.393417,28.641573 168.518311,28.897928 165.083633,27.580395 
	C153.702332,23.214573 141.892014,21.573586 129.812546,23.828753 
	C123.344833,25.036236 116.992584,26.862232 110.231323,28.495310 
	C107.064934,23.078512 103.960121,17.389256 100.436211,11.972655 
	C99.401253,10.381836 97.177650,9.564327 95.498817,8.392404 
	C95.790092,10.437115 95.582397,12.736019 96.469437,14.477220 
	C98.806267,19.064260 101.779228,23.326582 104.131218,27.906996 
	C104.734901,29.082668 104.582588,31.704906 103.742889,32.384899 
	C99.524368,35.801113 94.962784,38.793694 89.639053,41.616802 
	C78.362030,41.576500 67.084999,41.502048 55.807987,41.503712 
	C37.790302,41.506374 28.644220,51.928383 30.433588,70.572990 
	C30.388767,119.189034 30.232744,167.805389 30.375265,216.420883 
	C30.412102,228.986542 39.927090,238.018524 52.447659,238.179321 
	C63.435226,238.320404 74.426483,238.162964 85.414734,238.273911 
	C87.107742,238.290985 88.793343,239.041733 90.147049,240.238953 
	C87.218605,246.561325 84.211403,252.848785 81.389534,259.218384 
	C79.524391,263.428406 80.400375,267.403961 83.345825,270.811279 
	C86.256645,274.178528 90.461388,275.416321 94.173790,273.639954 
	C97.313431,272.137634 100.318604,269.142517 102.011169,266.055756 
	C107.020233,256.920502 111.350189,247.412888 116.787643,238.291077 
	C118.506149,238.172363 120.224648,238.053650 122.866722,238.153137 
z"/>
<path fill="#F2F4F5" opacity="1.000000" stroke="none" 
	d="
M277.499969,278.000000 
	C277.001221,188.543533 276.996704,99.087074 277.028839,9.630620 
	C277.029877,6.672738 275.890686,2.763383 281.586823,3.002446 
	C282.000000,94.666664 282.000000,186.333328 281.996399,278.000000 
	C280.661835,278.000000 279.330872,278.000000 277.499969,278.000000 
z"/>
<path fill="#D0D2D3" opacity="1.000000" stroke="none" 
	d="
M0.999997,277.500000 
	C1.272183,277.175995 1.544373,277.351959 1.908282,277.763977 
	C1.666667,278.000000 1.333333,278.000000 0.999997,277.500000 
z"/>
<path fill="#DDDDDD" opacity="1.000000" stroke="none" 
	d="
M282.000000,1.500000 
	C281.660797,1.922181 281.387482,1.743567 281.090027,1.232079 
	C281.333344,1.000000 281.666656,1.000000 282.000000,1.500000 
z"/>
<path fill="#D0D2D3" opacity="1.000000" stroke="none" 
	d="
M1.500000,1.000000 
	C1.832083,1.286862 1.664166,1.573723 1.248124,1.930292 
	C1.000000,1.666667 1.000000,1.333333 1.500000,1.000000 
z"/>
<path fill="#4385F2" opacity="1.000000" stroke="none" 
	d="
M208.855713,85.616333 
	C213.980423,85.690994 219.118515,85.554581 224.227432,85.878418 
	C242.248917,87.020798 249.322266,94.329857 249.951813,112.196541 
	C249.992599,113.353867 249.987045,114.512840 249.642227,116.043488 
	C249.174332,116.288757 249.077789,116.150307 248.957184,116.037605 
	C248.840225,115.928314 248.698578,115.845459 248.567780,115.750992 
	C243.474579,126.283081 234.436661,128.976425 223.709869,128.143448 
	C220.130295,127.865486 219.656418,129.775650 219.672974,132.710938 
	C219.756561,147.516495 219.740585,162.322845 219.705643,177.128799 
	C219.656967,197.749176 219.560440,218.369446 219.484406,238.989761 
	C211.338348,238.752731 203.192276,238.515701 194.547699,237.810410 
	C193.708405,236.242249 193.498444,235.079926 193.007645,234.051636 
	C181.921951,210.825684 170.849686,187.593018 159.637909,164.427917 
	C158.262405,161.585953 157.790680,159.658157 160.345795,157.013855 
	C169.144562,147.908005 166.592026,132.750839 155.214920,127.263283 
	C151.112869,125.284729 149.265320,122.992935 150.004089,118.548164 
	C150.219345,117.253036 150.049057,115.891602 150.034088,114.560799 
	C149.965591,108.468651 148.707108,107.514557 142.515152,109.067123 
	C138.090164,107.128326 136.170502,108.738274 135.930893,112.899414 
	C135.825897,114.722725 135.772949,116.569595 135.938522,118.383667 
	C136.288757,122.220490 135.378189,124.457024 131.176819,126.171936 
	C118.386696,131.392593 114.938728,147.582962 124.269417,157.667847 
	C126.669411,160.261826 126.625786,162.009140 125.229050,164.970047 
	C113.540726,189.747711 102.039795,214.613754 90.482376,239.453171 
	C88.793343,239.041733 87.107742,238.290985 85.414734,238.273911 
	C74.426483,238.162964 63.435226,238.320404 52.447659,238.179321 
	C39.927090,238.018524 30.412102,228.986542 30.375265,216.420883 
	C30.232744,167.805389 30.388767,119.189034 30.927496,70.447281 
	C34.859402,79.377663 41.248981,84.943161 51.003048,85.608070 
	C57.602814,86.057953 64.267746,85.551865 71.364212,85.587296 
	C114.019157,85.755333 156.213425,85.815567 198.407700,85.852272 
	C201.890305,85.855301 205.373032,85.698746 208.855713,85.616333 
z"/>
<path fill="#40DB87" opacity="1.000000" stroke="none" 
	d="
M208.894958,85.238258 
	C205.373032,85.698746 201.890305,85.855301 198.407700,85.852272 
	C156.213425,85.815567 114.019157,85.755333 71.410324,85.223534 
	C72.440613,72.281418 76.763145,60.923950 84.102173,50.732681 
	C86.223549,47.786854 88.380859,44.866894 90.521698,41.935074 
	C94.962784,38.793694 99.524368,35.801113 103.742889,32.384899 
	C104.582588,31.704906 104.734901,29.082668 104.131218,27.906996 
	C101.779228,23.326582 98.806267,19.064260 96.469437,14.477220 
	C95.582397,12.736019 95.790092,10.437115 95.498817,8.392403 
	C97.177650,9.564327 99.401253,10.381836 100.436211,11.972655 
	C103.960121,17.389256 107.064934,23.078512 110.231323,28.495310 
	C116.992584,26.862232 123.344833,25.036236 129.812546,23.828753 
	C141.892014,21.573586 153.702332,23.214573 165.083633,27.580395 
	C168.518311,28.897928 170.393417,28.641573 172.108154,25.118565 
	C174.505661,20.192783 177.381485,15.483461 180.310715,10.844470 
	C181.033432,9.699924 182.752808,9.184715 184.014023,8.380198 
	C184.033463,9.876696 184.596008,11.660924 183.981201,12.821411 
	C180.800369,18.825390 177.318420,24.669859 173.706024,30.981310 
	C194.544876,43.156826 206.271637,61.102173 208.894958,85.238258 
M104.377876,55.711250 
	C101.634979,58.645863 101.216881,62.023666 104.563736,64.269005 
	C106.264122,65.409760 110.494148,65.535828 111.474586,64.361801 
	C113.029259,62.500187 113.975479,58.679352 113.089790,56.560951 
	C111.656075,53.131752 108.104271,53.315739 104.377876,55.711250 
M176.026642,56.497993 
	C174.076080,55.901913 171.956253,54.505943 170.210052,54.875488 
	C166.522095,55.655949 165.165970,58.720409 166.365341,62.192726 
	C167.490906,65.451332 170.253082,66.857353 173.573730,65.500496 
	C177.506180,63.893650 178.653610,60.961250 176.026642,56.497993 
z"/>
<path fill="#0A3346" opacity="1.000000" stroke="none" 
	d="
M90.314713,239.846069 
	C102.039795,214.613754 113.540726,189.747711 125.229050,164.970047 
	C126.625786,162.009140 126.669411,160.261826 124.269417,157.667847 
	C114.938728,147.582962 118.386696,131.392593 131.176819,126.171936 
	C135.378189,124.457024 136.288757,122.220490 135.938522,118.383667 
	C135.772949,116.569595 135.825897,114.722725 135.930893,112.899414 
	C136.170502,108.738274 138.090164,107.128326 142.683609,109.439087 
	C143.424759,113.826408 143.381424,117.822952 143.963760,121.726143 
	C144.197281,123.291306 145.479034,125.364548 146.842239,125.990929 
	C157.191223,130.746292 162.363235,144.811127 155.604736,154.028076 
	C151.173798,160.070816 152.607788,164.507034 155.447067,169.774597 
	C156.313095,171.381271 157.206909,172.975876 157.999634,174.618652 
	C168.335403,196.037857 178.655273,217.464737 188.979126,238.889694 
	C191.647659,244.525925 194.444550,250.106537 196.923340,255.825027 
	C197.955856,258.207031 198.854980,260.882660 198.855728,263.425018 
	C198.857117,268.117401 195.253586,271.965881 190.765182,272.972626 
	C185.911270,274.061371 181.132202,272.004639 178.667984,267.185181 
	C174.729828,259.483002 171.121262,251.612671 167.342377,243.828476 
	C166.472672,242.036957 165.477310,240.306427 164.278107,237.944992 
	C158.603165,226.041946 153.371170,214.648117 147.624832,203.519913 
	C146.465164,201.274139 143.357254,200.034393 140.750397,198.190323 
	C136.178268,197.556793 133.310410,199.316254 131.547363,203.080338 
	C128.796478,208.953430 125.906731,214.763672 123.262344,220.683853 
	C120.700989,226.418167 118.375084,232.257645 115.945763,238.050919 
	C111.350189,247.412888 107.020233,256.920502 102.011169,266.055756 
	C100.318604,269.142517 97.313431,272.137634 94.173790,273.639954 
	C90.461388,275.416321 86.256645,274.178528 83.345825,270.811279 
	C80.400375,267.403961 79.524391,263.428406 81.389534,259.218384 
	C84.211403,252.848785 87.218605,246.561325 90.314713,239.846069 
M138.898193,155.917984 
	C146.182419,155.761978 150.833542,151.268738 150.943832,144.281235 
	C151.048996,137.618103 146.213669,132.910797 138.463333,132.226547 
	C131.294098,132.645126 125.835556,138.091019 126.196297,144.465149 
	C126.556793,150.834991 131.855942,155.875687 138.898193,155.917984 
z"/>
<path fill="#083143" opacity="1.000000" stroke="none" 
	d="
M219.504486,239.460327 
	C219.560440,218.369446 219.656967,197.749176 219.705643,177.128799 
	C219.740585,162.322845 219.756561,147.516495 219.672974,132.710938 
	C219.656418,129.775650 220.130295,127.865486 223.709869,128.143448 
	C234.436661,128.976425 243.474579,126.283081 248.567780,115.750992 
	C248.698578,115.845459 248.840225,115.928314 248.957184,116.037605 
	C249.077789,116.150307 249.174332,116.288757 249.515701,116.458122 
	C249.741562,161.643448 249.643753,206.786850 249.775665,251.929581 
	C249.818817,266.697906 239.453552,275.622040 221.831161,273.444977 
	C220.921204,273.332581 219.686325,270.826447 219.657486,269.413239 
	C219.456955,259.588989 219.535522,249.759018 219.504486,239.460327 
z"/>
<path fill="#093244" opacity="1.000000" stroke="none" 
	d="
M90.080376,41.775940 
	C88.380859,44.866894 86.223549,47.786854 84.102173,50.732681 
	C76.763145,60.923950 72.440613,72.281418 70.949638,85.109604 
	C64.267746,85.551865 57.602814,86.057953 51.003048,85.608070 
	C41.248981,84.943161 34.859402,79.377663 31.144136,70.089844 
	C28.644220,51.928383 37.790302,41.506374 55.807987,41.503712 
	C67.084999,41.502048 78.362030,41.576500 90.080376,41.775940 
z"/>
<path fill="#4284F1" opacity="1.000000" stroke="none" 
	d="
M141.147568,198.330826 
	C143.357254,200.034393 146.465164,201.274139 147.624832,203.519913 
	C153.371170,214.648117 158.603165,226.041946 164.030884,237.713531 
	C150.319138,238.107651 136.592926,238.130386 122.452026,237.687637 
	C128.407410,224.258377 134.777496,211.294601 141.147568,198.330826 
z"/>
<path fill="#366EB0" opacity="1.000000" stroke="none" 
	d="
M189.345306,238.838379 
	C178.655273,217.464737 168.335403,196.037857 157.999634,174.618652 
	C157.206909,172.975876 156.313095,171.381271 155.447067,169.774597 
	C152.607788,164.507034 151.173798,160.070816 155.604736,154.028076 
	C162.363235,144.811127 157.191223,130.746292 146.842239,125.990929 
	C145.479034,125.364548 144.197281,123.291306 143.963760,121.726143 
	C143.381424,117.822952 143.424759,113.826408 143.048508,109.495377 
	C148.707108,107.514557 149.965591,108.468651 150.034088,114.560799 
	C150.049057,115.891602 150.219345,117.253036 150.004089,118.548164 
	C149.265320,122.992935 151.112869,125.284729 155.214920,127.263283 
	C166.592026,132.750839 169.144562,147.908005 160.345795,157.013855 
	C157.790680,159.658157 158.262405,161.585953 159.637909,164.427917 
	C170.849686,187.593018 181.921951,210.825684 193.007645,234.051636 
	C193.498444,235.079926 193.708405,236.242249 194.093109,237.728607 
	C192.661865,238.339081 191.186676,238.563080 189.345306,238.838379 
z"/>
<path fill="#356DAE" opacity="1.000000" stroke="none" 
	d="
M140.750397,198.190323 
	C134.777496,211.294601 128.407410,224.258377 121.990242,237.578537 
	C120.224648,238.053650 118.506149,238.172363 116.366707,238.170990 
	C118.375084,232.257645 120.700989,226.418167 123.262344,220.683853 
	C125.906731,214.763672 128.796478,208.953430 131.547363,203.080338 
	C133.310410,199.316254 136.178268,197.556793 140.750397,198.190323 
z"/>
<path fill="#ECFBF2" opacity="1.000000" stroke="none" 
	d="
M104.674889,55.469254 
	C108.104271,53.315739 111.656075,53.131752 113.089790,56.560951 
	C113.975479,58.679352 113.029259,62.500187 111.474586,64.361801 
	C110.494148,65.535828 106.264122,65.409760 104.563736,64.269005 
	C101.216881,62.023666 101.634979,58.645863 104.674889,55.469254 
z"/>
<path fill="#EEFBF4" opacity="1.000000" stroke="none" 
	d="
M176.259827,56.781143 
	C178.653610,60.961250 177.506180,63.893650 173.573730,65.500496 
	C170.253082,66.857353 167.490906,65.451332 166.365341,62.192726 
	C165.165970,58.720409 166.522095,55.655949 170.210052,54.875488 
	C171.956253,54.505943 174.076080,55.901913 176.259827,56.781143 
z"/>
<path fill="#4082ED" opacity="1.000000" stroke="none" 
	d="
M138.998810,132.652512 
	C146.213669,132.910797 151.048996,137.618103 150.943832,144.281235 
	C150.833542,151.268738 146.182419,155.761978 138.441711,155.522491 
	C135.056229,151.271072 131.604233,147.267883 133.199860,142.156540 
	C134.272644,138.720001 137.007538,135.802322 138.998810,132.652512 
z"/>
<path fill="#346BAC" opacity="1.000000" stroke="none" 
	d="
M138.731079,132.439529 
	C137.007538,135.802322 134.272644,138.720001 133.199860,142.156540 
	C131.604233,147.267883 135.056229,151.271072 138.046082,155.460938 
	C131.855942,155.875687 126.556793,150.834991 126.196297,144.465149 
	C125.835556,138.091019 131.294098,132.645126 138.731079,132.439529 
z"/>
</svg>