<svg version="1.1" id="Layer_1" xmlns="http://www.w3.org/2000/svg" xmlns:xlink="http://www.w3.org/1999/xlink" x="0px" y="0px"
	 width="100%" viewBox="0 0 348 285" enable-background="new 0 0 348 285" xml:space="preserve">
<path fill="#FFFEFD" opacity="1.000000" stroke="none" 
	d="
M1.000000,285.000000 
	C1.000000,284.250000 1.000000,283.500000 1.468646,282.379089 
	C13.765287,282.004242 25.593281,282.001160 37.421276,281.996002 
	C43.993511,281.993134 43.999344,281.991608 43.999557,275.614258 
	C44.001942,205.145966 43.994259,134.677673 44.043354,64.209404 
	C44.044800,62.138752 44.639084,60.068508 45.066322,58.398842 
	C47.808300,81.286095 50.493954,103.766525 53.060459,126.260551 
	C56.476185,156.197556 59.811852,186.143738 63.145031,216.090073 
	C63.539124,219.630768 64.934578,222.039764 68.306183,223.888962 
	C93.427330,237.666946 118.401436,251.712646 143.476669,265.574890 
	C152.921143,270.796021 162.511185,275.753876 172.384125,280.957611 
	C173.213425,280.957184 173.745316,280.924469 174.166122,280.691345 
	C208.846512,261.475006 243.529037,242.262390 278.152710,222.944305 
	C279.583374,222.146057 280.457001,220.349365 281.836853,218.947510 
	C282.036133,218.245667 281.988739,217.614120 281.896240,216.552643 
	C282.095123,214.420853 282.339172,212.719025 282.835205,210.942719 
	C283.007874,210.229401 282.928528,209.590546 282.788727,208.525452 
	C283.801575,199.015564 284.877045,189.932220 285.947693,180.848297 
	C288.809174,156.570816 291.668549,132.293091 294.786407,107.948479 
	C294.984314,107.239639 294.924591,106.597801 294.816895,105.519768 
	C296.320251,92.391708 297.871582,79.699844 299.778870,67.151413 
	C300.423645,69.194748 300.963715,71.094505 300.964966,72.994598 
	C301.008698,140.538101 301.001495,208.081635 301.003296,275.625153 
	C301.003448,281.991486 301.009033,281.994263 307.575531,281.995758 
	C321.383698,281.998871 335.191833,281.998779 349.000000,282.000000 
	C349.000000,283.331696 349.000000,284.663361 349.000000,285.997528 
	C233.644653,286.000000 118.289314,286.000000 2.356709,285.780701 
	C1.597810,285.265747 1.337994,285.078613 1.000000,285.000000 
z"/>
<path fill="#F1F3F3" opacity="1.000000" stroke="none" 
	d="
M349.000000,281.531342 
	C335.191833,281.998779 321.383698,281.998871 307.575531,281.995758 
	C301.009033,281.994263 301.003448,281.991486 301.003296,275.625153 
	C301.001495,208.081635 301.008698,140.538101 300.964966,72.994598 
	C300.963715,71.094505 300.423645,69.194748 299.679199,66.749969 
	C299.284973,61.260151 299.346344,56.315212 299.777893,51.097908 
	C300.432678,49.071541 300.952026,47.319088 300.963715,45.563267 
	C301.038666,34.283611 301.140106,23.000576 300.924255,11.724559 
	C300.853241,8.015308 301.969025,6.867744 305.705200,6.918325 
	C320.134521,7.113675 334.568054,6.999095 349.000000,7.000000 
	C349.000000,98.354225 349.000000,189.708450 349.000000,281.531342 
z"/>
<path fill="#F1F3F4" opacity="1.000000" stroke="none" 
	d="
M44.956955,57.998077 
	C44.639084,60.068508 44.044800,62.138752 44.043354,64.209404 
	C43.994259,134.677673 44.001942,205.145966 43.999557,275.614258 
	C43.999344,281.991608 43.993511,281.993134 37.421276,281.996002 
	C25.593281,282.001160 13.765287,282.004242 1.468646,282.004089 
	C1.000000,190.645767 1.000000,99.291542 1.468627,7.462402 
	C13.756372,6.990638 25.575489,6.992725 37.394608,6.997351 
	C43.996925,6.999935 43.998497,7.001833 43.999641,13.844170 
	C44.001453,24.664495 43.950699,35.485271 44.047890,46.304733 
	C44.065296,48.242554 44.690056,50.174927 45.018387,52.529472 
	C44.987244,54.632114 44.972099,56.315098 44.956955,57.998077 
z"/>
<path fill="#FFFEFD" opacity="1.000000" stroke="none" 
	d="
M45.034386,52.109810 
	C44.690056,50.174927 44.065296,48.242554 44.047890,46.304733 
	C43.950699,35.485271 44.001453,24.664495 43.999641,13.844170 
	C43.998497,7.001833 43.996925,6.999935 37.394608,6.997351 
	C25.575489,6.992725 13.756372,6.990638 1.468627,6.993745 
	C1.000000,5.611111 1.000000,4.222222 1.224251,2.317006 
	C1.706091,1.584595 1.889924,1.317702 2.000000,1.000000 
	C117.666664,1.000000 233.333328,1.000000 349.000000,1.004069 
	C349.000000,2.672444 349.000000,4.336751 349.000000,6.500528 
	C334.568054,6.999095 320.134521,7.113675 305.705200,6.918325 
	C301.969025,6.867744 300.853241,8.015308 300.924255,11.724559 
	C301.140106,23.000576 301.038666,34.283611 300.963715,45.563267 
	C300.952026,47.319088 300.432678,49.071541 299.423737,51.097908 
	C264.817993,39.375938 230.950531,27.342026 197.045227,15.415681 
	C188.775726,12.506839 180.382050,9.951003 171.673615,7.206787 
	C129.212646,22.157078 87.123520,37.133446 45.034386,52.109810 
z"/>
<path fill="#DEE0E1" opacity="1.000000" stroke="none" 
	d="
M1.500000,1.000000 
	C1.889924,1.317702 1.706091,1.584595 1.224251,1.900340 
	C1.000000,1.666667 1.000000,1.333333 1.500000,1.000000 
z"/>
<path fill="#DEE0E1" opacity="1.000000" stroke="none" 
	d="
M1.000000,285.500000 
	C1.337994,285.078613 1.597810,285.265747 1.889724,285.780701 
	C1.666667,286.000000 1.333333,286.000000 1.000000,285.500000 
z"/>
<path fill="#FB8D03" opacity="1.000000" stroke="none" 
	d="
M172.045456,7.232862 
	C180.382050,9.951003 188.775726,12.506839 197.045227,15.415681 
	C230.950531,27.342026 264.817993,39.375938 299.053528,51.370266 
	C299.346344,56.315212 299.284973,61.260151 299.323242,66.606537 
	C297.871582,79.699844 296.320251,92.391708 294.618103,105.722420 
	C294.487793,106.912666 294.508270,107.464066 294.528778,108.015472 
	C291.668549,132.293091 288.809174,156.570816 285.947693,180.848297 
	C284.877045,189.932220 283.801575,199.015564 282.595642,208.733032 
	C282.503052,209.916977 282.543121,210.467072 282.583191,211.017181 
	C282.339172,212.719025 282.095123,214.420853 281.679688,216.742355 
	C281.535553,217.913956 281.562836,218.465897 281.590149,219.017838 
	C280.457001,220.349365 279.583374,222.146057 278.152710,222.944305 
	C243.529037,242.262390 208.846512,261.475006 174.166122,280.691345 
	C173.745316,280.924469 173.213425,280.957184 172.389435,280.501892 
	C172.044113,255.461899 172.042740,231.003448 172.422028,206.624619 
	C177.946182,209.042191 182.995163,211.636353 188.281845,213.585953 
	C190.263092,214.316574 193.247253,214.336304 195.005173,213.332901 
	C205.265442,207.476608 215.301071,201.226364 225.405029,195.096725 
	C231.326492,191.504410 237.233948,187.889008 244.049500,183.734253 
	C241.728394,182.489120 240.359131,181.687592 238.934250,181.001663 
	C232.184937,177.752441 225.383636,174.608109 218.689682,171.249405 
	C217.195984,170.499954 216.060364,169.036880 215.088501,167.784332 
	C224.678970,162.019089 233.940811,156.371918 243.955322,150.265808 
	C241.734451,149.026169 240.381607,148.180649 238.953995,147.489563 
	C232.104050,144.173645 225.189545,140.986694 218.407837,137.537903 
	C217.028214,136.836319 216.121597,135.204590 215.333435,133.915634 
	C224.854675,128.257370 234.039383,122.685135 243.781235,116.774879 
	C242.076721,115.674026 241.077377,114.872070 239.953415,114.327232 
	C230.088303,109.545135 220.184677,104.842438 210.324295,100.050667 
	C197.494370,93.815796 184.693573,87.520988 171.926941,80.769531 
	C171.997589,55.935684 172.021515,31.584272 172.045456,7.232862 
z"/>
<path fill="#FFA728" opacity="1.000000" stroke="none" 
	d="
M172.041367,206.544998 
	C172.042740,231.003448 172.044113,255.461899 172.040161,280.376038 
	C162.511185,275.753876 152.921143,270.796021 143.476669,265.574890 
	C118.401436,251.712646 93.427330,237.666946 68.306183,223.888962 
	C64.934578,222.039764 63.539124,219.630768 63.145031,216.090073 
	C59.811852,186.143738 56.476185,156.197556 53.060459,126.260551 
	C50.493954,103.766525 47.808300,81.286095 45.066319,58.398842 
	C44.972099,56.315098 44.987244,54.632114 45.018387,52.529472 
	C87.123520,37.133446 129.212646,22.157078 171.673615,7.206788 
	C172.021515,31.584272 171.997589,55.935684 171.555893,80.744911 
	C166.184921,78.867943 161.314438,76.323517 156.231537,74.317307 
	C154.556305,73.656082 151.915573,73.691742 150.423141,74.587029 
	C135.329880,83.641243 120.377983,92.931389 105.407158,102.188889 
	C104.373482,102.828087 103.505699,103.735573 101.945015,105.028351 
	C111.997353,109.856148 121.385391,114.364914 130.621368,119.234940 
	C123.131844,124.354553 115.788284,129.103516 108.460999,133.877472 
	C106.482796,135.166321 104.553932,136.530914 101.688667,138.483414 
	C111.865112,143.321533 120.965973,147.648300 130.077911,152.346970 
	C129.315521,153.676086 128.719330,154.906158 127.738129,155.543655 
	C123.282654,158.438385 118.701782,161.139160 114.198891,163.962143 
	C110.355171,166.371857 106.556175,168.852921 102.192162,171.652161 
	C103.702255,172.687714 104.308563,173.226364 105.010895,173.567108 
	C121.758659,181.692505 138.533859,189.761566 155.263382,197.924255 
	C160.913116,200.680862 166.451889,203.664886 172.041367,206.544998 
z"/>
<path fill="#F1F3F3" opacity="1.000000" stroke="none" 
	d="
M294.786407,107.948479 
	C294.508270,107.464066 294.487793,106.912666 294.666077,106.158607 
	C294.924591,106.597801 294.984314,107.239639 294.786407,107.948479 
z"/>
<path fill="#F1F3F3" opacity="1.000000" stroke="none" 
	d="
M282.835205,210.942719 
	C282.543121,210.467072 282.503052,209.916977 282.656067,209.159286 
	C282.928528,209.590546 283.007874,210.229401 282.835205,210.942719 
z"/>
<path fill="#F1F3F3" opacity="1.000000" stroke="none" 
	d="
M281.836853,218.947510 
	C281.562836,218.465897 281.535553,217.913956 281.724792,217.172302 
	C281.988739,217.614120 282.036133,218.245667 281.836853,218.947510 
z"/>
<path fill="#FFFEFC" opacity="1.000000" stroke="none" 
	d="
M130.773438,118.873672 
	C121.385391,114.364914 111.997353,109.856148 101.945015,105.028351 
	C103.505699,103.735573 104.373482,102.828087 105.407158,102.188889 
	C120.377983,92.931389 135.329880,83.641243 150.423141,74.587029 
	C151.915573,73.691742 154.556305,73.656082 156.231537,74.317307 
	C161.314438,76.323517 166.184921,78.867943 171.509186,81.227348 
	C184.693573,87.520988 197.494370,93.815796 210.324295,100.050667 
	C220.184677,104.842438 230.088303,109.545135 239.953415,114.327232 
	C241.077377,114.872070 242.076721,115.674026 243.781235,116.774879 
	C234.039383,122.685135 224.854675,128.257370 214.990570,133.944611 
	C207.784607,138.253540 201.319931,142.550064 194.679779,146.555710 
	C193.335678,147.366531 191.050186,147.749008 189.675522,147.178986 
	C184.039185,144.841858 178.568970,142.097748 173.070984,139.434586 
	C158.962311,132.600540 144.871429,125.729767 130.773438,118.873672 
z"/>
<path fill="#FFF2DE" opacity="1.000000" stroke="none" 
	d="
M130.621368,119.234940 
	C144.871429,125.729767 158.962311,132.600540 173.070984,139.434586 
	C178.568970,142.097748 184.039185,144.841858 189.675522,147.178986 
	C191.050186,147.749008 193.335678,147.366531 194.679779,146.555710 
	C201.319931,142.550064 207.784607,138.253540 214.654053,134.030624 
	C216.121597,135.204590 217.028214,136.836319 218.407837,137.537903 
	C225.189545,140.986694 232.104050,144.173645 238.953995,147.489563 
	C240.381607,148.180649 241.734451,149.026169 243.955322,150.265808 
	C233.940811,156.371918 224.678970,162.019089 214.755096,167.834763 
	C207.387268,172.208817 200.733032,176.501419 193.924545,180.533554 
	C192.800293,181.199356 190.742416,181.264755 189.551300,180.695984 
	C169.682053,171.208420 149.882172,161.575546 130.066833,151.975052 
	C120.965973,147.648300 111.865112,143.321533 101.688667,138.483414 
	C104.553932,136.530914 106.482796,135.166321 108.460999,133.877472 
	C115.788284,129.103516 123.131844,124.354553 130.621368,119.234940 
z"/>
<path fill="#FFDFB0" opacity="1.000000" stroke="none" 
	d="
M130.077911,152.346970 
	C149.882172,161.575546 169.682053,171.208420 189.551300,180.695984 
	C190.742416,181.264755 192.800293,181.199356 193.924545,180.533554 
	C200.733032,176.501419 207.387268,172.208817 214.426468,167.952820 
	C216.060364,169.036880 217.195984,170.499954 218.689682,171.249405 
	C225.383636,174.608109 232.184937,177.752441 238.934250,181.001663 
	C240.359131,181.687592 241.728394,182.489120 244.049500,183.734253 
	C237.233948,187.889008 231.326492,191.504410 225.405029,195.096725 
	C215.301071,201.226364 205.265442,207.476608 195.005173,213.332901 
	C193.247253,214.336304 190.263092,214.316574 188.281845,213.585953 
	C182.995163,211.636353 177.946182,209.042191 172.422028,206.624619 
	C166.451889,203.664886 160.913116,200.680862 155.263382,197.924255 
	C138.533859,189.761566 121.758659,181.692505 105.010895,173.567108 
	C104.308563,173.226364 103.702255,172.687714 102.192162,171.652161 
	C106.556175,168.852921 110.355171,166.371857 114.198891,163.962143 
	C118.701782,161.139160 123.282654,158.438385 127.738129,155.543655 
	C128.719330,154.906158 129.315521,153.676086 130.077911,152.346970 
z"/>
</svg>