<svg version="1.1" id="Layer_1" xmlns="http://www.w3.org/2000/svg" xmlns:xlink="http://www.w3.org/1999/xlink" x="0px" y="0px"
	 width="100%" viewBox="0 0 224 200" enable-background="new 0 0 224 200" xml:space="preserve">
<path fill="#FFFFFF" opacity="1.000000" stroke="none" 
	d="
M225.000000,2.000000 
	C225.000000,67.687561 225.000000,133.375122 224.776352,199.632935 
	C224.283020,200.409500 224.098785,200.675110 224.000000,201.000000 
	C149.717041,201.000000 75.434067,201.000000 1.075551,201.000000 
	C1.075551,134.428940 1.075551,67.857780 1.075551,1.000000 
	C75.020645,1.000000 149.041672,1.000000 223.637527,1.221517 
	C224.403824,1.729199 224.666367,1.914855 225.000000,2.000000 
M99.336876,71.065628 
	C98.779396,71.393921 98.221916,71.722214 96.934425,72.002937 
	C94.763817,73.046898 91.601059,73.512039 90.595474,75.235680 
	C86.389626,82.444786 79.771507,80.752426 73.534233,80.590775 
	C72.574005,80.565887 71.308693,79.833054 70.752296,79.032829 
	C69.044807,76.577042 67.613373,73.929314 66.464905,72.008858 
	C63.591217,72.008858 61.285091,72.008858 58.354477,71.792984 
	C57.338375,70.963112 56.322269,70.133247 56.135193,69.097244 
	C58.508656,66.295486 58.021179,63.757980 54.692635,63.222309 
	C52.513485,62.871616 49.755325,62.828590 47.997257,63.882938 
	C44.969883,65.698524 42.884758,69.342857 39.748806,70.663811 
	C33.997929,73.086243 33.316704,77.666641 33.090866,82.656441 
	C33.017220,84.283554 33.975243,85.957359 34.461426,87.609802 
	C36.019848,86.713158 37.578266,85.816513 39.633244,85.255104 
	C40.088455,85.911194 40.543667,86.567284 41.154854,87.595848 
	C41.317654,87.826591 41.535641,87.977837 42.325420,88.205139 
	C42.547134,88.477364 42.768845,88.749596 42.957169,89.761047 
	C40.282658,95.639481 41.277565,97.074867 47.970737,96.963326 
	C48.797146,96.949547 49.622093,96.848152 50.760853,96.708878 
	C50.760853,96.708878 51.060165,96.829788 51.101784,97.611328 
	C51.844868,100.957657 52.589687,104.198341 56.559731,105.447128 
	C57.236671,105.660049 57.376099,107.581810 57.083530,108.896179 
	C55.688828,110.534706 54.294128,112.173225 52.896267,113.924522 
	C52.896267,113.924522 52.788651,113.890648 52.023422,113.911903 
	C43.618271,114.916191 39.988586,120.670776 37.504215,128.582855 
	C34.390320,129.222137 32.733662,132.102097 34.227177,133.993774 
	C36.689598,137.112656 40.503708,139.164368 44.287766,142.082016 
	C44.218964,142.359161 43.816044,143.982071 43.246174,146.277420 
	C45.451038,145.413116 46.894123,144.847427 48.352150,144.275894 
	C49.224461,145.558578 49.957588,146.636612 50.597183,147.577103 
	C53.134789,147.015991 55.438461,146.506592 57.800720,145.984253 
	C57.800720,144.132980 57.800720,142.316772 58.103012,139.954483 
	C59.327847,139.141724 60.552677,138.328979 62.171761,138.192078 
	C69.466202,139.672775 73.346039,137.744888 75.880173,131.258377 
	C78.349129,130.935577 80.887383,130.603729 83.470940,130.265945 
	C84.147392,133.202087 84.736580,135.759460 85.356720,138.451172 
	C90.279747,138.157669 94.342087,138.981308 95.269363,144.836624 
	C95.393723,145.621918 97.095581,146.281342 98.173012,146.760544 
	C99.537964,147.367615 101.251816,147.412003 102.386208,148.267746 
	C104.498505,149.861176 106.106682,152.160828 108.296753,153.600555 
	C109.889717,154.647720 112.004257,157.601273 114.655594,154.118179 
	C116.546936,155.921860 118.438278,157.725555 120.225914,160.249283 
	C123.563835,163.520599 126.743301,166.977325 130.288086,170.006577 
	C133.313019,172.591568 136.757721,174.685333 140.843307,176.980057 
	C144.794266,175.941559 148.745209,174.903046 153.494934,173.927368 
	C157.160431,171.821655 160.826447,172.731918 164.637024,173.583603 
	C165.891068,173.863876 168.790924,172.407608 168.741272,172.053070 
	C167.948364,166.390930 171.141174,164.892166 175.861923,164.461136 
	C177.274445,164.332184 178.670044,163.520645 179.978577,162.839630 
	C184.570160,160.449951 185.169708,155.605728 181.129791,152.056000 
	C181.024582,147.684418 180.919373,143.312820 180.932007,138.297577 
	C181.009277,137.869629 181.086548,137.441666 181.929916,136.794403 
	C182.265930,136.267410 182.890213,135.743011 182.894943,135.213058 
	C182.971481,126.635620 183.019623,118.056808 182.905685,109.480553 
	C182.894547,108.642471 181.775589,107.819099 181.008194,106.348198 
	C180.932251,105.915390 180.856323,105.482590 180.985992,104.155884 
	C181.071930,101.418945 181.157867,98.681999 181.683777,95.449974 
	C181.539169,93.985596 181.394562,92.521225 181.122559,90.303650 
	C181.164612,89.544037 181.206650,88.784416 181.997940,87.870674 
	C182.660614,86.834023 183.921143,85.782158 183.895203,84.763031 
	C183.569550,71.968048 183.057877,59.177807 182.593826,46.386349 
	C181.964783,46.036572 181.335739,45.686790 180.706680,45.337009 
	C178.408310,46.416744 176.109924,47.496479 173.136490,48.424618 
	C172.094315,47.942425 171.052155,47.460236 169.895874,46.283886 
	C164.111679,43.658901 158.327469,41.033920 151.880798,38.264076 
	C150.633881,37.730145 149.386948,37.196213 147.881531,36.013626 
	C144.430023,34.284607 140.930557,31.784073 137.438171,36.928249 
	C137.104355,37.054695 136.770538,37.181141 135.798630,37.346397 
	C135.632019,37.708611 135.465408,38.070824 135.178406,38.745033 
	C135.178406,38.745033 134.927643,38.966301 134.210861,38.961971 
	C131.144043,41.979004 128.077225,44.996037 124.663536,48.565861 
	C123.012955,50.008751 121.362373,51.451645 119.387627,52.863369 
	C119.387627,52.863369 119.074997,52.958855 118.471924,53.204594 
	C117.372620,54.500214 116.273315,55.795834 114.572426,57.241871 
	C114.058792,57.862019 113.545166,58.482166 112.354698,59.099060 
	C111.922958,59.738876 111.491211,60.378696 110.548660,61.139233 
	C110.364433,61.423542 110.180199,61.707851 109.483337,62.111523 
	C109.345528,62.412983 109.207718,62.714443 109.001633,63.030087 
	C109.001633,63.030087 109.036819,63.090286 108.409210,63.242630 
	C107.346169,64.183205 106.283134,65.123779 104.610130,66.218117 
	C104.083885,66.849045 103.557648,67.479980 102.413132,68.191811 
	C101.602325,69.120346 100.791527,70.048874 99.336876,71.065628 
z"/>
<path fill="#F0F0F0" opacity="1.000000" stroke="none" 
	d="
M224.500000,201.000000 
	C224.098785,200.675110 224.283020,200.409500 224.776352,200.101593 
	C225.000000,200.333328 225.000000,200.666672 224.500000,201.000000 
z"/>
<path fill="#F0F0F0" opacity="1.000000" stroke="none" 
	d="
M225.000000,1.500000 
	C224.666367,1.914855 224.403824,1.729199 224.106186,1.221517 
	C224.333328,1.000000 224.666672,1.000000 225.000000,1.500000 
z"/>
<path fill="#1974B0" opacity="1.000000" stroke="none" 
	d="
M61.777512,137.516235 
	C60.552677,138.328979 59.327847,139.141724 57.610435,140.344284 
	C55.286575,141.305893 53.384789,142.516312 51.637917,142.323456 
	C47.313198,141.846008 39.347519,132.476868 39.171135,127.754128 
	C42.309349,124.690910 45.213684,121.863579 48.441391,118.980911 
	C49.131058,118.440636 49.497349,117.955696 49.957348,117.256546 
	C50.235699,116.770065 50.488480,116.597801 50.955894,116.874878 
	C52.382542,118.387032 53.662689,119.549820 55.472939,121.194107 
	C56.250019,117.648155 56.334373,115.358925 52.657368,114.630905 
	C52.739990,114.221512 52.764320,114.056076 52.788651,113.890648 
	C52.788651,113.890648 52.896267,113.924522 53.214203,113.803085 
	C55.027447,112.454124 56.522755,111.226593 58.412380,110.051544 
	C61.211132,110.395805 63.615559,110.687592 66.009995,110.989685 
	C66.000000,111.000000 66.020531,110.980156 66.020844,111.354645 
	C67.022240,112.480377 68.023315,113.231628 69.269547,113.983017 
	C69.514709,113.983154 70.004883,113.995644 70.009048,114.371651 
	C70.380028,118.445229 73.173187,118.735115 76.050606,119.349930 
	C76.820023,121.182808 77.523407,122.665154 78.206383,124.105515 
	C78.185974,124.063530 78.172661,124.155945 77.801201,124.108948 
	C76.615700,124.965576 75.801651,125.869202 74.868797,126.928436 
	C74.749985,127.084030 74.361748,127.134926 74.010330,127.117477 
	C73.102898,127.710968 72.546890,128.321899 71.845734,129.216919 
	C70.946121,129.737244 70.191658,129.973511 69.302879,130.049026 
	C68.989380,129.892487 68.810204,129.896683 68.631020,129.900894 
	C68.840462,130.065628 69.049911,130.230347 69.278572,130.738983 
	C66.791031,133.227325 64.284271,135.371780 61.777512,137.516235 
M62.608372,113.797951 
	C62.214165,113.793747 61.819958,113.789551 61.425751,113.785347 
	C61.424236,113.948929 61.411751,114.254692 61.422787,114.255539 
	C61.815037,114.285789 62.209496,114.287498 62.608372,113.797951 
z"/>
<path fill="#3484BA" opacity="1.000000" stroke="none" 
	d="
M109.995964,61.992165 
	C110.180199,61.707851 110.364433,61.423542 111.114075,61.039925 
	C112.130165,60.327847 112.580856,59.715084 113.031540,59.102318 
	C113.545166,58.482166 114.058792,57.862019 115.155151,57.289459 
	C116.825401,56.228668 117.912910,55.120285 119.178421,53.860493 
	C119.646301,53.512337 119.764763,53.240822 119.711792,52.894539 
	C121.362373,51.451645 123.012955,50.008751 125.157349,48.268997 
	C126.049667,47.814445 126.448158,47.656757 126.900162,47.846489 
	C130.111023,52.174953 130.120117,45.912354 132.588074,46.663696 
	C133.239075,47.830353 134.012543,49.216496 134.797028,50.622379 
	C138.234070,50.075851 141.612106,49.538704 145.005890,49.469727 
	C145.015625,56.624043 145.009628,63.310192 144.574432,69.999275 
	C134.421158,70.333923 124.698906,70.797623 114.972076,70.933487 
	C110.988472,70.989136 106.994972,70.336411 103.008041,69.689903 
	C103.017204,68.952881 103.024307,68.531898 103.031403,68.110909 
	C103.557648,67.479980 104.083885,66.849045 105.258736,66.125320 
	C106.950500,65.051781 107.993660,64.071030 109.036819,63.090286 
	C109.036819,63.090286 109.001633,63.030087 109.244141,62.906769 
	C109.746391,62.577606 109.916161,62.313839 109.995964,61.992165 
z"/>
<path fill="#218BD2" opacity="1.000000" stroke="none" 
	d="
M51.060165,96.829788 
	C51.060165,96.829788 50.760853,96.708878 50.572342,96.423698 
	C49.883877,95.196800 49.383930,94.255089 48.884483,93.117157 
	C48.609371,92.853653 48.333755,92.786369 47.763908,92.643044 
	C46.658173,91.669365 45.846668,90.771721 45.193897,89.586205 
	C46.168343,88.282104 46.984051,87.265869 47.452778,86.681915 
	C51.324196,87.457237 54.767742,88.192787 58.229664,88.828217 
	C62.290062,89.573502 66.353600,90.343140 70.448875,90.814926 
	C71.109787,90.891068 72.702805,89.281410 72.575294,88.777054 
	C71.604874,84.938583 74.538925,86.348206 76.337814,86.010895 
	C76.851227,86.228996 77.027176,86.470589 77.061478,87.166946 
	C77.089645,90.387909 78.231117,91.492653 81.337631,90.036148 
	C85.219994,92.657829 88.823196,95.156860 92.256195,97.871162 
	C93.692078,99.006447 94.766632,100.598724 95.996582,102.383682 
	C95.789406,105.786301 94.355812,107.206505 91.184181,107.042534 
	C87.546669,106.854477 83.637001,107.826134 80.305382,106.800430 
	C75.464706,105.310150 69.195038,110.334679 65.897385,103.105148 
	C65.104004,104.723557 64.545044,105.863762 63.749264,106.909241 
	C62.901138,106.561462 62.289829,106.308418 61.482445,105.747452 
	C57.877636,102.569611 54.468899,99.699699 51.060165,96.829788 
z"/>
<path fill="#097ECD" opacity="1.000000" stroke="none" 
	d="
M120.329620,159.529236 
	C118.438278,157.725555 116.546936,155.921860 114.275009,153.680328 
	C112.888710,151.907516 111.882988,150.572556 111.099152,148.909332 
	C113.339569,148.057968 115.365494,147.061447 117.375359,147.092850 
	C126.592201,147.236908 135.804535,147.668549 145.027222,148.371063 
	C145.076309,149.491684 145.116684,150.238159 145.119415,151.452606 
	C145.067947,157.512161 144.888855,163.109863 145.095688,168.693253 
	C145.244980,172.723236 143.716812,174.956665 139.333771,175.233795 
	C137.584000,174.013947 136.124268,172.929810 134.736832,171.759918 
	C129.920868,167.699097 125.130020,163.608505 120.329620,159.529236 
z"/>
<path fill="#279EED" opacity="1.000000" stroke="none" 
	d="
M139.656937,175.330185 
	C143.716812,174.956665 145.244980,172.723236 145.095688,168.693253 
	C144.888855,163.109863 145.067947,157.512161 145.495941,151.448456 
	C147.333054,150.704422 148.755997,150.432526 149.640610,150.263489 
	C151.017624,151.746399 152.189438,153.912735 153.050507,153.795547 
	C161.528778,152.641739 170.938095,157.589645 178.487808,150.116882 
	C178.753113,149.854279 179.452606,150.030365 179.963211,150.447464 
	C180.059906,152.691986 180.143127,154.491043 180.153992,156.600128 
	C179.376907,157.934479 178.672165,158.958786 177.587845,159.980957 
	C176.174057,160.705322 175.139847,161.431808 173.843658,162.387909 
	C171.620590,163.525864 169.598114,164.322845 167.710327,165.364059 
	C162.674667,168.141449 157.696930,171.023865 152.696167,173.864532 
	C148.745209,174.903046 144.794266,175.941559 140.306335,176.726929 
	C139.731888,176.092590 139.694412,175.711380 139.656937,175.330185 
z"/>
<path fill="#36A5F0" opacity="1.000000" stroke="none" 
	d="
M180.780396,105.049782 
	C180.856323,105.482590 180.932251,105.915390 180.993591,107.124741 
	C180.875824,111.936432 180.772675,115.971573 180.285461,120.008339 
	C169.788895,121.009712 159.676407,122.009468 150.414169,122.925163 
	C149.004318,119.307915 147.967133,116.646812 146.927673,113.536987 
	C146.930634,110.387230 146.935867,107.686211 147.384888,104.989700 
	C158.535721,105.001427 169.242752,105.008644 180.157166,105.031036 
	C180.364532,105.046211 180.780396,105.049782 180.780396,105.049782 
z"/>
<path fill="#2D90D4" opacity="1.000000" stroke="none" 
	d="
M76.115578,85.950447 
	C74.538925,86.348206 71.604874,84.938583 72.575294,88.777054 
	C72.702805,89.281410 71.109787,90.891068 70.448875,90.814926 
	C66.353600,90.343140 62.290062,89.573502 58.229664,88.828217 
	C54.767742,88.192787 51.324196,87.457237 47.452778,86.681915 
	C46.984051,87.265869 46.168343,88.282104 44.920284,89.520683 
	C43.988808,89.502625 43.489681,89.262222 42.990555,89.021820 
	C42.768845,88.749596 42.547134,88.477364 42.035019,87.908218 
	C41.580173,87.320282 41.331593,87.190979 40.998878,87.223381 
	C40.543667,86.567284 40.088455,85.911194 39.383575,84.689835 
	C39.174126,77.363350 48.406452,68.902321 55.306168,69.303375 
	C56.322269,70.133247 57.338375,70.963112 58.800835,72.209381 
	C64.869987,77.067329 70.492783,81.508888 76.115578,85.950447 
z"/>
<path fill="#EBF3F6" opacity="1.000000" stroke="none" 
	d="
M110.877274,149.237595 
	C111.882988,150.572556 112.888710,151.907516 113.969925,153.549911 
	C112.004257,157.601273 109.889717,154.647720 108.296753,153.600555 
	C106.106682,152.160828 104.498505,149.861176 102.386208,148.267746 
	C101.251816,147.412003 99.537964,147.367615 98.173012,146.760544 
	C97.095581,146.281342 95.393723,145.621918 95.269363,144.836624 
	C94.342087,138.981308 90.279747,138.157669 85.356720,138.451172 
	C84.736580,135.759460 84.147392,133.202087 83.470940,130.265945 
	C80.887383,130.603729 78.349129,130.935577 75.880173,131.258377 
	C73.346039,137.744888 69.466202,139.672775 61.974640,137.854156 
	C64.284271,135.371780 66.791031,133.227325 69.294800,130.665558 
	C69.291801,130.248230 69.437195,130.209778 69.437195,130.209778 
	C70.191658,129.973511 70.946121,129.737244 72.142342,129.143982 
	C73.176643,128.236282 73.769196,127.685608 74.361748,127.134926 
	C74.361748,127.134926 74.749985,127.084030 75.167969,126.873962 
	C76.448189,125.827911 77.310425,124.991928 78.172661,124.155945 
	C78.172661,124.155945 78.185974,124.063530 78.513962,123.989777 
	C80.477654,124.404556 82.505264,124.439171 83.684052,125.456924 
	C90.242775,131.119644 96.595604,137.020798 103.161865,143.086151 
	C104.020805,143.935089 104.736755,144.538284 105.611832,145.428818 
	C106.147934,145.924271 106.524918,146.132385 107.055786,146.625671 
	C108.432205,147.686432 109.654739,148.462006 110.877274,149.237595 
z"/>
<path fill="#59B6F1" opacity="1.000000" stroke="none" 
	d="
M170.009979,46.978046 
	C171.052155,47.460236 172.094315,47.942425 173.678787,48.720280 
	C175.759109,50.350571 177.297150,51.685200 178.422699,53.017639 
	C176.199890,52.897995 173.655182,53.508060 172.699722,52.543648 
	C166.991180,46.781631 160.320938,50.935886 154.232101,50.694599 
	C150.830902,50.559811 148.162460,50.548698 145.982147,47.590721 
	C146.024078,46.203510 146.026581,45.125656 145.996582,43.665936 
	C144.932373,40.868679 143.900665,38.453293 143.256653,35.978382 
	C145.142899,36.166664 146.641464,36.414471 148.140030,36.662281 
	C149.386948,37.196213 150.633881,37.730145 152.390427,38.623413 
	C158.603363,41.647846 164.306671,44.312946 170.009979,46.978046 
z"/>
<path fill="#F2F7F9" opacity="1.000000" stroke="none" 
	d="
M55.720680,69.200310 
	C48.406452,68.902321 39.174126,77.363350 39.135292,84.522209 
	C37.578266,85.816513 36.019848,86.713158 34.461426,87.609802 
	C33.975243,85.957359 33.017220,84.283554 33.090866,82.656441 
	C33.316704,77.666641 33.997929,73.086243 39.748806,70.663811 
	C42.884758,69.342857 44.969883,65.698524 47.997257,63.882938 
	C49.755325,62.828590 52.513485,62.871616 54.692635,63.222309 
	C58.021179,63.757980 58.508656,66.295486 55.720680,69.200310 
z"/>
<path fill="#3D8ABD" opacity="1.000000" stroke="none" 
	d="
M142.868958,36.037903 
	C143.900665,38.453293 144.932373,40.868679 145.737427,43.890701 
	C145.431717,45.630096 145.352646,46.762859 145.200363,48.171505 
	C145.081482,48.632114 145.035797,48.816837 144.990128,49.001564 
	C141.612106,49.538704 138.234070,50.075851 134.797028,50.622379 
	C134.012543,49.216496 133.239075,47.830353 132.588074,46.663696 
	C130.120117,45.912354 130.111023,52.174953 127.061028,47.584221 
	C129.754807,44.305126 132.341217,41.635712 134.927643,38.966301 
	C134.927643,38.966301 135.178406,38.745033 135.487061,38.467857 
	C136.009369,37.896309 136.223038,37.601944 136.436722,37.307583 
	C136.770538,37.181141 137.104355,37.054695 138.025848,36.819153 
	C140.031998,36.486004 141.450485,36.261955 142.868958,36.037903 
z"/>
<path fill="#E8F2F6" opacity="1.000000" stroke="none" 
	d="
M76.337814,86.010895 
	C70.492783,81.508888 64.869987,77.067329 59.113079,72.317314 
	C61.285091,72.008858 63.591217,72.008858 66.464905,72.008858 
	C67.613373,73.929314 69.044807,76.577042 70.752296,79.032829 
	C71.308693,79.833054 72.574005,80.565887 73.534233,80.590775 
	C79.771507,80.752426 86.389626,82.444786 90.595474,75.235680 
	C91.601059,73.512039 94.763817,73.046898 97.594162,71.975861 
	C98.452766,71.934265 98.651634,71.919746 98.599289,72.139160 
	C97.845467,73.116219 97.342850,73.859352 96.558426,74.692291 
	C95.896339,75.204315 95.516083,75.626518 94.822960,76.174454 
	C90.335388,80.213188 86.160675,84.126205 81.614555,88.048904 
	C79.858063,87.637764 78.472977,87.216942 77.087891,86.796127 
	C77.027176,86.470589 76.851227,86.228996 76.337814,86.010895 
z"/>
<path fill="#ECF3F6" opacity="1.000000" stroke="none" 
	d="
M38.937256,127.990021 
	C39.347519,132.476868 47.313198,141.846008 51.637917,142.323456 
	C53.384789,142.516312 55.286575,141.305893 57.459290,140.617325 
	C57.800720,142.316772 57.800720,144.132980 57.800720,145.984253 
	C55.438461,146.506592 53.134789,147.015991 50.597183,147.577103 
	C49.957588,146.636612 49.224461,145.558578 48.352150,144.275894 
	C46.894123,144.847427 45.451038,145.413116 43.246174,146.277420 
	C43.816044,143.982071 44.218964,142.359161 44.287766,142.082016 
	C40.503708,139.164368 36.689598,137.112656 34.227177,133.993774 
	C32.733662,132.102097 34.390320,129.222137 37.980713,128.301102 
	C38.457211,128.019348 38.937256,127.990021 38.937256,127.990021 
z"/>
<path fill="#EFF6FA" opacity="1.000000" stroke="none" 
	d="
M178.835175,53.019829 
	C177.297150,51.685200 175.759109,50.350571 174.016312,48.796078 
	C176.109924,47.496479 178.408310,46.416744 180.706680,45.337009 
	C181.335739,45.686790 181.964783,46.036572 182.593826,46.386349 
	C183.057877,59.177807 183.569550,71.968048 183.895203,84.763031 
	C183.921143,85.782158 182.660614,86.834023 181.533844,87.510193 
	C180.962326,84.784698 180.854919,82.419693 180.814392,79.608459 
	C180.813080,76.778542 180.744858,74.394852 180.775146,71.553780 
	C180.747574,66.406036 180.621506,61.715679 180.591492,56.716770 
	C180.164764,55.521370 179.641998,54.634521 179.095673,53.547195 
	C179.072098,53.346718 178.835175,53.019829 178.835175,53.019829 
z"/>
<path fill="#EFF6FA" opacity="1.000000" stroke="none" 
	d="
M177.967438,159.983093 
	C178.672165,158.958786 179.376907,157.934479 180.390533,156.333527 
	C180.883469,154.830032 181.067505,153.903183 181.251541,152.976334 
	C185.169708,155.605728 184.570160,160.449951 179.978577,162.839630 
	C178.670044,163.520645 177.274445,164.332184 175.861923,164.461136 
	C171.141174,164.892166 167.948364,166.390930 168.741272,172.053070 
	C168.790924,172.407608 165.891068,173.863876 164.637024,173.583603 
	C160.826447,172.731918 157.160431,171.821655 153.095551,173.895950 
	C157.696930,171.023865 162.674667,168.141449 167.710327,165.364059 
	C169.598114,164.322845 171.620590,163.525864 174.177292,162.365662 
	C175.837769,161.403580 176.902618,160.693329 177.967438,159.983093 
z"/>
<path fill="#EFF6FA" opacity="1.000000" stroke="none" 
	d="
M180.669540,120.006721 
	C180.772675,115.971573 180.875824,111.936432 181.074921,107.445084 
	C181.775589,107.819099 182.894547,108.642471 182.905685,109.480553 
	C183.019623,118.056808 182.971481,126.635620 182.894943,135.213058 
	C182.890213,135.743011 182.265930,136.267410 181.447784,136.566498 
	C180.813934,135.184387 180.662201,134.030182 180.578156,132.474060 
	C180.653748,128.050308 180.661636,124.028519 180.669540,120.006721 
z"/>
<path fill="#D8E8F1" opacity="1.000000" stroke="none" 
	d="
M39.171135,127.754128 
	C38.937256,127.990021 38.457211,128.019348 38.216560,128.026596 
	C39.988586,120.670776 43.618271,114.916191 52.406036,113.901276 
	C52.764320,114.056076 52.739990,114.221512 52.419209,114.712341 
	C51.684975,115.533661 51.247185,116.029594 50.809395,116.525520 
	C50.488480,116.597801 50.235699,116.770065 49.668671,117.367516 
	C48.896866,118.140549 48.507442,118.588394 48.118019,119.036247 
	C45.213684,121.863579 42.309349,124.690910 39.171135,127.754128 
z"/>
<path fill="#C4DFF0" opacity="1.000000" stroke="none" 
	d="
M139.333771,175.233795 
	C139.694412,175.711380 139.731888,176.092590 139.893051,176.735077 
	C136.757721,174.685333 133.313019,172.591568 130.288086,170.006577 
	C126.743301,166.977325 123.563835,163.520599 120.277771,159.889252 
	C125.130020,163.608505 129.920868,167.699097 134.736832,171.759918 
	C136.124268,172.929810 137.584000,174.013947 139.333771,175.233795 
z"/>
<path fill="#D7E8F2" opacity="1.000000" stroke="none" 
	d="
M51.080971,97.220558 
	C54.468899,99.699699 57.877636,102.569611 61.228168,105.983017 
	C60.141998,107.375916 59.114025,108.225304 58.002605,108.987137 
	C57.919159,108.899582 57.763844,108.714127 57.763844,108.714127 
	C57.376099,107.581810 57.236671,105.660049 56.559731,105.447128 
	C52.589687,104.198341 51.844868,100.957657 51.080971,97.220558 
z"/>
<path fill="#E2EFF7" opacity="1.000000" stroke="none" 
	d="
M42.973862,89.391434 
	C43.489681,89.262222 43.988808,89.502625 44.761547,89.808556 
	C45.846668,90.771721 46.658173,91.669365 47.929554,92.848404 
	C48.554283,93.190987 48.719131,93.252174 48.883980,93.313370 
	C49.383930,94.255089 49.883877,95.196800 50.415771,96.462936 
	C49.622093,96.848152 48.797146,96.949547 47.970737,96.963326 
	C41.277565,97.074867 40.282658,95.639481 42.973862,89.391434 
z"/>
<path fill="#D1ECF9" opacity="1.000000" stroke="none" 
	d="
M169.952927,46.630966 
	C164.306671,44.312946 158.603363,41.647846 152.721664,38.695843 
	C158.327469,41.033920 164.111679,43.658901 169.952927,46.630966 
z"/>
<path fill="#CAE2F0" opacity="1.000000" stroke="none" 
	d="
M134.569244,38.964134 
	C132.341217,41.635712 129.754807,44.305126 127.007523,47.236805 
	C126.448158,47.656757 126.049667,47.814445 125.330788,47.992607 
	C128.077225,44.996037 131.144043,41.979004 134.569244,38.964134 
z"/>
<path fill="#59B6F1" opacity="1.000000" stroke="none" 
	d="
M180.747498,80.054688 
	C180.854919,82.419693 180.962326,84.784698 181.159210,87.587250 
	C181.206650,88.784416 181.164612,89.544037 181.099457,91.081177 
	C181.132187,93.220825 181.187988,94.582939 181.243805,95.945061 
	C181.157867,98.681999 181.071930,101.418945 180.883194,104.602829 
	C180.780396,105.049782 180.364532,105.046211 180.172577,104.561157 
	C179.968842,98.054741 179.957092,92.033371 179.960846,85.615387 
	C180.233414,83.497406 180.490463,81.776047 180.747498,80.054688 
z"/>
<path fill="#CAE2F0" opacity="1.000000" stroke="none" 
	d="
M143.256653,35.978378 
	C141.450485,36.261955 140.031998,36.486004 138.250763,36.672421 
	C140.930557,31.784073 144.430023,34.284607 148.010773,36.337952 
	C146.641464,36.414471 145.142899,36.166664 143.256653,35.978378 
z"/>
<path fill="#59B6F1" opacity="1.000000" stroke="none" 
	d="
M181.190674,152.516174 
	C181.067505,153.903183 180.883469,154.830032 180.462891,156.023483 
	C180.143127,154.491043 180.059906,152.691986 179.982895,149.989105 
	C179.968063,145.705399 179.947037,142.325546 180.148010,138.938370 
	C180.370026,138.931061 180.814178,138.941238 180.814178,138.941238 
	C180.919373,143.312820 181.024582,147.684418 181.190674,152.516174 
z"/>
<path fill="#D7E8F2" opacity="1.000000" stroke="none" 
	d="
M58.018059,109.999069 
	C56.522755,111.226593 55.027447,112.454124 53.215782,113.746704 
	C54.294128,112.173225 55.688828,110.534706 57.423687,108.805153 
	C57.763844,108.714127 57.919159,108.899582 57.977654,109.217606 
	C58.036148,109.535622 58.018063,109.999069 58.018059,109.999069 
z"/>
<path fill="#3D8ABD" opacity="1.000000" stroke="none" 
	d="
M119.000427,54.011902 
	C117.912910,55.120285 116.825401,56.228668 115.455948,57.214249 
	C116.273315,55.795834 117.372620,54.500214 118.772980,53.346344 
	C119.049500,53.662701 119.024963,53.837303 119.000427,54.011902 
z"/>
<path fill="#279EED" opacity="1.000000" stroke="none" 
	d="
M180.873093,138.619415 
	C180.814178,138.941238 180.370026,138.931061 179.878754,138.677643 
	C179.259338,136.619232 179.131195,134.814255 179.381165,132.990234 
	C180.009659,132.939468 180.260056,132.907730 180.510452,132.875992 
	C180.662201,134.030182 180.813934,135.184387 181.064743,136.676147 
	C181.086548,137.441666 181.009277,137.869629 180.873093,138.619415 
z"/>
<path fill="#3D8ABD" opacity="1.000000" stroke="none" 
	d="
M108.723007,63.166458 
	C107.993660,64.071030 106.950500,65.051781 105.563721,66.048447 
	C106.283134,65.123779 107.346169,64.183205 108.723007,63.166458 
z"/>
<path fill="#EFF6FA" opacity="1.000000" stroke="none" 
	d="
M181.463776,95.697517 
	C181.187988,94.582939 181.132187,93.220825 181.163162,91.457779 
	C181.394562,92.521225 181.539169,93.985596 181.463776,95.697517 
z"/>
<path fill="#3D8ABD" opacity="1.000000" stroke="none" 
	d="
M102.722267,68.151360 
	C103.024307,68.531898 103.017204,68.952881 102.720093,69.812225 
	C101.662697,70.559830 100.895317,70.869064 100.091263,71.127991 
	C100.054581,71.077675 99.980721,70.977409 99.980721,70.977409 
	C100.791527,70.048874 101.602325,69.120346 102.722267,68.151360 
z"/>
<path fill="#3D8ABD" opacity="1.000000" stroke="none" 
	d="
M112.693123,59.100689 
	C112.580856,59.715084 112.130165,60.327847 111.369476,60.979561 
	C111.491211,60.378696 111.922958,59.738876 112.693123,59.100689 
z"/>
<path fill="#3D8ABD" opacity="1.000000" stroke="none" 
	d="
M97.959167,71.999634 
	C98.221916,71.722214 98.779396,71.393921 99.658798,71.021515 
	C99.980721,70.977409 100.054581,71.077675 99.967667,71.280991 
	C99.537338,71.624611 99.193924,71.764915 98.850502,71.905220 
	C98.651634,71.919746 98.452766,71.934265 97.959167,71.999634 
z"/>
<path fill="#E2EFF7" opacity="1.000000" stroke="none" 
	d="
M41.076866,87.409615 
	C41.331593,87.190979 41.580173,87.320282 41.776718,87.830444 
	C41.535641,87.977837 41.317654,87.826591 41.076866,87.409615 
z"/>
<path fill="#3D8ABD" opacity="1.000000" stroke="none" 
	d="
M109.739655,62.051842 
	C109.916161,62.313839 109.746391,62.577606 109.278275,62.899681 
	C109.207718,62.714443 109.345528,62.412983 109.739655,62.051842 
z"/>
<path fill="#CAE2F0" opacity="1.000000" stroke="none" 
	d="
M119.178421,53.860493 
	C119.024963,53.837303 119.049500,53.662701 119.074516,53.223473 
	C119.074997,52.958855 119.387627,52.863369 119.549713,52.878952 
	C119.764763,53.240822 119.646301,53.512337 119.178421,53.860493 
z"/>
<path fill="#CAE2F0" opacity="1.000000" stroke="none" 
	d="
M136.117676,37.326988 
	C136.223038,37.601944 136.009369,37.896309 135.547241,38.311859 
	C135.465408,38.070824 135.632019,37.708611 136.117676,37.326988 
z"/>
<path fill="#1785D0" opacity="1.000000" stroke="none" 
	d="
M103.018875,142.840393 
	C96.595604,137.020798 90.242775,131.119644 83.684052,125.456924 
	C82.505264,124.439171 80.477654,124.404556 78.534363,124.031761 
	C77.523407,122.665154 76.820023,121.182808 75.910904,119.051590 
	C74.792290,116.940506 73.879402,115.478287 73.429230,114.011093 
	C76.859032,114.051018 79.830353,114.219086 82.792442,114.117668 
	C91.623932,113.815308 100.452347,113.418243 109.278648,112.989769 
	C109.557831,112.976212 109.800652,112.213715 110.381783,111.916901 
	C112.758537,113.359909 114.813934,114.686394 116.977142,116.257744 
	C117.398384,116.657265 117.711807,116.811905 118.175446,117.262978 
	C120.889832,119.345665 123.454002,121.131920 126.106750,123.052811 
	C126.195335,123.187439 126.514610,123.231712 126.651901,123.548241 
	C129.189880,125.578033 131.590561,127.291298 133.995316,129.002472 
	C133.999390,129.000366 133.996460,129.008820 134.124237,129.306732 
	C135.489990,130.420547 136.727966,131.236420 137.981583,132.025589 
	C137.997238,131.998871 137.948959,132.037918 138.042145,132.295563 
	C138.473999,132.972580 138.812668,133.391953 138.795135,133.869980 
	C137.523361,135.051743 136.607773,136.174835 135.935577,136.999390 
	C128.294449,136.999390 120.549026,137.316757 112.845467,136.885864 
	C107.855270,136.606705 104.395721,137.704773 103.018875,142.840393 
z"/>
<path fill="#1C88D0" opacity="1.000000" stroke="none" 
	d="
M110.060425,111.800362 
	C109.800652,112.213715 109.557831,112.976212 109.278648,112.989769 
	C100.452347,113.418243 91.623932,113.815308 82.792442,114.117668 
	C79.830353,114.219086 76.859032,114.051018 73.059647,114.009087 
	C71.486542,114.006577 70.745712,114.001106 70.004883,113.995644 
	C70.004883,113.995644 69.514709,113.983154 69.227829,113.645508 
	C67.967468,112.531960 66.993996,111.756058 66.020531,110.980156 
	C66.020531,110.980156 66.000000,111.000000 65.979828,110.665237 
	C65.301796,109.221642 64.643936,108.112808 63.986076,107.003975 
	C64.545044,105.863762 65.104004,104.723557 65.897385,103.105148 
	C69.195038,110.334679 75.464706,105.310150 80.305382,106.800430 
	C83.637001,107.826134 87.546669,106.854477 91.184181,107.042534 
	C94.355812,107.206505 95.789406,105.786301 96.351288,102.424744 
	C98.807907,103.683189 100.900917,105.301018 102.693314,106.987885 
	C102.128014,107.501427 101.863319,107.945923 101.598633,108.390427 
	C102.603600,108.159630 103.608559,107.928825 104.922928,107.766533 
	C106.841698,109.156807 108.451057,110.478584 110.060425,111.800362 
z"/>
<path fill="#2179B4" opacity="1.000000" stroke="none" 
	d="
M63.749260,106.909241 
	C64.643936,108.112808 65.301796,109.221642 65.989822,110.654922 
	C63.615559,110.687592 61.211132,110.395805 58.412384,110.051544 
	C58.018063,109.999069 58.036148,109.535622 58.061100,109.305161 
	C59.114025,108.225304 60.141998,107.375916 61.424244,106.290955 
	C62.289829,106.308418 62.901138,106.561462 63.749260,106.909241 
z"/>
<path fill="#2179B4" opacity="1.000000" stroke="none" 
	d="
M50.955894,116.874878 
	C51.247185,116.029594 51.684975,115.533661 52.360920,114.956299 
	C56.334373,115.358925 56.250019,117.648155 55.472939,121.194107 
	C53.662689,119.549820 52.382542,118.387032 50.955894,116.874878 
z"/>
<path fill="#2179B4" opacity="1.000000" stroke="none" 
	d="
M70.009048,114.371651 
	C70.745712,114.001106 71.486542,114.006577 72.596947,114.014053 
	C73.879402,115.478287 74.792290,116.940506 75.844864,118.701065 
	C73.173187,118.735115 70.380028,118.445229 70.009048,114.371651 
z"/>
<path fill="#2179B4" opacity="1.000000" stroke="none" 
	d="
M66.020844,111.354645 
	C66.993996,111.756058 67.967468,112.531960 68.982666,113.645370 
	C68.023315,113.231628 67.022240,112.480377 66.020844,111.354645 
z"/>
<path fill="#2179B4" opacity="1.000000" stroke="none" 
	d="
M77.801201,124.108948 
	C77.310425,124.991928 76.448189,125.827911 75.286781,126.718369 
	C75.801651,125.869202 76.615700,124.965576 77.801201,124.108948 
z"/>
<path fill="#2179B4" opacity="1.000000" stroke="none" 
	d="
M62.606007,114.045578 
	C62.209496,114.287498 61.815037,114.285789 61.422787,114.255539 
	C61.411751,114.254692 61.424236,113.948929 61.425751,113.785347 
	C61.819958,113.789551 62.214165,113.793747 62.606007,114.045578 
z"/>
<path fill="#2179B4" opacity="1.000000" stroke="none" 
	d="
M74.010330,127.117477 
	C73.769196,127.685608 73.176643,128.236282 72.287491,128.859909 
	C72.546890,128.321899 73.102898,127.710968 74.010330,127.117477 
z"/>
<path fill="#2179B4" opacity="1.000000" stroke="none" 
	d="
M48.441391,118.980911 
	C48.507442,118.588394 48.896866,118.140549 49.574966,117.581734 
	C49.497349,117.955696 49.131058,118.440636 48.441391,118.980911 
z"/>
<path fill="#2179B4" opacity="1.000000" stroke="none" 
	d="
M69.275574,130.321655 
	C69.049911,130.230347 68.840462,130.065628 68.631020,129.900894 
	C68.810204,129.896683 68.989380,129.892487 69.302879,130.049026 
	C69.437195,130.209778 69.291801,130.248230 69.275574,130.321655 
z"/>
<path fill="#2B7EB7" opacity="1.000000" stroke="none" 
	d="
M102.993927,106.918854 
	C100.900917,105.301018 98.807907,103.683189 96.360184,102.024292 
	C94.766632,100.598724 93.692078,99.006447 92.256195,97.871162 
	C88.823196,95.156860 85.219994,92.657829 81.445816,89.781807 
	C81.466072,89.007561 81.726021,88.523392 81.985970,88.039223 
	C86.160675,84.126205 90.335388,80.213188 95.132912,76.164948 
	C96.169510,76.020821 96.583298,76.011940 97.033615,76.287033 
	C97.375748,76.892937 97.681343,77.214874 97.986938,77.536812 
	C98.168678,77.326965 98.350410,77.117119 98.532143,76.907272 
	C98.022446,76.603867 97.512749,76.300461 96.973953,75.647064 
	C96.909981,75.065529 96.875114,74.834000 96.840240,74.602478 
	C97.342850,73.859352 97.845467,73.116219 98.599289,72.139160 
	C99.193924,71.764915 99.537338,71.624611 100.004349,71.331306 
	C100.895317,70.869064 101.662697,70.559830 102.718025,70.128265 
	C106.994972,70.336411 110.988472,70.989136 114.972076,70.933487 
	C124.698906,70.797623 134.421158,70.333923 144.674774,70.213104 
	C145.367599,70.707794 145.600067,70.913368 145.900482,71.349625 
	C145.888382,72.069931 145.877518,72.481316 145.661819,73.027649 
	C145.300903,73.603638 145.144806,74.044662 144.663818,74.606567 
	C143.474045,75.440742 142.609131,76.154045 141.460144,76.978333 
	C140.074875,77.972198 138.973663,78.855095 137.556122,79.794899 
	C136.130432,80.812431 135.021072,81.773041 133.604462,82.888161 
	C128.204346,87.074440 123.111504,91.106201 117.674164,95.148865 
	C115.065384,96.817268 112.662323,98.318527 110.573502,100.173607 
	C108.199837,102.281670 106.107086,104.706047 103.667107,106.980942 
	C103.441994,106.968964 102.993927,106.918854 102.993927,106.918854 
z"/>
<path fill="#4BAFF2" opacity="1.000000" stroke="none" 
	d="
M145.901718,71.040703 
	C145.600067,70.913368 145.367599,70.707794 145.103973,70.210167 
	C145.009628,63.310192 145.015625,56.624043 145.005890,49.469730 
	C145.035797,48.816837 145.081482,48.632114 145.366119,48.183998 
	C145.605087,47.920605 145.942719,47.900082 145.942719,47.900082 
	C148.162460,50.548698 150.830902,50.559811 154.232101,50.694599 
	C160.320938,50.935886 166.991180,46.781631 172.699722,52.543648 
	C173.655182,53.508060 176.199890,52.897995 178.422699,53.017639 
	C178.835175,53.019829 179.072098,53.346718 179.057449,53.893600 
	C179.527008,55.302094 180.011230,56.163708 180.495438,57.025322 
	C180.621506,61.715679 180.747574,66.406036 180.383179,71.552597 
	C178.906631,72.064766 177.836746,71.889519 176.947281,72.211952 
	C166.427689,76.025253 156.155548,73.889801 145.901718,71.040703 
z"/>
<path fill="#2D90D4" opacity="1.000000" stroke="none" 
	d="
M81.614555,88.048904 
	C81.726021,88.523392 81.466072,89.007561 81.097946,89.746078 
	C78.231117,91.492653 77.089645,90.387909 77.061478,87.166946 
	C78.472977,87.216942 79.858063,87.637764 81.614555,88.048904 
z"/>
<path fill="#2D90D4" opacity="1.000000" stroke="none" 
	d="
M48.884483,93.117157 
	C48.719131,93.252174 48.554283,93.190987 48.223785,92.924438 
	C48.333755,92.786369 48.609371,92.853653 48.884483,93.117157 
z"/>
<path fill="#2AA0F1" opacity="1.000000" stroke="none" 
	d="
M179.003052,133.009262 
	C179.131195,134.814255 179.259338,136.619232 179.656738,138.684952 
	C179.947037,142.325546 179.968063,145.705399 179.969421,149.543625 
	C179.452606,150.030365 178.753113,149.854279 178.487808,150.116882 
	C170.938095,157.589645 161.528778,152.641739 153.050507,153.795547 
	C152.189438,153.912735 151.017624,151.746399 149.640610,150.263489 
	C148.755997,150.432526 147.333054,150.704422 145.533569,150.980469 
	C145.116684,150.238159 145.076309,149.491684 145.033463,147.924072 
	C144.997086,144.147202 144.963211,141.191467 145.244934,138.008575 
	C146.011688,135.849167 146.462845,133.916962 147.297668,132.032776 
	C148.846970,133.874741 150.012604,135.668686 151.178238,137.462616 
	C151.080750,137.960602 150.983276,138.458588 150.885788,138.956573 
	C157.978256,138.956573 165.087219,139.216553 172.151230,138.768173 
	C173.851822,138.660217 175.409897,136.211731 177.020325,134.824310 
	C177.698853,134.239761 178.343185,133.615494 179.003052,133.009262 
M150.568298,147.296387 
	C150.295578,147.010666 150.022842,146.724930 149.750122,146.439209 
	C149.631897,146.552307 149.404617,146.757492 149.411133,146.765213 
	C149.665665,147.066574 149.941498,147.349945 150.568298,147.296387 
z"/>
<path fill="#0E80CF" opacity="1.000000" stroke="none" 
	d="
M144.929321,138.235748 
	C144.963211,141.191467 144.997086,144.147202 145.024734,147.549927 
	C135.804535,147.668549 126.592201,147.236908 117.375359,147.092850 
	C115.365494,147.061447 113.339569,148.057968 111.099152,148.909332 
	C109.654739,148.462006 108.432205,147.686432 106.935669,146.304840 
	C106.258675,145.513046 105.855690,145.327271 105.452705,145.141495 
	C104.736755,144.538284 104.020805,143.935089 103.161865,143.086151 
	C104.395721,137.704773 107.855270,136.606705 112.845467,136.885864 
	C120.549026,137.316757 128.294449,136.999390 135.935577,136.999390 
	C136.607773,136.174835 137.523361,135.051743 138.778183,133.878250 
	C139.117432,133.827850 139.128525,133.848923 139.079254,134.245316 
	C138.837631,136.344452 138.645279,138.047180 138.452927,139.749924 
	C138.838760,139.843353 139.224609,139.936798 139.610443,140.030228 
	C140.482758,138.979309 141.355072,137.928391 142.523743,136.944626 
	C143.200745,137.148666 143.581345,137.285553 144.077148,137.604401 
	C144.427078,137.954010 144.672745,138.103821 144.929321,138.235748 
z"/>
<path fill="#59B6F1" opacity="1.000000" stroke="none" 
	d="
M177.587860,159.980957 
	C176.902618,160.693329 175.837769,161.403580 174.439301,162.136047 
	C175.139847,161.431808 176.174057,160.705322 177.587860,159.980957 
z"/>
<path fill="#3DA9F2" opacity="1.000000" stroke="none" 
	d="
M179.945328,86.012001 
	C179.957092,92.033371 179.968842,98.054741 179.965195,104.545990 
	C169.242752,105.008644 158.535721,105.001427 147.383698,104.522873 
	C146.946365,97.363853 146.954010,90.676178 147.343689,84.068329 
	C148.421021,86.265594 149.116318,88.383041 150.090515,91.349884 
	C150.830704,89.050560 151.290222,87.623146 151.525543,86.892159 
	C156.174377,87.290085 160.339188,88.067757 164.463699,87.893204 
	C169.641510,87.674049 174.786285,86.674667 179.945328,86.012001 
z"/>
<path fill="#30A4F1" opacity="1.000000" stroke="none" 
	d="
M179.381165,132.990234 
	C178.343185,133.615494 177.698853,134.239761 177.020325,134.824310 
	C175.409897,136.211731 173.851822,138.660217 172.151230,138.768173 
	C165.087219,139.216553 157.978256,138.956573 150.885788,138.956573 
	C150.983276,138.458588 151.080750,137.960602 151.178238,137.462616 
	C150.012604,135.668686 148.846970,133.874741 147.295837,131.566589 
	C146.916885,125.363472 146.923431,119.674591 146.929962,113.985718 
	C147.967133,116.646812 149.004318,119.307915 150.414169,122.925163 
	C159.676407,122.009468 169.788895,121.009712 180.285461,120.008339 
	C180.661636,124.028519 180.653748,128.050308 180.578156,132.474060 
	C180.260056,132.907730 180.009659,132.939468 179.381165,132.990234 
z"/>
<path fill="#6FBCF0" opacity="1.000000" stroke="none" 
	d="
M146.927673,113.536980 
	C146.923431,119.674591 146.916885,125.363472 146.912170,131.518555 
	C146.462845,133.916962 146.011688,135.849167 145.244934,138.008575 
	C144.672745,138.103821 144.427078,137.954010 144.248505,137.205566 
	C144.504333,134.075699 144.703995,131.526596 144.946564,128.583344 
	C144.961517,127.133789 144.933578,126.078369 144.979523,124.645889 
	C145.005859,123.505440 144.958298,122.742050 144.954651,121.513153 
	C144.983902,106.369942 144.969238,91.692238 145.005142,76.595581 
	C145.033371,75.612991 145.011047,75.049339 144.988708,74.485695 
	C145.144806,74.044662 145.300903,73.603638 145.968811,73.323128 
	C146.640976,76.985268 146.801315,80.486893 146.961655,83.988510 
	C146.954010,90.676178 146.946365,97.363853 146.939911,104.518356 
	C146.935867,107.686211 146.930634,110.387230 146.927673,113.536980 
z"/>
<path fill="#1785D0" opacity="1.000000" stroke="none" 
	d="
M105.611832,145.428818 
	C105.855690,145.327271 106.258675,145.513046 106.781784,146.019653 
	C106.524918,146.132385 106.147934,145.924271 105.611832,145.428818 
z"/>
<path fill="#6FBCF0" opacity="1.000000" stroke="none" 
	d="
M145.982147,47.590721 
	C145.942719,47.900082 145.605087,47.920605 145.439331,47.908112 
	C145.352646,46.762859 145.431717,45.630096 145.769928,44.272568 
	C146.026581,45.125656 146.024078,46.203510 145.982147,47.590721 
z"/>
<path fill="#3484BA" opacity="1.000000" stroke="none" 
	d="
M96.997086,76.003052 
	C96.583298,76.011940 96.169510,76.020821 95.445770,76.039215 
	C95.516083,75.626518 95.896339,75.204315 96.558426,74.692291 
	C96.875114,74.834000 96.909981,75.065529 96.972427,75.648529 
	C97.000000,76.000000 96.997086,76.003052 96.997086,76.003052 
z"/>
<path fill="#43ABF1" opacity="1.000000" stroke="none" 
	d="
M147.343689,84.068329 
	C146.801315,80.486893 146.640976,76.985268 146.173630,73.188171 
	C145.877518,72.481316 145.888382,72.069931 145.900482,71.349625 
	C156.155548,73.889801 166.427689,76.025253 176.947281,72.211952 
	C177.836746,71.889519 178.906631,72.064766 180.284668,72.009979 
	C180.744858,74.394852 180.813080,76.778542 180.814392,79.608459 
	C180.490463,81.776047 180.233414,83.497406 179.960846,85.615387 
	C174.786285,86.674667 169.641510,87.674049 164.463699,87.893204 
	C160.339188,88.067757 156.174377,87.290085 151.525543,86.892159 
	C151.290222,87.623146 150.830704,89.050560 150.090515,91.349884 
	C149.116318,88.383041 148.421021,86.265594 147.343689,84.068329 
z"/>
<path fill="#59B6F1" opacity="1.000000" stroke="none" 
	d="
M180.591492,56.716770 
	C180.011230,56.163708 179.527008,55.302094 179.081024,54.094078 
	C179.641998,54.634521 180.164764,55.521370 180.591492,56.716770 
z"/>
<path fill="#FEFEFE" opacity="1.000000" stroke="none" 
	d="
M144.905640,125.022949 
	C144.933578,126.078369 144.961517,127.133789 144.592987,128.656433 
	C142.114014,130.095078 140.031494,131.066498 137.948959,132.037933 
	C137.948959,132.037918 137.997238,131.998871 137.963928,131.663742 
	C136.619247,130.555344 135.307846,129.782089 133.996460,129.008820 
	C133.996460,129.008820 133.999390,129.000366 133.996826,128.629242 
	C132.537582,125.040207 130.689240,122.405136 126.514610,123.231712 
	C126.514610,123.231712 126.195335,123.187439 126.105812,122.668350 
	C125.487518,118.033897 123.926117,115.097824 118.767952,115.996178 
	C118.536507,115.987282 118.073296,115.980484 118.058197,115.975113 
	C118.043106,115.969734 118.025261,115.940956 117.979927,115.583076 
	C116.792435,112.244682 115.686806,109.325081 111.797150,108.849045 
	C111.142075,108.768867 110.272408,107.297226 110.223404,106.427826 
	C110.185776,105.760315 111.185616,104.545258 111.891312,104.402931 
	C117.125023,103.347351 118.016312,99.568031 118.018661,95.137962 
	C123.111504,91.106201 128.204346,87.074440 133.773285,83.172791 
	C135.457077,82.114609 136.664764,80.926292 137.872452,79.737976 
	C138.973663,78.855095 140.074875,77.972198 141.860535,77.028763 
	C143.348190,76.983658 144.151398,76.999100 144.954590,77.014534 
	C144.969238,91.692238 144.983902,106.369942 144.630035,121.568375 
	C144.476227,123.067055 144.690933,124.044998 144.905640,125.022949 
M116.705688,106.561836 
	C116.988304,106.292191 117.270927,106.022552 117.553551,105.752914 
	C117.441772,105.635910 117.238937,105.411049 117.231361,105.417450 
	C116.933273,105.669136 116.652931,105.941841 116.705688,106.561836 
z"/>
<path fill="#EAF3F7" opacity="1.000000" stroke="none" 
	d="
M117.674164,95.148865 
	C118.016312,99.568031 117.125023,103.347351 111.891312,104.402931 
	C111.185616,104.545258 110.185776,105.760315 110.223404,106.427826 
	C110.272408,107.297226 111.142075,108.768867 111.797150,108.849045 
	C115.686806,109.325081 116.792435,112.244682 117.690926,115.604469 
	C117.254616,115.993454 117.061974,116.003159 116.869331,116.012871 
	C114.813934,114.686394 112.758537,113.359909 110.381775,111.916901 
	C108.451057,110.478584 106.841698,109.156807 104.791557,107.540573 
	C104.197929,107.161705 104.045074,107.077309 103.892212,106.992920 
	C106.107086,104.706047 108.199837,102.281670 110.573502,100.173607 
	C112.662323,98.318527 115.065384,96.817268 117.674164,95.148865 
z"/>
<path fill="#E0EFF5" opacity="1.000000" stroke="none" 
	d="
M118.999397,116.005074 
	C123.926117,115.097824 125.487518,118.033897 126.017227,122.533722 
	C123.454002,121.131920 120.889832,119.345665 118.210449,117.213333 
	C118.095238,116.867249 118.165504,116.767929 118.359940,116.716599 
	C118.783890,116.500015 118.932236,116.279953 118.999397,116.005074 
z"/>
<path fill="#E0EFF5" opacity="1.000000" stroke="none" 
	d="
M138.042145,132.295578 
	C140.031494,131.066498 142.114014,130.095078 144.550095,129.050568 
	C144.703995,131.526596 144.504333,134.075699 144.133316,137.023636 
	C143.581345,137.285553 143.200745,137.148666 142.450027,136.625259 
	C141.096130,135.442123 140.112335,134.645523 139.128525,133.848923 
	C139.128525,133.848923 139.117432,133.827850 139.134399,133.819580 
	C138.812668,133.391953 138.473999,132.972580 138.042145,132.295578 
z"/>
<path fill="#E0EFF5" opacity="1.000000" stroke="none" 
	d="
M126.651901,123.548241 
	C130.689240,122.405136 132.537582,125.040207 133.992737,128.631348 
	C131.590561,127.291298 129.189880,125.578033 126.651901,123.548241 
z"/>
<path fill="#E0EFF5" opacity="1.000000" stroke="none" 
	d="
M134.124237,129.306732 
	C135.307846,129.782089 136.619247,130.555344 137.948273,131.690460 
	C136.727966,131.236420 135.489990,130.420547 134.124237,129.306732 
z"/>
<path fill="#E0EFF5" opacity="1.000000" stroke="none" 
	d="
M116.977142,116.257744 
	C117.061974,116.003159 117.254616,115.993454 117.736259,115.962349 
	C118.025261,115.940956 118.043106,115.969734 118.059929,116.174561 
	C118.076752,116.379379 118.165504,116.767929 118.165504,116.767929 
	C118.165504,116.767929 118.095238,116.867249 118.060234,116.916901 
	C117.711807,116.811905 117.398384,116.657265 116.977142,116.257744 
z"/>
<path fill="#218BD2" opacity="1.000000" stroke="none" 
	d="
M103.667099,106.980942 
	C104.045074,107.077309 104.197929,107.161705 104.482147,107.472061 
	C103.608559,107.928825 102.603600,108.159630 101.598633,108.390427 
	C101.863319,107.945923 102.128014,107.501427 102.693314,106.987885 
	C102.993927,106.918854 103.441994,106.968964 103.667099,106.980942 
z"/>
<path fill="#E0EFF5" opacity="1.000000" stroke="none" 
	d="
M137.556122,79.794891 
	C136.664764,80.926292 135.457077,82.114609 134.080551,83.018280 
	C135.021072,81.773041 136.130432,80.812431 137.556122,79.794891 
z"/>
<path fill="#E0EFF5" opacity="1.000000" stroke="none" 
	d="
M145.005142,76.595581 
	C144.151398,76.999100 143.348190,76.983658 142.144608,76.917786 
	C142.609131,76.154045 143.474045,75.440742 144.663818,74.606567 
	C145.011047,75.049339 145.033371,75.612991 145.005142,76.595581 
z"/>
<path fill="#3484BA" opacity="1.000000" stroke="none" 
	d="
M97.001526,75.998535 
	C97.512749,76.300461 98.022446,76.603867 98.532143,76.907272 
	C98.350410,77.117119 98.168678,77.326965 97.986938,77.536812 
	C97.681343,77.214874 97.375748,76.892937 97.033615,76.287025 
	C96.997086,76.003052 97.000000,76.000000 97.001526,75.998535 
z"/>
<path fill="#279EED" opacity="1.000000" stroke="none" 
	d="
M150.391418,147.466034 
	C149.941498,147.349945 149.665665,147.066574 149.411133,146.765213 
	C149.404617,146.757492 149.631897,146.552307 149.750122,146.439209 
	C150.022842,146.724930 150.295578,147.010666 150.391418,147.466034 
z"/>
<path fill="#1785D0" opacity="1.000000" stroke="none" 
	d="
M139.079254,134.245316 
	C140.112335,134.645523 141.096130,135.442123 142.153656,136.558105 
	C141.355072,137.928391 140.482758,138.979309 139.610443,140.030228 
	C139.224609,139.936798 138.838760,139.843353 138.452927,139.749924 
	C138.645279,138.047180 138.837631,136.344452 139.079254,134.245316 
z"/>
<path fill="#E0EFF5" opacity="1.000000" stroke="none" 
	d="
M144.979523,124.645889 
	C144.690933,124.044998 144.476227,123.067055 144.586121,122.033882 
	C144.958298,122.742050 145.005859,123.505440 144.979523,124.645889 
z"/>
<path fill="#EAF3F7" opacity="1.000000" stroke="none" 
	d="
M116.537979,106.386826 
	C116.652931,105.941841 116.933273,105.669136 117.231361,105.417450 
	C117.238937,105.411049 117.441772,105.635910 117.553551,105.752914 
	C117.270927,106.022552 116.988304,106.292191 116.537979,106.386826 
z"/>
<path fill="#EAF3F7" opacity="1.000000" stroke="none" 
	d="
M118.359940,116.716599 
	C118.165504,116.767929 118.076752,116.379379 118.075027,116.179932 
	C118.073296,115.980484 118.536507,115.987282 118.767952,115.996178 
	C118.932236,116.279953 118.783890,116.500015 118.359940,116.716599 
z"/>
</svg>