<svg version="1.1" id="Layer_1" xmlns="http://www.w3.org/2000/svg" xmlns:xlink="http://www.w3.org/1999/xlink" x="0px" y="0px"
	 width="100%" viewBox="0 0 241 221" enable-background="new 0 0 241 221" xml:space="preserve">
<path fill="#FEFEFF" opacity="1.000000" stroke="none" 
	d="
M242.000000,70.000000 
	C242.000000,81.020897 242.000000,92.041786 241.632965,103.535454 
	C239.876953,104.806221 238.271057,105.374519 237.138489,106.444054 
	C233.301880,110.067184 229.632172,113.867134 225.899994,117.600800 
	C224.133606,119.367889 221.844269,120.869186 220.762207,122.986740 
	C219.796982,124.875664 220.167633,127.447227 219.948776,129.717545 
	C221.988754,129.663620 224.669769,130.419144 225.949677,129.405502 
	C229.945724,126.240791 233.368454,122.360748 237.105164,118.855797 
	C238.614456,117.440125 240.361267,116.277679 242.000000,115.000000 
	C242.000000,126.687561 242.000000,138.375122 241.650665,150.566711 
	C238.172714,153.931381 234.741608,156.543625 232.078720,159.786652 
	C231.139694,160.930267 231.507080,163.952454 232.392975,165.463043 
	C232.865753,166.269196 235.751984,165.918777 237.481415,165.652206 
	C239.035568,165.412628 240.497421,164.574234 242.000000,164.000000 
	C242.000000,174.354233 242.000000,184.708450 241.650986,195.566818 
	C236.472473,200.610672 231.370377,204.900879 226.907547,209.776230 
	C223.839157,213.128235 219.694565,216.365051 221.000000,222.000000 
	C148.312439,222.000000 75.624878,222.000000 2.369958,221.770599 
	C1.626063,221.225891 1.358530,221.045486 1.000000,221.000000 
	C1.000000,215.645065 1.000000,210.290146 1.381792,204.476746 
	C4.969704,204.382812 7.941637,207.459702 11.430660,204.112549 
	C19.991388,195.899948 28.902266,188.047791 37.316406,179.692261 
	C38.454174,178.562424 38.454170,174.362625 37.364117,173.382416 
	C35.876881,172.045044 31.887571,171.269180 30.633575,172.291641 
	C26.078514,176.005722 22.209610,180.563171 18.096027,184.816162 
	C15.570170,187.427628 13.281906,190.320435 10.500117,192.618683 
	C7.573609,195.036514 4.186083,196.896347 0.999999,199.000000 
	C1.000000,187.645767 1.000000,176.291550 1.383143,164.471375 
	C3.688528,162.934967 5.873218,162.157150 7.470704,160.724548 
	C9.792789,158.642120 11.612347,156.011383 13.788723,153.751724 
	C17.302595,150.103394 21.155975,146.752167 24.376648,142.869583 
	C25.337942,141.710724 24.664980,139.196228 24.740782,137.302841 
	C22.635073,137.318985 19.782980,136.463715 18.560347,137.510895 
	C14.516328,140.974609 11.227817,145.306702 7.298893,148.924973 
	C5.652030,150.441620 3.126214,151.003860 1.000000,152.000000 
	C1.000000,139.979111 1.000000,127.958214 1.426692,115.471321 
	C4.199255,114.521919 7.319245,114.832451 8.763460,113.424301 
	C17.181602,105.216377 25.210737,96.609222 33.361595,88.127617 
	C35.504620,85.897644 37.005844,83.615562 33.621170,81.161133 
	C30.785423,79.104759 28.663727,79.905647 26.307928,82.325447 
	C19.214285,89.611794 11.925584,96.710716 4.599124,103.764511 
	C3.770759,104.562042 2.217251,104.606392 1.000000,105.000000 
	C1.000000,93.645775 1.000000,82.291542 1.370819,70.467133 
	C3.123276,69.488991 4.813942,69.327118 5.835050,68.415375 
	C11.351379,63.489906 16.866594,58.539833 22.033928,53.257557 
	C24.322752,50.917816 25.557087,47.447815 22.219875,44.976379 
	C18.872114,42.497131 16.690660,45.412231 14.194776,47.455795 
	C10.002273,50.888493 5.418914,53.843826 1.000000,57.000000 
	C1.000000,45.979103 1.000000,34.958210 1.382056,23.470440 
	C3.358233,22.319582 5.292831,22.001488 6.488285,20.889072 
	C12.038546,15.724350 17.449680,10.403433 22.737005,4.969501 
	C23.603085,4.079407 23.600895,2.344469 24.000000,1.000000 
	C35.020893,1.000000 46.041790,1.000000 57.524551,1.373306 
	C57.229073,3.350132 56.833553,5.315104 55.653515,6.496373 
	C49.636898,12.519267 43.410973,18.332809 37.274654,24.236618 
	C36.078098,25.387836 34.325397,26.447386 33.953453,27.847811 
	C33.474415,29.651436 33.540512,32.157948 34.513474,33.581314 
	C35.103912,34.445080 38.037689,34.332745 39.580330,33.755135 
	C41.348137,33.093212 42.870323,31.561743 44.274506,30.179726 
	C49.924458,24.618969 55.597912,19.074274 61.041622,13.314710 
	C64.331421,9.834028 69.206490,7.084481 68.000000,1.000000 
	C80.354225,1.000000 92.708458,1.000000 105.525482,1.366191 
	C104.084137,4.108853 102.333549,6.632178 100.236969,8.824638 
	C97.613152,11.568454 94.502144,13.859589 91.983131,16.686275 
	C89.923851,18.997070 88.619080,22.032139 91.355530,24.693375 
	C94.328140,27.584284 96.553436,24.813515 98.484825,22.944983 
	C104.331085,17.289013 110.093552,11.541161 115.719170,5.666791 
	C116.859947,4.475583 117.259003,2.574061 118.000000,0.999999 
	C129.020889,1.000000 140.041794,1.000000 151.524857,1.368185 
	C149.047760,10.078673 140.752594,13.660029 135.613220,20.085398 
	C131.330109,25.440258 123.820976,28.469362 123.624809,36.913746 
	C122.147896,37.932880 121.046455,38.937798 119.972366,39.970009 
	C119.999710,39.997303 119.962982,39.929249 119.696953,39.551186 
	C117.932968,40.433590 116.435013,41.694054 114.965279,42.975777 
	C114.993492,42.997036 114.971832,42.929794 114.661942,42.554680 
	C113.887970,42.764271 113.423897,43.348976 112.981575,43.965260 
	C113.003334,43.996841 112.967621,43.927589 112.752258,43.564186 
	C110.918938,43.935734 109.300964,44.670689 107.362358,45.509598 
	C105.918709,46.338184 104.795700,47.062813 103.326515,47.891193 
	C102.299072,48.980377 101.617805,49.965809 100.964844,50.974960 
	C100.993149,50.998680 100.965187,50.930340 100.657043,50.564007 
	C99.887108,50.775082 99.425316,51.352489 98.981003,51.964874 
	C98.998474,51.999847 98.960022,51.930153 98.705383,51.573772 
	C96.949745,52.458782 95.448738,53.700169 93.973938,54.968967 
	C94.000145,54.996380 93.969032,54.927151 93.761108,54.563915 
	C91.996902,54.935959 90.440628,55.671234 88.498886,56.557278 
	C87.451210,58.045959 86.309792,59.352993 86.221191,60.727871 
	C85.999977,64.160767 86.256996,67.624481 86.105469,71.394707 
	C86.026535,75.116364 86.164238,78.519127 86.231079,82.389297 
	C86.319351,88.637978 86.478477,94.419273 86.710449,100.482803 
	C87.244324,101.119225 87.705345,101.473404 88.131485,102.166672 
	C88.062325,102.730423 88.028053,102.955078 87.644295,103.239014 
	C86.238647,103.826370 85.182495,104.354454 84.099869,104.474152 
	C83.768303,103.358772 83.463211,102.651772 82.878151,101.759613 
	C81.256966,101.962616 79.784271,102.114944 78.595924,102.777374 
	C71.078972,106.967613 63.625004,111.270828 56.112030,115.104263 
	C55.438316,111.289253 57.013477,109.104683 59.629749,107.107910 
	C62.376049,105.011894 65.138725,102.720444 67.155319,99.972191 
	C68.244514,98.487808 67.789635,95.870430 68.031357,93.764198 
	C66.043457,94.321861 63.564651,94.313095 62.153446,95.536148 
	C56.334103,100.579659 50.815937,105.973022 45.235229,111.288361 
	C42.989140,113.427643 40.465675,115.441238 38.834564,118.000343 
	C37.809479,119.608635 38.207581,122.124031 37.967190,124.232468 
	C40.203259,123.752632 42.565079,123.574669 44.640842,122.709999 
	C46.817211,121.803406 48.719139,120.237991 50.712246,119.431183 
	C50.732059,131.584732 50.780640,143.267609 50.663536,155.281311 
	C49.544605,159.971283 51.261684,162.502029 55.265041,164.641861 
	C65.092453,169.894653 74.557411,175.823288 84.347893,181.149704 
	C85.984932,182.040329 88.943413,182.040817 90.577782,181.147400 
	C101.088875,175.401489 111.426079,169.334091 121.741463,163.238724 
	C122.798477,162.614120 123.334251,161.107422 124.190674,159.545959 
	C124.276169,146.422089 124.282883,133.762299 124.562561,120.917221 
	C125.800072,120.206108 126.764618,119.680298 127.928955,119.785782 
	C128.269318,120.835518 128.409897,121.253967 128.416336,121.843857 
	C128.282196,122.015289 128.141937,122.427452 127.865067,122.691010 
	C127.505569,133.916855 127.304703,144.880920 127.470528,155.839447 
	C127.494797,157.443726 129.264664,159.021606 130.092712,161.200226 
	C129.872849,162.181946 129.787109,162.575134 129.401138,162.858276 
	C125.407700,164.636780 128.368362,165.626862 129.735672,166.468094 
	C138.344467,171.764481 146.978119,177.023941 155.713089,182.107391 
	C156.808365,182.744797 158.859238,182.837173 159.938751,182.234756 
	C170.536331,176.321121 181.057953,170.267578 191.498291,164.080231 
	C192.980927,163.201569 193.913986,161.395538 195.174500,159.607880 
	C195.351776,157.821472 195.455933,156.445923 195.886078,155.044083 
	C201.960587,152.016541 204.121017,148.933914 203.131058,146.117599 
	C200.650986,147.367142 198.110107,148.647293 195.459808,149.477142 
	C195.369781,139.297272 195.389206,129.567719 195.576385,119.632576 
	C195.172653,118.858658 194.601196,118.290329 194.026947,117.374092 
	C195.106094,115.427444 195.980179,113.626472 197.305450,112.264534 
	C203.442078,105.958038 209.775223,99.841972 215.875275,93.501198 
	C217.582367,91.726761 219.429214,89.047783 216.370819,87.217842 
	C214.871338,86.320648 211.491379,86.421066 210.292908,87.520393 
	C203.436523,93.809624 196.980133,100.534912 190.387756,107.111977 
	C188.423508,109.071671 186.458679,111.030785 184.158691,112.720627 
	C182.561417,112.279121 181.299545,112.107170 180.020782,111.966644 
	C180.003860,111.998062 180.062653,111.957565 180.335892,111.779343 
	C180.549362,111.392014 180.489609,111.182907 180.294800,110.689850 
	C179.781464,110.249634 179.403152,110.093361 179.018326,109.969467 
	C179.011795,110.001839 179.060806,109.957535 178.869354,109.709106 
	C178.103806,109.225441 177.529709,108.990211 176.674835,108.489410 
	C175.273499,108.126762 174.152908,108.029686 173.015686,107.964935 
	C172.999054,107.997269 173.049332,107.944908 173.280518,107.596573 
	C172.023895,106.319565 170.536102,105.390884 168.873352,104.228676 
	C167.970016,103.972694 167.241623,103.950241 166.492035,103.425583 
	C165.654221,102.926994 164.837601,102.930603 164.014435,102.966537 
	C164.007904,102.998863 164.060623,102.959236 164.392853,102.723526 
	C164.253235,101.936073 163.781418,101.384323 163.112793,100.575706 
	C161.951050,99.862373 160.986069,99.405914 159.787262,98.715866 
	C158.690323,98.443878 157.827209,98.405479 156.752075,98.247009 
	C156.540070,98.126938 156.064346,98.232597 156.065826,97.881599 
	C157.064255,96.410355 158.061234,95.290100 159.058823,94.119522 
	C159.059448,94.069183 159.158646,94.085121 159.539551,93.966034 
	C160.266647,92.152771 160.897202,90.461128 160.912415,88.763977 
	C161.004196,78.533836 160.954987,68.302437 160.966888,57.685257 
	C161.654282,55.699787 162.020370,53.851845 163.068802,52.555943 
	C164.930069,50.255314 167.593796,48.539894 169.169189,46.094738 
	C170.202301,44.491234 169.912292,42.035248 170.214844,39.961056 
	C168.190567,39.832516 165.338806,38.785458 164.285324,39.734528 
	C159.739349,43.829979 155.720230,48.510239 151.164383,52.838593 
	C148.093109,51.111671 145.447693,49.353455 142.607849,48.004608 
	C141.085815,47.281689 139.229248,47.263149 137.506516,46.958054 
	C137.489395,46.989357 137.535675,46.937481 137.568665,46.486847 
	C137.084457,46.005627 136.567276,45.975040 136.032867,45.975101 
	C136.015640,46.005745 136.062561,45.949562 136.375427,45.647671 
	C135.146027,44.548676 133.603775,43.751572 132.038452,42.968636 
	C132.015411,42.982807 132.034546,42.932190 132.127533,42.622707 
	C131.431366,41.655815 130.642227,40.998402 129.895111,39.952438 
	C130.683304,38.157093 131.151108,36.477581 132.219849,35.386906 
	C140.350632,27.089193 148.576584,18.884111 156.826660,10.704378 
	C158.809814,8.738115 159.840561,6.874225 157.886246,4.240479 
	C157.264450,3.402495 157.277466,2.093477 157.000000,1.000001 
	C170.687561,1.000000 184.375122,1.000000 198.524902,1.372058 
	C196.714096,4.807114 194.671432,8.080949 192.109848,10.879839 
	C188.896606,14.390732 184.976013,17.280203 181.966522,20.936533 
	C181.006012,22.103481 181.359451,25.242281 182.293655,26.743147 
	C182.850494,27.637754 185.763794,27.417339 187.507599,27.097569 
	C188.667557,26.884865 189.737869,25.717686 190.668716,24.796286 
	C197.060623,18.469122 203.468475,12.155096 209.707458,5.679111 
	C210.854630,4.488369 211.254959,2.578137 212.000000,1.000001 
	C221.354233,1.000000 230.708450,1.000000 240.632904,1.224308 
	C241.401978,1.728920 241.667603,1.912714 242.000000,2.000000 
	C242.000000,4.370557 242.000000,6.741115 241.650604,9.591257 
	C235.229553,15.518445 229.134079,20.939867 223.099899,26.428659 
	C221.137939,28.213284 218.874527,29.912527 217.612808,32.140091 
	C216.669556,33.805408 217.112930,36.256126 216.938843,38.357109 
	C218.959579,38.437614 221.659149,39.388500 222.876572,38.439011 
	C226.881287,35.315636 230.248489,31.390903 234.058548,27.996161 
	C236.526962,25.796837 239.340897,23.985298 242.000000,21.999996 
	C242.000000,33.687561 242.000000,45.375122 241.627335,57.536320 
	C237.295364,61.053856 232.977737,63.755711 229.569717,67.325851 
	C228.365128,68.587723 228.510040,72.497955 229.581329,74.262711 
	C231.314850,77.118362 233.775833,75.201927 235.888321,73.664871 
	C237.801544,72.272827 239.953384,71.208710 242.000000,70.000000 
M38.177101,214.137924 
	C39.777653,218.595535 42.514500,219.210251 46.187088,216.464050 
	C47.637508,215.379501 49.163651,214.341583 50.407944,213.045044 
	C57.354500,205.806946 64.255424,198.524277 71.103531,191.192963 
	C73.157677,188.993835 73.833244,186.362747 71.149635,184.279449 
	C68.685387,182.366440 66.041702,182.314651 63.636414,184.922531 
	C58.422710,190.575455 53.156227,196.183929 47.766972,201.668732 
	C45.345097,204.133545 42.397758,206.090836 40.044991,208.610901 
	C38.943569,209.790634 38.686840,211.759018 38.177101,214.137924 
M142.482681,201.986404 
	C138.809387,205.341736 134.862152,208.458191 131.613297,212.183670 
	C130.495926,213.464996 131.121964,216.266663 130.951553,218.373795 
	C132.980392,218.440567 135.869003,219.413559 136.903427,218.432175 
	C146.008820,209.793594 154.790497,200.813431 163.652679,191.919144 
	C165.746216,189.818024 164.967224,188.005127 162.869919,186.544464 
	C160.838303,185.129532 158.900818,184.348679 156.755798,186.755310 
	C152.285782,191.770462 147.598526,196.591965 142.482681,201.986404 
M58.996117,62.504101 
	C65.122284,56.375912 71.276794,50.275650 77.358185,44.103344 
	C79.307144,42.125244 81.174706,39.685268 78.198212,37.352837 
	C75.615578,35.329048 73.234734,35.367386 70.555054,38.451683 
	C65.922760,43.783409 60.400845,48.331921 55.419617,53.374447 
	C52.172909,56.661102 48.976139,60.063416 46.292576,63.798698 
	C45.510651,64.887062 45.999252,67.787880 46.981674,68.941093 
	C47.685669,69.767479 50.577950,69.690903 51.795086,68.917458 
	C54.277874,67.339729 56.289055,65.019859 58.996117,62.504101 
M193.342056,56.829082 
	C187.165466,62.782047 181.014359,68.761787 174.799225,74.674248 
	C172.449738,76.909325 170.580017,79.314957 173.038971,82.389206 
	C175.866547,85.924309 178.763199,83.315399 180.727493,81.452995 
	C188.892853,73.711250 196.885803,65.774231 204.603104,57.589310 
	C205.640945,56.488567 205.485397,52.278103 204.591248,51.767136 
	C202.903030,50.802395 199.988342,50.834808 198.121933,51.664425 
	C196.367188,52.444405 195.306992,54.786892 193.342056,56.829082 
M96.945755,200.569901 
	C95.188156,202.854675 93.986549,205.486618 96.735420,207.497726 
	C97.860947,208.321182 100.911987,208.205933 101.893730,207.268250 
	C110.769218,198.791168 119.477478,190.129532 127.929832,181.232315 
	C128.858215,180.255081 128.580460,176.933029 127.610443,175.631104 
	C126.139198,173.656448 123.842781,173.607971 121.658653,175.760162 
	C114.916473,182.403763 107.952148,188.821320 101.147797,195.402847 
	C99.737633,196.766815 98.644852,198.458908 96.945755,200.569901 
M207.000000,196.500000 
	C210.871033,192.628830 214.866196,188.870331 218.541092,184.821167 
	C219.717575,183.524857 220.633850,181.426285 220.539734,179.758530 
	C220.484650,178.782623 218.130005,177.115814 216.932693,177.216797 
	C215.123199,177.369385 213.066147,178.433594 211.737427,179.742813 
	C207.120697,184.291779 202.846481,189.186111 198.296295,193.805588 
	C195.219635,196.929108 191.861267,199.773117 188.698807,202.814835 
	C186.468536,204.959961 184.883011,207.887421 187.960129,209.873123 
	C189.396439,210.800018 193.104996,209.824905 194.766083,208.467056 
	C198.983658,205.019363 202.626846,200.869019 207.000000,196.500000 
z"/>
<path fill="#FBFBFB" opacity="1.000000" stroke="none" 
	d="
M0.999999,199.416656 
	C4.186083,196.896347 7.573609,195.036514 10.500117,192.618683 
	C13.281906,190.320435 15.570170,187.427628 18.096027,184.816162 
	C22.209610,180.563171 26.078514,176.005722 30.633575,172.291641 
	C31.887571,171.269180 35.876881,172.045044 37.364117,173.382416 
	C38.454170,174.362625 38.454174,178.562424 37.316406,179.692261 
	C28.902266,188.047791 19.991388,195.899948 11.430660,204.112549 
	C7.941637,207.459702 4.969704,204.382812 1.381792,204.009140 
	C1.000000,202.611115 1.000000,201.222214 0.999999,199.416656 
z"/>
<path fill="#FBFBFB" opacity="1.000000" stroke="none" 
	d="
M1.000000,105.454109 
	C2.217251,104.606392 3.770759,104.562042 4.599124,103.764511 
	C11.925584,96.710716 19.214285,89.611794 26.307928,82.325447 
	C28.663727,79.905647 30.785423,79.104759 33.621170,81.161133 
	C37.005844,83.615562 35.504620,85.897644 33.361595,88.127617 
	C25.210737,96.609222 17.181602,105.216377 8.763460,113.424301 
	C7.319245,114.832451 4.199255,114.521919 1.426692,115.002663 
	C1.000000,111.969406 1.000000,108.938812 1.000000,105.454109 
z"/>
<path fill="#FAFAFB" opacity="1.000000" stroke="none" 
	d="
M156.583344,1.000001 
	C157.277466,2.093477 157.264450,3.402495 157.886246,4.240479 
	C159.840561,6.874225 158.809814,8.738115 156.826660,10.704378 
	C148.576584,18.884111 140.350632,27.089193 132.219849,35.386906 
	C131.151108,36.477581 130.683304,38.157093 129.570068,39.841667 
	C127.468742,39.046143 125.734512,37.972836 124.000282,36.899529 
	C123.820976,28.469362 131.330109,25.440258 135.613220,20.085398 
	C140.752594,13.660029 149.047760,10.078673 151.993515,1.368185 
	C153.388885,1.000000 154.777786,1.000000 156.583344,1.000001 
z"/>
<path fill="#FBFBFB" opacity="1.000000" stroke="none" 
	d="
M67.545891,1.000000 
	C69.206490,7.084481 64.331421,9.834028 61.041622,13.314710 
	C55.597912,19.074274 49.924458,24.618969 44.274506,30.179726 
	C42.870323,31.561743 41.348137,33.093212 39.580330,33.755135 
	C38.037689,34.332745 35.103912,34.445080 34.513474,33.581314 
	C33.540512,32.157948 33.474415,29.651436 33.953453,27.847811 
	C34.325397,26.447386 36.078098,25.387836 37.274654,24.236618 
	C43.410973,18.332809 49.636898,12.519267 55.653515,6.496373 
	C56.833553,5.315104 57.229073,3.350132 57.993210,1.373306 
	C61.030594,1.000000 64.061188,1.000000 67.545891,1.000000 
z"/>
<path fill="#FCFCFC" opacity="1.000000" stroke="none" 
	d="
M221.468918,222.000000 
	C219.694565,216.365051 223.839157,213.128235 226.907547,209.776230 
	C231.370377,204.900879 236.472473,200.610672 241.650986,196.035477 
	C242.000000,204.585068 242.000000,213.170120 242.000000,222.000000 
	C235.314590,222.000000 228.626221,222.000000 221.468918,222.000000 
z"/>
<path fill="#FBFBFB" opacity="1.000000" stroke="none" 
	d="
M211.536819,1.000001 
	C211.254959,2.578137 210.854630,4.488369 209.707458,5.679111 
	C203.468475,12.155096 197.060623,18.469122 190.668716,24.796286 
	C189.737869,25.717686 188.667557,26.884865 187.507599,27.097569 
	C185.763794,27.417339 182.850494,27.637754 182.293655,26.743147 
	C181.359451,25.242281 181.006012,22.103481 181.966522,20.936533 
	C184.976013,17.280203 188.896606,14.390732 192.109848,10.879839 
	C194.671432,8.080949 196.714096,4.807114 198.993561,1.372058 
	C203.024551,1.000000 207.049088,1.000000 211.536819,1.000001 
z"/>
<path fill="#FCFCFC" opacity="1.000000" stroke="none" 
	d="
M23.531422,1.000000 
	C23.600895,2.344469 23.603085,4.079407 22.737005,4.969501 
	C17.449680,10.403433 12.038546,15.724350 6.488285,20.889072 
	C5.292831,22.001488 3.358233,22.319582 1.382056,23.001783 
	C1.000000,16.312355 1.000000,9.624711 1.239888,2.388944 
	C1.653184,1.560547 1.826592,1.280274 2.000000,1.000000 
	C9.020947,1.000000 16.041895,1.000000 23.531422,1.000000 
z"/>
<path fill="#FBFBFB" opacity="1.000000" stroke="none" 
	d="
M242.000000,21.539360 
	C239.340897,23.985298 236.526962,25.796837 234.058548,27.996161 
	C230.248489,31.390903 226.881287,35.315636 222.876572,38.439011 
	C221.659149,39.388500 218.959579,38.437614 216.938843,38.357109 
	C217.112930,36.256126 216.669556,33.805408 217.612808,32.140091 
	C218.874527,29.912527 221.137939,28.213284 223.099899,26.428659 
	C229.134079,20.939867 235.229553,15.518445 241.650604,10.035421 
	C242.000000,13.692909 242.000000,17.385818 242.000000,21.539360 
z"/>
<path fill="#FBFBFB" opacity="1.000000" stroke="none" 
	d="
M117.539368,0.999999 
	C117.259003,2.574061 116.859947,4.475583 115.719170,5.666791 
	C110.093552,11.541161 104.331085,17.289013 98.484825,22.944983 
	C96.553436,24.813515 94.328140,27.584284 91.355530,24.693375 
	C88.619080,22.032139 89.923851,18.997070 91.983131,16.686275 
	C94.502144,13.859589 97.613152,11.568454 100.236969,8.824638 
	C102.333549,6.632178 104.084137,4.108853 105.994141,1.366191 
	C109.692909,1.000000 113.385818,1.000000 117.539368,0.999999 
z"/>
<path fill="#FBFBFB" opacity="1.000000" stroke="none" 
	d="
M1.000000,152.460632 
	C3.126214,151.003860 5.652030,150.441620 7.298893,148.924973 
	C11.227817,145.306702 14.516328,140.974609 18.560347,137.510895 
	C19.782980,136.463715 22.635073,137.318985 24.740782,137.302841 
	C24.664980,139.196228 25.337942,141.710724 24.376648,142.869583 
	C21.155975,146.752167 17.302595,150.103394 13.788723,153.751724 
	C11.612347,156.011383 9.792789,158.642120 7.470704,160.724548 
	C5.873218,162.157150 3.688528,162.934967 1.383143,164.002716 
	C1.000000,160.307098 1.000000,156.614182 1.000000,152.460632 
z"/>
<path fill="#FBFBFB" opacity="1.000000" stroke="none" 
	d="
M1.000000,57.463184 
	C5.418914,53.843826 10.002273,50.888493 14.194776,47.455795 
	C16.690660,45.412231 18.872114,42.497131 22.219875,44.976379 
	C25.557087,47.447815 24.322752,50.917816 22.033928,53.257557 
	C16.866594,58.539833 11.351379,63.489906 5.835050,68.415375 
	C4.813942,69.327118 3.123276,69.488991 1.370819,69.998474 
	C1.000000,65.975456 1.000000,61.950912 1.000000,57.463184 
z"/>
<path fill="#FBFBFB" opacity="1.000000" stroke="none" 
	d="
M242.000000,114.541931 
	C240.361267,116.277679 238.614456,117.440125 237.105164,118.855797 
	C233.368454,122.360748 229.945724,126.240791 225.949677,129.405502 
	C224.669769,130.419144 221.988754,129.663620 219.948776,129.717545 
	C220.167633,127.447227 219.796982,124.875664 220.762207,122.986740 
	C221.844269,120.869186 224.133606,119.367889 225.899994,117.600800 
	C229.632172,113.867134 233.301880,110.067184 237.138489,106.444054 
	C238.271057,105.374519 239.876953,104.806221 241.632965,104.004112 
	C242.000000,107.361290 242.000000,110.722572 242.000000,114.541931 
z"/>
<path fill="#FBFBFB" opacity="1.000000" stroke="none" 
	d="
M242.000000,69.539368 
	C239.953384,71.208710 237.801544,72.272827 235.888321,73.664871 
	C233.775833,75.201927 231.314850,77.118362 229.581329,74.262711 
	C228.510040,72.497955 228.365128,68.587723 229.569717,67.325851 
	C232.977737,63.755711 237.295364,61.053856 241.627335,58.004978 
	C242.000000,61.692909 242.000000,65.385818 242.000000,69.539368 
z"/>
<path fill="#FBFBFB" opacity="1.000000" stroke="none" 
	d="
M242.000000,163.536804 
	C240.497421,164.574234 239.035568,165.412628 237.481415,165.652206 
	C235.751984,165.918777 232.865753,166.269196 232.392975,165.463043 
	C231.507080,163.952454 231.139694,160.930267 232.078720,159.786652 
	C234.741608,156.543625 238.172714,153.931381 241.650665,151.035370 
	C242.000000,155.024551 242.000000,159.049088 242.000000,163.536804 
z"/>
<path fill="#DCDCDC" opacity="1.000000" stroke="none" 
	d="
M1.000000,221.500000 
	C1.358530,221.045486 1.626063,221.225891 1.901300,221.770599 
	C1.666667,222.000000 1.333333,222.000000 1.000000,221.500000 
z"/>
<path fill="#EAEAEA" opacity="1.000000" stroke="none" 
	d="
M242.000000,1.500000 
	C241.667603,1.912714 241.401978,1.728920 241.101562,1.224308 
	C241.333328,1.000000 241.666672,1.000000 242.000000,1.500000 
z"/>
<path fill="#DCDCDC" opacity="1.000000" stroke="none" 
	d="
M1.500000,1.000000 
	C1.826592,1.280274 1.653184,1.560547 1.239888,1.920411 
	C1.000000,1.666667 1.000000,1.333333 1.500000,1.000000 
z"/>
<path fill="#1B61ED" opacity="1.000000" stroke="none" 
	d="
M130.226837,160.611694 
	C129.264664,159.021606 127.494797,157.443726 127.470528,155.839447 
	C127.304703,144.880920 127.505569,133.916855 128.050598,122.847748 
	C129.027023,122.282112 129.541031,121.823288 130.334244,121.145287 
	C138.955536,116.104912 147.229736,111.158096 155.702759,106.579178 
	C157.215424,105.761726 159.927216,105.770531 161.445312,106.587341 
	C169.780197,111.071877 178.018082,115.763481 186.036987,120.786728 
	C187.717896,121.839706 189.227814,124.550049 189.299774,126.551216 
	C189.639984,136.011688 189.618896,145.496399 189.314728,154.959229 
	C189.254410,156.835968 187.849594,159.395599 186.276779,160.375504 
	C178.245102,165.379501 170.048111,170.145248 161.679199,174.558670 
	C159.940445,175.475601 156.849319,175.284500 155.031296,174.345657 
	C146.637497,170.010971 138.473328,165.231644 130.226837,160.611694 
M166.346558,156.185211 
	C168.414169,155.089859 170.481796,153.994507 172.666733,152.837006 
	C169.362198,148.673050 169.362198,148.673050 165.854111,150.183701 
	C160.801941,152.359238 155.066132,151.231552 152.239197,147.506927 
	C149.459656,143.844757 149.523911,137.676849 152.380936,133.898224 
	C155.165329,130.215683 160.629395,128.756714 165.500458,131.126984 
	C169.004898,132.832230 170.603027,131.849670 171.857513,128.748474 
	C164.975723,123.038826 156.472839,122.677765 150.191818,127.666168 
	C144.262115,132.375549 142.403351,141.461304 145.914520,148.573639 
	C149.292831,155.416855 157.004471,158.469345 166.346558,156.185211 
z"/>
<path fill="#1B61ED" opacity="1.000000" stroke="none" 
	d="
M84.126343,104.882538 
	C85.182495,104.354454 86.238647,103.826370 87.835800,103.506424 
	C93.591766,106.510941 98.806725,109.307327 104.056488,112.435295 
	C105.724083,113.846306 107.356873,114.925751 109.307617,116.135605 
	C112.585541,117.945000 115.545509,119.623970 118.595200,121.742256 
	C118.711617,132.636597 118.870888,143.094650 118.632874,153.543655 
	C118.593788,155.259354 117.226082,157.614899 115.760056,158.516876 
	C107.567642,163.557297 99.221947,168.363342 90.760361,172.938263 
	C89.198875,173.782501 86.455597,173.959915 84.956642,173.150665 
	C76.201393,168.423843 67.575577,163.438446 59.119617,158.195892 
	C57.815788,157.387558 57.615044,154.800003 57.223454,153.020264 
	C60.216297,150.798965 62.950134,148.657928 65.492516,146.309631 
	C65.837875,145.990631 65.497093,144.326126 64.967278,143.857407 
	C64.560379,143.497452 63.333275,143.959259 62.511066,144.195374 
	C60.614803,144.739975 58.742958,145.369614 56.713547,145.524200 
	C56.531788,138.193329 56.408207,131.301346 56.535114,124.413963 
	C56.562202,122.943947 57.499256,121.490685 58.369560,119.986771 
	C67.190132,114.923401 75.658234,109.902969 84.126343,104.882538 
M74.299614,130.261292 
	C77.289688,137.482742 80.139763,144.768265 83.390472,151.870422 
	C84.024330,153.255264 86.224197,154.722748 87.684364,154.705215 
	C89.145187,154.687653 91.016594,153.141998 91.930779,151.754196 
	C93.278610,149.708038 93.943687,147.210693 94.889351,144.901337 
	C97.761398,137.887665 100.628548,130.871994 103.553551,123.720329 
	C97.305122,122.730965 97.295967,122.727325 95.449356,127.374489 
	C92.976540,133.597565 90.519638,139.826965 87.580048,147.256287 
	C84.645142,139.737869 81.973244,133.655945 79.919403,127.371994 
	C78.475403,122.953918 76.004395,122.340546 71.792770,123.729073 
	C72.610291,125.855858 73.316803,127.693840 74.299614,130.261292 
z"/>
<path fill="#D3E0F8" opacity="1.000000" stroke="none" 
	d="
M159.058197,94.169853 
	C158.061234,95.290100 157.064255,96.410355 156.091888,98.085197 
	C156.116486,98.639793 156.220047,99.037567 155.948990,99.251678 
	C145.623856,105.307343 135.632523,111.263145 125.443939,116.859848 
	C124.014893,117.644836 121.293282,117.268349 119.723816,116.413124 
	C109.372864,110.772758 99.173546,104.854103 88.814972,98.612900 
	C88.577003,86.071892 88.423065,73.944267 88.364601,61.816185 
	C88.359314,60.720467 88.969528,59.621784 89.625847,58.415436 
	C91.294868,57.179977 92.631950,56.053566 93.969032,54.927155 
	C93.969032,54.927151 94.000145,54.996380 94.312073,55.156307 
	C96.069336,54.187542 97.514679,53.058849 98.960022,51.930153 
	C98.960022,51.930153 98.998474,51.999847 99.297623,52.201553 
	C100.052917,51.912289 100.509048,51.421314 100.965187,50.930340 
	C100.965187,50.930340 100.993149,50.998680 101.274567,51.157005 
	C102.799919,50.685364 104.043846,50.055393 105.554596,49.344437 
	C106.584541,48.774097 107.347672,48.284744 108.446396,47.644867 
	C110.177200,46.305428 111.572411,45.116512 112.967621,43.927589 
	C112.967621,43.927589 113.003334,43.996841 113.300995,44.168152 
	C114.056381,43.869572 114.514107,43.399681 114.971832,42.929794 
	C114.971832,42.929794 114.993492,42.997036 115.312454,43.119904 
	C117.075272,42.138264 118.519127,41.033756 119.962982,39.929249 
	C119.962982,39.929249 119.999710,39.997303 120.352196,40.146393 
	C122.653938,40.760239 124.601341,41.232937 126.552994,41.687428 
	C128.377838,42.112392 130.207184,42.518040 132.034546,42.932190 
	C132.034546,42.932190 132.015411,42.982807 131.727173,43.266472 
	C132.980148,44.349945 134.521362,45.149754 136.062561,45.949562 
	C136.062561,45.949562 136.015640,46.005745 136.048050,46.369812 
	C136.565536,46.801750 137.050598,46.869614 137.535675,46.937481 
	C137.535675,46.937481 137.489395,46.989357 137.578217,47.337059 
	C142.834152,50.704544 147.933746,53.849251 153.195770,56.693432 
	C155.987549,58.202415 157.301590,60.015423 157.220810,63.345051 
	C157.006729,72.169434 157.062500,81.004143 157.234695,89.830376 
	C157.263138,91.288177 158.421829,92.723923 159.058197,94.169853 
M121.369972,43.908012 
	C112.569046,48.988426 103.703102,53.962139 95.027779,59.248669 
	C93.485657,60.188400 91.819252,62.401024 91.769989,64.071854 
	C91.470558,74.228691 91.537514,84.400444 91.727402,94.562630 
	C91.752319,95.895966 92.854675,97.744339 94.008484,98.436378 
	C102.864090,103.747879 111.815163,108.906082 120.855865,113.895790 
	C122.011940,114.533852 124.159386,114.468567 125.331665,113.810333 
	C134.190079,108.836334 142.983276,103.735764 151.622833,98.393318 
	C152.970245,97.560120 154.150131,95.315002 154.188980,93.693588 
	C154.424362,83.866669 154.452225,74.027039 154.166656,64.202782 
	C154.117264,62.503101 152.635574,60.212254 151.140121,59.292587 
	C142.913483,54.233330 134.498062,49.477997 126.088608,44.722401 
	C124.885674,44.042130 123.363197,43.926926 121.369972,43.908012 
z"/>
<path fill="#DAE5F8" opacity="1.000000" stroke="none" 
	d="
M130.092712,161.200226 
	C138.473328,165.231644 146.637497,170.010971 155.031296,174.345657 
	C156.849319,175.284500 159.940445,175.475601 161.679199,174.558670 
	C170.048111,170.145248 178.245102,165.379501 186.276779,160.375504 
	C187.849594,159.395599 189.254410,156.835968 189.314728,154.959229 
	C189.618896,145.496399 189.639984,136.011688 189.299774,126.551216 
	C189.227814,124.550049 187.717896,121.839706 186.036987,120.786728 
	C178.018082,115.763481 169.780197,111.071877 161.445312,106.587341 
	C159.927216,105.770531 157.215424,105.761726 155.702759,106.579178 
	C147.229736,111.158096 138.955536,116.104912 130.075272,121.140434 
	C129.208221,121.460648 128.879364,121.566528 128.550476,121.672409 
	C128.409897,121.253967 128.269318,120.835518 128.107208,119.537277 
	C137.027054,113.418587 145.942062,108.133652 154.935989,102.986610 
	C156.416992,102.139061 158.244354,101.896721 160.086517,101.585373 
	C160.763870,102.007706 161.266388,102.219360 162.014008,102.648636 
	C162.859619,102.897247 163.460114,102.928238 164.060623,102.959236 
	C164.060623,102.959236 164.007904,102.998863 164.121887,103.386887 
	C164.994995,103.825859 165.754120,103.876823 166.513229,103.927780 
	C167.241623,103.950241 167.970016,103.972694 168.502960,104.536041 
	C169.888107,106.032936 171.468719,106.988922 173.049332,107.944908 
	C173.049332,107.944908 172.999054,107.997269 172.930573,108.335190 
	C175.262283,109.767929 177.662476,110.862747 180.062653,111.957565 
	C180.062653,111.957565 180.003860,111.998062 179.932831,112.351830 
	C181.713470,113.247894 182.827759,117.144440 185.712906,113.886414 
	C186.287704,114.035561 186.651489,114.243797 186.681152,114.791565 
	C187.583725,116.075279 188.820465,117.019470 190.029633,117.980927 
	C190.002075,117.998184 190.031662,117.940254 189.974823,118.264114 
	C190.892349,119.399910 191.866730,120.211853 192.819244,121.490524 
	C192.777557,134.614105 192.757690,147.270966 192.466492,160.120605 
	C182.040451,166.230484 171.942108,172.248947 161.671021,177.956543 
	C160.111191,178.823318 157.318451,179.029709 155.829514,178.209686 
	C147.000229,173.346939 138.387146,168.091644 129.701355,162.968307 
	C129.787109,162.575134 129.872849,162.181946 130.092712,161.200226 
z"/>
<path fill="#FBFBFB" opacity="1.000000" stroke="none" 
	d="
M38.112190,213.753937 
	C38.686840,211.759018 38.943569,209.790634 40.044991,208.610901 
	C42.397758,206.090836 45.345097,204.133545 47.766972,201.668732 
	C53.156227,196.183929 58.422710,190.575455 63.636414,184.922531 
	C66.041702,182.314651 68.685387,182.366440 71.149635,184.279449 
	C73.833244,186.362747 73.157677,188.993835 71.103531,191.192963 
	C64.255424,198.524277 57.354500,205.806946 50.407944,213.045044 
	C49.163651,214.341583 47.637508,215.379501 46.187088,216.464050 
	C42.514500,219.210251 39.777653,218.595535 38.112190,213.753937 
z"/>
<path fill="#FBFBFB" opacity="1.000000" stroke="none" 
	d="
M142.741608,201.739716 
	C147.598526,196.591965 152.285782,191.770462 156.755798,186.755310 
	C158.900818,184.348679 160.838303,185.129532 162.869919,186.544464 
	C164.967224,188.005127 165.746216,189.818024 163.652679,191.919144 
	C154.790497,200.813431 146.008820,209.793594 136.903427,218.432175 
	C135.869003,219.413559 132.980392,218.440567 130.951553,218.373795 
	C131.121964,216.266663 130.495926,213.464996 131.613297,212.183670 
	C134.862152,208.458191 138.809387,205.341736 142.741608,201.739716 
z"/>
<path fill="#FBFBFB" opacity="1.000000" stroke="none" 
	d="
M58.745316,62.754906 
	C56.289055,65.019859 54.277874,67.339729 51.795086,68.917458 
	C50.577950,69.690903 47.685669,69.767479 46.981674,68.941093 
	C45.999252,67.787880 45.510651,64.887062 46.292576,63.798698 
	C48.976139,60.063416 52.172909,56.661102 55.419617,53.374447 
	C60.400845,48.331921 65.922760,43.783409 70.555054,38.451683 
	C73.234734,35.367386 75.615578,35.329048 78.198212,37.352837 
	C81.174706,39.685268 79.307144,42.125244 77.358185,44.103344 
	C71.276794,50.275650 65.122284,56.375912 58.745316,62.754906 
z"/>
<path fill="#FBFBFB" opacity="1.000000" stroke="none" 
	d="
M193.641632,56.635494 
	C195.306992,54.786892 196.367188,52.444405 198.121933,51.664425 
	C199.988342,50.834808 202.903030,50.802395 204.591248,51.767136 
	C205.485397,52.278103 205.640945,56.488567 204.603104,57.589310 
	C196.885803,65.774231 188.892853,73.711250 180.727493,81.452995 
	C178.763199,83.315399 175.866547,85.924309 173.038971,82.389206 
	C170.580017,79.314957 172.449738,76.909325 174.799225,74.674248 
	C181.014359,68.761787 187.165466,62.782047 193.641632,56.635494 
z"/>
<path fill="#FBFBFB" opacity="1.000000" stroke="none" 
	d="
M97.175781,200.284836 
	C98.644852,198.458908 99.737633,196.766815 101.147797,195.402847 
	C107.952148,188.821320 114.916473,182.403763 121.658653,175.760162 
	C123.842781,173.607971 126.139198,173.656448 127.610443,175.631104 
	C128.580460,176.933029 128.858215,180.255081 127.929832,181.232315 
	C119.477478,190.129532 110.769218,198.791168 101.893730,207.268250 
	C100.911987,208.205933 97.860947,208.321182 96.735420,207.497726 
	C93.986549,205.486618 95.188156,202.854675 97.175781,200.284836 
z"/>
<path fill="#FBFBFB" opacity="1.000000" stroke="none" 
	d="
M206.750000,196.750000 
	C202.626846,200.869019 198.983658,205.019363 194.766083,208.467056 
	C193.104996,209.824905 189.396439,210.800018 187.960129,209.873123 
	C184.883011,207.887421 186.468536,204.959961 188.698807,202.814835 
	C191.861267,199.773117 195.219635,196.929108 198.296295,193.805588 
	C202.846481,189.186111 207.120697,184.291779 211.737427,179.742813 
	C213.066147,178.433594 215.123199,177.369385 216.932693,177.216797 
	C218.130005,177.115814 220.484650,178.782623 220.539734,179.758530 
	C220.633850,181.426285 219.717575,183.524857 218.541092,184.821167 
	C214.866196,188.870331 210.871033,192.628830 206.750000,196.750000 
z"/>
<path fill="#FAFAFB" opacity="1.000000" stroke="none" 
	d="
M187.015289,114.452034 
	C186.651489,114.243797 186.287704,114.035561 185.618790,113.663498 
	C185.066086,113.288643 184.792908,113.118797 184.494110,112.990158 
	C186.458679,111.030785 188.423508,109.071671 190.387756,107.111977 
	C196.980133,100.534912 203.436523,93.809624 210.292908,87.520393 
	C211.491379,86.421066 214.871338,86.320648 216.370819,87.217842 
	C219.429214,89.047783 217.582367,91.726761 215.875275,93.501198 
	C209.775223,99.841972 203.442078,105.958038 197.305450,112.264534 
	C195.980179,113.626472 195.106094,115.427444 193.899887,117.443878 
	C193.775604,117.861572 193.508072,117.968224 193.049011,117.772888 
	C191.737183,117.698448 190.884415,117.819344 190.031662,117.940247 
	C190.031662,117.940254 190.002075,117.998184 190.357391,117.695854 
	C189.480240,116.413025 188.247757,115.432533 187.015289,114.452034 
z"/>
<path fill="#F2F5FB" opacity="1.000000" stroke="none" 
	d="
M50.741013,118.960518 
	C48.719139,120.237991 46.817211,121.803406 44.640842,122.709999 
	C42.565079,123.574669 40.203259,123.752632 37.967190,124.232468 
	C38.207581,122.124031 37.809479,119.608635 38.834564,118.000343 
	C40.465675,115.441238 42.989140,113.427643 45.235229,111.288361 
	C50.815937,105.973022 56.334103,100.579659 62.153446,95.536148 
	C63.564651,94.313095 66.043457,94.321861 68.031357,93.764198 
	C67.789635,95.870430 68.244514,98.487808 67.155319,99.972191 
	C65.138725,102.720444 62.376049,105.011894 59.629749,107.107910 
	C57.013477,109.104683 55.438316,111.289253 55.936066,115.301704 
	C55.168823,116.528412 54.539322,117.125183 53.576691,117.812408 
	C52.409386,118.255417 51.575199,118.607971 50.741013,118.960518 
z"/>
<path fill="#3F7AEF" opacity="1.000000" stroke="none" 
	d="
M124.111893,160.010040 
	C123.334251,161.107422 122.798477,162.614120 121.741463,163.238724 
	C111.426079,169.334091 101.088875,175.401489 90.577782,181.147400 
	C88.943413,182.040817 85.984932,182.040329 84.347893,181.149704 
	C74.557411,175.823288 65.092453,169.894653 55.265041,164.641861 
	C51.261684,162.502029 49.544605,159.971283 51.031609,155.299561 
	C52.056538,154.993530 52.547710,155.000076 53.114925,155.399200 
	C52.839291,158.734695 53.881634,160.680542 56.632057,162.202682 
	C65.932076,167.349533 75.026428,172.869827 84.360260,177.951920 
	C85.915741,178.798859 88.696053,178.932953 90.193588,178.103043 
	C100.793419,172.228760 111.206276,166.017090 122.083572,159.942474 
	C123.029556,159.984634 123.570732,159.997345 124.111893,160.010040 
z"/>
<path fill="#437CEE" opacity="1.000000" stroke="none" 
	d="
M129.401154,162.858276 
	C138.387146,168.091644 147.000229,173.346939 155.829514,178.209686 
	C157.318451,179.029709 160.111191,178.823318 161.671021,177.956543 
	C171.942108,172.248947 182.040451,166.230484 192.859909,160.151245 
	C194.050262,159.998978 194.575821,160.008850 195.101395,160.018738 
	C193.913986,161.395538 192.980927,163.201569 191.498291,164.080231 
	C181.057953,170.267578 170.536331,176.321121 159.938751,182.234756 
	C158.859238,182.837173 156.808365,182.744797 155.713089,182.107391 
	C146.978119,177.023941 138.344467,171.764481 129.735672,166.468094 
	C128.368362,165.626862 125.407700,164.636780 129.401154,162.858276 
z"/>
<path fill="#3674EE" opacity="1.000000" stroke="none" 
	d="
M159.911652,101.374695 
	C158.244354,101.896721 156.416992,102.139061 154.935989,102.986610 
	C145.942062,108.133652 137.027054,113.418587 127.907425,118.905983 
	C126.764618,119.680298 125.800072,120.206108 124.123077,120.893860 
	C122.824554,121.074013 122.238480,121.092232 121.381279,120.924133 
	C120.367668,120.267960 119.625198,119.798096 118.692375,119.105804 
	C116.154854,117.489029 113.864220,115.977180 111.413490,114.798050 
	C110.914635,114.558014 109.813271,115.570236 108.989662,116.005188 
	C107.356873,114.925751 105.724083,113.846306 103.996414,112.083374 
	C98.656479,108.209106 93.411430,105.018341 88.166374,101.827576 
	C87.705345,101.473404 87.244324,101.119225 87.007462,100.354477 
	C87.796021,99.637993 88.360413,99.332069 88.924812,99.026154 
	C99.173546,104.854103 109.372864,110.772758 119.723816,116.413124 
	C121.293282,117.268349 124.014893,117.644836 125.443939,116.859848 
	C135.632523,111.263145 145.623856,105.307343 156.102142,99.174957 
	C156.730438,98.761032 156.876343,98.588676 156.964096,98.367081 
	C157.827209,98.405479 158.690323,98.443878 159.779297,99.120178 
	C159.973984,100.296951 159.942810,100.835823 159.911652,101.374695 
z"/>
<path fill="#FAFAFB" opacity="1.000000" stroke="none" 
	d="
M151.509338,52.977642 
	C155.720230,48.510239 159.739349,43.829979 164.285324,39.734528 
	C165.338806,38.785458 168.190567,39.832516 170.214844,39.961056 
	C169.912292,42.035248 170.202301,44.491234 169.169189,46.094738 
	C167.593796,48.539894 164.930069,50.255314 163.068802,52.555943 
	C162.020370,53.851845 161.654282,55.699787 160.692459,57.534134 
	C159.838287,57.527725 159.272476,57.286232 158.687790,57.027489 
	C158.668915,57.010239 158.712708,56.977741 158.352295,56.892647 
	C155.831024,55.530918 153.670181,54.254280 151.509338,52.977642 
z"/>
<path fill="#3674EE" opacity="1.000000" stroke="none" 
	d="
M151.164383,52.838593 
	C153.670181,54.254280 155.831024,55.530918 158.322906,56.952988 
	C158.653946,57.098415 158.764969,57.072132 158.945572,57.573727 
	C159.137009,70.078590 159.147827,82.081856 159.158646,94.085121 
	C159.158646,94.085121 159.059448,94.069183 159.058823,94.119522 
	C158.421829,92.723923 157.263138,91.288177 157.234695,89.830376 
	C157.062500,81.004143 157.006729,72.169434 157.220810,63.345051 
	C157.301590,60.015423 155.987549,58.202415 153.195770,56.693432 
	C147.933746,53.849251 142.834152,50.704544 137.595337,47.305756 
	C139.229248,47.263149 141.085815,47.281689 142.607849,48.004608 
	C145.447693,49.353455 148.093109,51.111671 151.164383,52.838593 
z"/>
<path fill="#3F7AEF" opacity="1.000000" stroke="none" 
	d="
M53.909821,117.721962 
	C54.539322,117.125183 55.168823,116.528412 55.974289,115.734207 
	C63.625004,111.270828 71.078972,106.967613 78.595924,102.777374 
	C79.784271,102.114944 81.256966,101.962616 82.763306,102.097641 
	C74.272743,107.806923 65.617058,112.993027 56.655209,118.228348 
	C55.601906,118.593376 54.854763,118.909180 54.065712,118.848236 
	C53.985813,118.221657 53.947819,117.971809 53.909821,117.721962 
z"/>
<path fill="#1B61ED" opacity="1.000000" stroke="none" 
	d="
M88.814972,98.612892 
	C88.360413,99.332069 87.796021,99.637993 86.934616,100.072235 
	C86.478477,94.419273 86.319351,88.637978 86.472672,82.079819 
	C86.630775,77.893898 86.476440,74.484863 86.322098,71.075821 
	C86.256996,67.624481 85.999977,64.160767 86.221191,60.727871 
	C86.309792,59.352993 87.451210,58.045959 88.590813,57.089020 
	C89.143440,57.821487 89.218674,58.172981 89.293900,58.524479 
	C88.969528,59.621784 88.359314,60.720467 88.364601,61.816185 
	C88.423065,73.944267 88.577003,86.071892 88.814972,98.612892 
z"/>
<path fill="#AFC8F6" opacity="1.000000" stroke="none" 
	d="
M56.961365,118.179123 
	C65.617058,112.993027 74.272743,107.806923 83.043274,102.282799 
	C83.463211,102.651772 83.768303,103.358772 84.099869,104.474152 
	C75.658234,109.902969 67.190132,114.923401 58.285011,119.732040 
	C57.552452,119.073204 57.256908,118.626167 56.961365,118.179123 
z"/>
<path fill="#2B6DED" opacity="1.000000" stroke="none" 
	d="
M195.174500,159.607880 
	C194.575821,160.008850 194.050262,159.998978 193.131256,159.958466 
	C192.757690,147.270966 192.777557,134.614105 193.110489,121.332352 
	C193.667984,120.345718 193.912384,119.983978 194.463196,119.714256 
	C194.982605,119.816902 195.195618,119.827538 195.408630,119.838165 
	C195.389206,129.567719 195.369781,139.297272 195.318924,149.891083 
	C195.378372,152.193680 195.469238,153.632019 195.560104,155.070374 
	C195.455933,156.445923 195.351776,157.821472 195.174500,159.607880 
z"/>
<path fill="#3572ED" opacity="1.000000" stroke="none" 
	d="
M121.652420,121.110451 
	C122.238480,121.092232 122.824554,121.074013 123.850113,121.079163 
	C124.282883,133.762299 124.276169,146.422089 124.190674,159.545959 
	C123.570732,159.997345 123.029556,159.984634 122.107811,159.480804 
	C121.702293,146.363266 121.677361,133.736862 121.652420,121.110451 
z"/>
<path fill="#2B6DED" opacity="1.000000" stroke="none" 
	d="
M53.576694,117.812408 
	C53.947819,117.971809 53.985813,118.221657 53.897430,119.216034 
	C53.576645,121.733688 53.231117,123.505257 53.212883,125.280182 
	C53.111111,135.188553 53.088528,145.097717 53.038883,155.006622 
	C52.547710,155.000076 52.056538,154.993530 51.197289,154.968719 
	C50.780640,143.267609 50.732059,131.584732 50.712246,119.431183 
	C51.575199,118.607971 52.409386,118.255417 53.576694,117.812408 
z"/>
<path fill="#D3E0F8" opacity="1.000000" stroke="none" 
	d="
M159.539551,93.966034 
	C159.147827,82.081856 159.137009,70.078590 158.919540,57.595955 
	C158.712906,57.116585 158.706665,57.044739 158.706665,57.044739 
	C159.272476,57.286232 159.838287,57.527725 160.678528,57.920341 
	C160.954987,68.302437 161.004196,78.533836 160.912415,88.763977 
	C160.897202,90.461128 160.266647,92.152771 159.539551,93.966034 
z"/>
<path fill="#E8EEFA" opacity="1.000000" stroke="none" 
	d="
M195.886078,155.044083 
	C195.469238,153.632019 195.378372,152.193680 195.428375,150.341385 
	C198.110107,148.647293 200.650986,147.367142 203.131058,146.117599 
	C204.121017,148.933914 201.960587,152.016541 195.886078,155.044083 
z"/>
<path fill="#AFC8F6" opacity="1.000000" stroke="none" 
	d="
M88.131485,102.166672 
	C93.411430,105.018341 98.656479,108.209106 103.961609,111.751801 
	C98.806725,109.307327 93.591766,106.510941 88.185303,103.447144 
	C88.028053,102.955078 88.062325,102.730423 88.131485,102.166672 
z"/>
<path fill="#3674EE" opacity="1.000000" stroke="none" 
	d="
M132.127533,42.622707 
	C130.207184,42.518040 128.377838,42.112392 126.552994,41.687428 
	C124.601341,41.232937 122.653938,40.760239 120.324844,40.119099 
	C121.046455,38.937798 122.147896,37.932880 123.624809,36.913750 
	C125.734512,37.972836 127.468742,39.046143 129.528015,40.230221 
	C130.642227,40.998402 131.431366,41.655815 132.127533,42.622707 
z"/>
<path fill="#4D84F0" opacity="1.000000" stroke="none" 
	d="
M86.105469,71.394707 
	C86.476440,74.484863 86.630775,77.893898 86.543526,81.612419 
	C86.164238,78.519127 86.026535,75.116364 86.105469,71.394707 
z"/>
<path fill="#3674EE" opacity="1.000000" stroke="none" 
	d="
M180.335892,111.779343 
	C177.662476,110.862747 175.262283,109.767929 172.947220,108.302856 
	C174.152908,108.029686 175.273499,108.126762 176.829773,108.781860 
	C177.863922,109.545761 178.462357,109.751648 179.060806,109.957535 
	C179.060806,109.957535 179.011795,110.001839 179.169952,110.236145 
	C179.695358,110.638229 180.062607,110.806007 180.429840,110.973793 
	C180.489609,111.182907 180.549362,111.392014 180.335892,111.779343 
z"/>
<path fill="#3674EE" opacity="1.000000" stroke="none" 
	d="
M112.752266,43.564186 
	C111.572411,45.116512 110.177200,46.305428 108.347488,47.044891 
	C107.836327,46.198841 107.759666,45.802242 107.682999,45.405640 
	C109.300964,44.670689 110.918938,43.935734 112.752266,43.564186 
z"/>
<path fill="#3674EE" opacity="1.000000" stroke="none" 
	d="
M119.696953,39.551186 
	C118.519127,41.033756 117.075272,42.138264 115.284241,43.098640 
	C116.435013,41.694054 117.932968,40.433590 119.696953,39.551186 
z"/>
<path fill="#3674EE" opacity="1.000000" stroke="none" 
	d="
M89.625839,58.415436 
	C89.218674,58.172981 89.143440,57.821487 88.976280,56.938248 
	C90.440628,55.671234 91.996902,54.935959 93.761108,54.563919 
	C92.631950,56.053566 91.294868,57.179977 89.625839,58.415436 
z"/>
<path fill="#3674EE" opacity="1.000000" stroke="none" 
	d="
M136.375427,45.647671 
	C134.521362,45.149754 132.980148,44.349945 131.750229,43.252304 
	C133.603775,43.751572 135.146027,44.548676 136.375427,45.647671 
z"/>
<path fill="#3674EE" opacity="1.000000" stroke="none" 
	d="
M105.287773,49.425423 
	C104.043846,50.055393 102.799919,50.685364 101.246269,51.133286 
	C101.617805,49.965809 102.299072,48.980377 103.665573,48.089363 
	C104.663124,48.597660 104.975449,49.011539 105.287773,49.425423 
z"/>
<path fill="#3674EE" opacity="1.000000" stroke="none" 
	d="
M98.705383,51.573776 
	C97.514679,53.058849 96.069336,54.187542 94.285858,55.128895 
	C95.448738,53.700169 96.949745,52.458782 98.705383,51.573776 
z"/>
<path fill="#4D84F0" opacity="1.000000" stroke="none" 
	d="
M105.554596,49.344437 
	C104.975449,49.011539 104.663124,48.597660 104.011749,47.985615 
	C104.795700,47.062813 105.918709,46.338184 107.362358,45.509598 
	C107.759666,45.802242 107.836327,46.198841 108.011902,47.195419 
	C107.347672,48.284744 106.584541,48.774097 105.554596,49.344437 
z"/>
<path fill="#3674EE" opacity="1.000000" stroke="none" 
	d="
M184.158691,112.720619 
	C184.792908,113.118797 185.066086,113.288643 185.407791,113.722595 
	C182.827759,117.144440 181.713470,113.247894 179.949738,112.320404 
	C181.299545,112.107170 182.561417,112.279121 184.158691,112.720619 
z"/>
<path fill="#3674EE" opacity="1.000000" stroke="none" 
	d="
M173.280518,107.596573 
	C171.468719,106.988922 169.888107,106.032936 168.677887,104.769577 
	C170.536102,105.390884 172.023895,106.319565 173.280518,107.596573 
z"/>
<path fill="#437CEE" opacity="1.000000" stroke="none" 
	d="
M160.086517,101.585373 
	C159.942810,100.835823 159.973984,100.296951 160.013123,99.353767 
	C160.986069,99.405914 161.951050,99.862373 162.783417,100.764809 
	C162.356827,101.617531 162.062866,102.024277 161.768890,102.431023 
	C161.266388,102.219360 160.763870,102.007706 160.086517,101.585373 
z"/>
<path fill="#E8EEFA" opacity="1.000000" stroke="none" 
	d="
M195.576385,119.632576 
	C195.195618,119.827538 194.982605,119.816902 194.459702,119.485939 
	C193.935898,118.766479 193.721985,118.367348 193.508072,117.968224 
	C193.508072,117.968224 193.775604,117.861572 193.902679,117.791786 
	C194.601196,118.290329 195.172653,118.858658 195.576385,119.632576 
z"/>
<path fill="#3674EE" opacity="1.000000" stroke="none" 
	d="
M128.416351,121.843849 
	C128.879364,121.566528 129.208221,121.460648 129.796066,121.359612 
	C129.541031,121.823288 129.027023,122.282112 128.327469,122.584198 
	C128.141937,122.427452 128.282196,122.015289 128.416351,121.843849 
z"/>
<path fill="#3674EE" opacity="1.000000" stroke="none" 
	d="
M162.014008,102.648636 
	C162.062866,102.024277 162.356827,101.617531 162.980194,101.021683 
	C163.781418,101.384323 164.253235,101.936073 164.392853,102.723526 
	C163.460114,102.928238 162.859619,102.897247 162.014008,102.648636 
z"/>
<path fill="#437CEE" opacity="1.000000" stroke="none" 
	d="
M178.869354,109.709106 
	C178.462357,109.751648 177.863922,109.545761 177.110535,109.047424 
	C177.529709,108.990211 178.103806,109.225441 178.869354,109.709106 
z"/>
<path fill="#3674EE" opacity="1.000000" stroke="none" 
	d="
M166.492035,103.425583 
	C165.754120,103.876823 164.994995,103.825859 164.128418,103.354561 
	C164.837601,102.930603 165.654221,102.926994 166.492035,103.425583 
z"/>
<path fill="#3674EE" opacity="1.000000" stroke="none" 
	d="
M114.661934,42.554680 
	C114.514107,43.399681 114.056381,43.869572 113.279236,44.136570 
	C113.423897,43.348976 113.887970,42.764271 114.661934,42.554680 
z"/>
<path fill="#3674EE" opacity="1.000000" stroke="none" 
	d="
M100.657043,50.564007 
	C100.509048,51.421314 100.052917,51.912289 99.280151,52.166580 
	C99.425316,51.352489 99.887108,50.775082 100.657043,50.564007 
z"/>
<path fill="#437CEE" opacity="1.000000" stroke="none" 
	d="
M180.294800,110.689850 
	C180.062607,110.806007 179.695358,110.638229 179.176483,110.203766 
	C179.403152,110.093361 179.781464,110.249634 180.294800,110.689850 
z"/>
<path fill="#437CEE" opacity="1.000000" stroke="none" 
	d="
M156.752075,98.247009 
	C156.876343,98.588676 156.730438,98.761032 156.373199,98.960854 
	C156.220047,99.037567 156.116486,98.639793 156.090424,98.436195 
	C156.064346,98.232597 156.540070,98.126938 156.752075,98.247009 
z"/>
<path fill="#3674EE" opacity="1.000000" stroke="none" 
	d="
M137.568665,46.486847 
	C137.050598,46.869614 136.565536,46.801750 136.065277,46.339172 
	C136.567276,45.975040 137.084457,46.005627 137.568665,46.486847 
z"/>
<path fill="#EAF0FB" opacity="1.000000" stroke="none" 
	d="
M165.939743,156.262207 
	C157.004471,158.469345 149.292831,155.416855 145.914520,148.573639 
	C142.403351,141.461304 144.262115,132.375549 150.191818,127.666168 
	C156.472839,122.677765 164.975723,123.038826 171.857513,128.748474 
	C170.603027,131.849670 169.004898,132.832230 165.500458,131.126984 
	C160.629395,128.756714 155.165329,130.215683 152.380936,133.898224 
	C149.523911,137.676849 149.459656,143.844757 152.239197,147.506927 
	C155.066132,151.231552 160.801941,152.359238 165.854111,150.183701 
	C169.362198,148.673050 169.362198,148.673050 172.666733,152.837006 
	C170.481796,153.994507 168.414169,155.089859 165.939743,156.262207 
z"/>
<path fill="#E1EAFB" opacity="1.000000" stroke="none" 
	d="
M53.114925,155.399200 
	C53.088528,145.097717 53.111111,135.188553 53.212883,125.280182 
	C53.231117,123.505257 53.576645,121.733688 53.939339,119.592773 
	C54.854763,118.909180 55.601906,118.593376 56.655205,118.228348 
	C57.256908,118.626167 57.552452,119.073204 57.932545,119.774979 
	C57.499256,121.490685 56.562202,122.943947 56.535114,124.413963 
	C56.408207,131.301346 56.531788,138.193329 56.564533,145.948151 
	C56.676838,148.886841 56.790501,150.961060 56.904160,153.035278 
	C57.615044,154.800003 57.815788,157.387558 59.119617,158.195892 
	C67.575577,163.438446 76.201393,168.423843 84.956642,173.150665 
	C86.455597,173.959915 89.198875,173.782501 90.760361,172.938263 
	C99.221947,168.363342 107.567642,163.557297 115.760056,158.516876 
	C117.226082,157.614899 118.593788,155.259354 118.632874,153.543655 
	C118.870888,143.094650 118.711617,132.636597 118.725266,121.255112 
	C118.804657,119.995186 118.843689,119.661705 118.882721,119.328232 
	C119.625198,119.798096 120.367668,120.267960 121.381287,120.924133 
	C121.677361,133.736862 121.702293,146.363266 121.702995,159.451340 
	C111.206276,166.017090 100.793419,172.228760 90.193588,178.103043 
	C88.696053,178.932953 85.915741,178.798859 84.360260,177.951920 
	C75.026428,172.869827 65.932076,167.349533 56.632057,162.202682 
	C53.881634,160.680542 52.839291,158.734695 53.114925,155.399200 
z"/>
<path fill="#E9F0FC" opacity="1.000000" stroke="none" 
	d="
M74.161461,129.896561 
	C73.316803,127.693840 72.610291,125.855858 71.792770,123.729073 
	C76.004395,122.340546 78.475403,122.953918 79.919403,127.371994 
	C81.973244,133.655945 84.645142,139.737869 87.580048,147.256287 
	C90.519638,139.826965 92.976540,133.597565 95.449356,127.374489 
	C97.295967,122.727325 97.305122,122.730965 103.553551,123.720329 
	C100.628548,130.871994 97.761398,137.887665 94.889351,144.901337 
	C93.943687,147.210693 93.278610,149.708038 91.930779,151.754196 
	C91.016594,153.141998 89.145187,154.687653 87.684364,154.705215 
	C86.224197,154.722748 84.024330,153.255264 83.390472,151.870422 
	C80.139763,144.768265 77.289688,137.482742 74.161461,129.896561 
z"/>
<path fill="#1B62ED" opacity="1.000000" stroke="none" 
	d="
M57.223450,153.020264 
	C56.790501,150.961060 56.676838,148.886841 56.712189,146.388672 
	C58.742958,145.369614 60.614803,144.739975 62.511066,144.195374 
	C63.333275,143.959259 64.560379,143.497452 64.967278,143.857407 
	C65.497093,144.326126 65.837875,145.990631 65.492516,146.309631 
	C62.950134,148.657928 60.216297,150.798965 57.223450,153.020264 
z"/>
<path fill="#80A7F3" opacity="1.000000" stroke="none" 
	d="
M118.692368,119.105804 
	C118.843689,119.661705 118.804657,119.995186 118.635551,120.815804 
	C115.545509,119.623970 112.585541,117.945000 109.307617,116.135605 
	C109.813271,115.570236 110.914635,114.558014 111.413490,114.798050 
	C113.864220,115.977180 116.154854,117.489029 118.692368,119.105804 
z"/>
<path fill="#1B62ED" opacity="1.000000" stroke="none" 
	d="
M121.679291,43.729111 
	C123.363197,43.926926 124.885674,44.042130 126.088608,44.722401 
	C134.498062,49.477997 142.913483,54.233330 151.140121,59.292587 
	C152.635574,60.212254 154.117264,62.503101 154.166656,64.202782 
	C154.452225,74.027039 154.424362,83.866669 154.188980,93.693588 
	C154.150131,95.315002 152.970245,97.560120 151.622833,98.393318 
	C142.983276,103.735764 134.190079,108.836334 125.331665,113.810333 
	C124.159386,114.468567 122.011940,114.533852 120.855865,113.895790 
	C111.815163,108.906082 102.864090,103.747879 94.008484,98.436378 
	C92.854675,97.744339 91.752319,95.895966 91.727402,94.562630 
	C91.537514,84.400444 91.470558,74.228691 91.769989,64.071854 
	C91.819252,62.401024 93.485657,60.188400 95.027779,59.248669 
	C103.703102,53.962139 112.569046,48.988426 121.679291,43.729111 
M132.579437,74.961914 
	C132.810043,74.944160 133.040634,74.926399 133.553543,75.692818 
	C133.607376,80.517776 133.892654,85.354561 133.647141,90.164238 
	C133.421158,94.591042 135.045151,95.916359 139.453888,94.431404 
	C139.453888,84.212631 139.453888,73.984535 139.453888,63.538731 
	C128.863159,61.176701 129.025452,72.792900 122.991455,75.706520 
	C117.044373,72.388008 117.045097,61.034046 106.668877,63.617844 
	C106.668877,74.228767 106.668877,84.439583 106.668877,94.697708 
	C108.671494,94.697708 110.266434,94.697708 112.546066,94.697708 
	C112.546066,87.748642 112.546066,81.075630 112.546066,74.402618 
	C112.884743,74.316452 113.223412,74.230278 113.562088,74.144104 
	C116.613441,78.050987 119.664795,81.957870 122.948395,86.162109 
	C126.323952,81.925461 129.104874,78.435120 132.579437,74.961914 
z"/>
<path fill="#3674EE" opacity="1.000000" stroke="none" 
	d="
M186.681152,114.791565 
	C188.247757,115.432533 189.480240,116.413025 190.384949,117.678596 
	C188.820465,117.019470 187.583725,116.075279 186.681152,114.791565 
z"/>
<path fill="#3674EE" opacity="1.000000" stroke="none" 
	d="
M193.049011,117.772888 
	C193.721985,118.367348 193.935898,118.766479 194.153290,119.393921 
	C193.912384,119.983978 193.667984,120.345718 193.132324,120.865631 
	C191.866730,120.211853 190.892349,119.399910 189.974823,118.264107 
	C190.884415,117.819344 191.737183,117.698448 193.049011,117.772888 
z"/>
<path fill="#FEFEFF" opacity="1.000000" stroke="none" 
	d="
M158.687790,57.027489 
	C158.706665,57.044739 158.712906,57.116585 158.738937,57.094360 
	C158.764969,57.072132 158.653946,57.098415 158.683319,57.038078 
	C158.712708,56.977741 158.668915,57.010239 158.687790,57.027489 
z"/>
<path fill="#E9F0FC" opacity="1.000000" stroke="none" 
	d="
M131.885803,74.944778 
	C129.104874,78.435120 126.323952,81.925461 122.948395,86.162109 
	C119.664795,81.957870 116.613441,78.050987 113.562088,74.144104 
	C113.223412,74.230278 112.884743,74.316452 112.546066,74.402618 
	C112.546066,81.075630 112.546066,87.748642 112.546066,94.697708 
	C110.266434,94.697708 108.671494,94.697708 106.668877,94.697708 
	C106.668877,84.439583 106.668877,74.228767 106.668877,63.617844 
	C117.045097,61.034046 117.044373,72.388008 122.991455,75.706520 
	C129.025452,72.792900 128.863159,61.176701 139.453888,63.538731 
	C139.453888,73.984535 139.453888,84.212631 139.453888,94.431404 
	C135.045151,95.916359 133.421158,94.591042 133.647141,90.164238 
	C133.892654,85.354561 133.607376,80.517776 133.342331,75.010811 
	C132.716019,74.534134 132.300903,74.739456 131.885803,74.944778 
z"/>
<path fill="#3572ED" opacity="1.000000" stroke="none" 
	d="
M132.232620,74.953346 
	C132.300903,74.739456 132.716019,74.534134 133.201172,74.618729 
	C133.040634,74.926399 132.810043,74.944160 132.232620,74.953346 
z"/>
</svg>